<?xml version="1.0" standalone="no"?>
<!DOCTYPE svg PUBLIC "-//W3C//DTD SVG 20010904//EN"
 "http://www.w3.org/TR/2001/REC-SVG-20010904/DTD/svg10.dtd">
<svg version="1.0" xmlns="http://www.w3.org/2000/svg"
 width="880.000000pt" height="963.000000pt" viewBox="0 0 880.000000 963.000000"
 preserveAspectRatio="xMidYMid meet">

<g transform="translate(0.000000,963.000000) scale(0.100000,-0.100000)"
fill="#000000" stroke="none">
<path d="M2643 9216 c-104 -34 -176 -98 -222 -196 l-26 -55 0 -910 0 -910 24
-60 c29 -71 103 -149 176 -185 43 -22 64 -25 150 -25 87 0 107 4 155 26 81 39
144 99 182 177 l33 67 0 905 0 905 -27 57 c-58 124 -184 207 -326 214 -49 3
-92 -1 -119 -10z"/>
<path d="M5939 9217 c-103 -29 -181 -96 -228 -197 l-26 -55 -3 -880 c-2 -565
1 -897 8 -927 24 -113 85 -196 182 -249 60 -32 68 -34 163 -34 93 0 105 2 166
32 79 39 140 102 177 181 l27 57 3 884 c3 976 5 940 -60 1037 -39 58 -109 113
-175 137 -63 24 -175 31 -234 14z"/>
<path d="M1270 8319 c-108 -9 -163 -22 -259 -59 -281 -109 -502 -358 -583
-661 l-23 -84 -2 -2905 c-4 -3195 -7 -2984 57 -3163 85 -233 282 -439 512
-535 41 -17 119 -40 175 -51 101 -21 108 -21 3236 -21 3392 0 3211 -3 3370 51
309 106 552 381 625 706 16 73 17 261 17 3003 l0 2925 -23 85 c-88 332 -355
598 -688 685 -32 8 -111 20 -174 25 -139 12 -720 13 -738 2 -9 -7 -12 -69 -10
-278 l3 -269 400 -5 400 -5 58 -28 c117 -58 199 -170 217 -298 5 -35 9 -342 9
-681 l0 -618 -3459 0 -3460 0 0 643 c0 387 4 659 10 685 27 114 113 221 217
270 l58 27 398 3 397 3 -2 277 -3 277 -325 1 c-179 1 -363 -2 -410 -7z m6595
-4679 l0 -1945 -23 -57 c-27 -68 -105 -157 -169 -195 -96 -56 92 -53 -3273
-53 -3365 0 -3177 -3 -3273 53 -64 38 -142 127 -169 195 l-23 57 -3 1935 c-1
1064 0 1941 3 1948 3 10 702 12 3467 10 l3463 -3 0 -1945z"/>
<path d="M2335 5034 c-11 -2 -45 -9 -75 -15 -138 -28 -287 -140 -353 -267
-149 -285 -42 -618 246 -764 110 -55 227 -69 352 -43 203 43 367 200 420 401
19 75 19 203 0 279 -48 184 -215 350 -395 393 -54 13 -167 22 -195 16z"/>
<path d="M4345 5034 c-11 -2 -45 -9 -75 -15 -93 -19 -178 -67 -256 -144 -120
-118 -170 -247 -161 -415 10 -199 120 -371 295 -463 162 -86 338 -86 508 -2
52 25 89 54 140 107 106 113 154 230 154 381 0 295 -220 530 -515 551 -38 2
-79 2 -90 0z"/>
<path d="M6298 5030 c-121 -19 -227 -78 -320 -179 -200 -215 -182 -527 42
-751 143 -145 299 -194 485 -155 207 44 382 218 424 423 59 285 -112 568 -390
646 -72 20 -171 26 -241 16z"/>
<path d="M2279 3019 c-336 -49 -547 -406 -429 -723 86 -229 336 -393 565 -371
394 37 621 450 443 806 -74 148 -243 266 -411 289 -87 11 -88 11 -168 -1z"/>
<path d="M4294 3016 c-204 -39 -376 -199 -429 -402 -64 -246 65 -519 299 -634
312 -152 683 19 771 356 19 74 19 203 0 277 -49 189 -217 357 -395 396 -83 18
-174 20 -246 7z"/>
<path d="M3482 8322 c-9 -7 -12 -69 -10 -278 l3 -269 915 0 915 0 3 269 c2
209 -1 271 -10 278 -7 4 -416 8 -908 8 -492 0 -901 -4 -908 -8z"/>
</g>
</svg>
