<?xml version="1.0" standalone="no"?>
<!DOCTYPE svg PUBLIC "-//W3C//DTD SVG 20010904//EN"
 "http://www.w3.org/TR/2001/REC-SVG-20010904/DTD/svg10.dtd">
<svg version="1.0" xmlns="http://www.w3.org/2000/svg"
 width="880.000000pt" height="947.000000pt" viewBox="0 0 880.000000 947.000000"
 preserveAspectRatio="xMidYMid meet">

<g transform="translate(0.000000,947.000000) scale(0.100000,-0.100000)"
fill="#000000" stroke="none">
<path d="M3520 9064 c-570 -50 -968 -155 -1415 -374 -693 -339 -1245 -914
-1508 -1570 -189 -471 -238 -938 -157 -1493 99 -674 420 -1277 923 -1735 l67
-61 0 -725 c0 -399 3 -727 7 -729 5 -3 332 183 729 413 l721 418 104 -13 c406
-53 927 -66 1184 -31 745 101 1328 378 1811 860 410 410 682 917 800 1490 113
554 72 1092 -122 1577 -406 1018 -1420 1800 -2534 1954 -110 15 -510 28 -610
19z m527 -529 c1028 -134 1948 -909 2208 -1860 60 -222 70 -302 70 -585 0
-279 -11 -379 -65 -598 -103 -421 -298 -775 -595 -1081 -410 -424 -969 -681
-1605 -740 -284 -27 -925 0 -1187 48 l-42 8 -433 -288 c-238 -159 -436 -289
-440 -289 -5 0 -8 204 -8 453 l0 454 -67 54 c-103 83 -310 295 -403 413 -127
159 -213 294 -299 467 -122 244 -191 458 -233 723 -32 201 -32 563 -1 746 132
758 623 1390 1372 1765 342 171 753 285 1141 318 131 11 478 6 587 -8z"/>
<path d="M1975 6477 c-112 -38 -199 -111 -241 -201 -93 -205 -15 -425 184
-519 61 -29 76 -32 162 -32 85 0 102 3 160 31 158 75 241 230 218 409 -16 122
-99 233 -218 289 -51 24 -80 30 -145 33 -48 2 -96 -2 -120 -10z"/>
<path d="M3502 6471 c-198 -74 -304 -281 -243 -477 39 -127 128 -216 255 -255
185 -58 381 30 464 209 24 50 27 69 27 157 0 88 -3 107 -27 157 -37 80 -107
152 -186 190 -84 42 -207 50 -290 19z"/>
<path d="M5063 6476 c-104 -34 -194 -114 -241 -214 -24 -50 -27 -70 -27 -157
0 -93 2 -105 32 -166 86 -174 277 -257 459 -200 340 105 368 563 44 718 -67
32 -198 42 -267 19z"/>
<path d="M7355 6683 c13 -34 6 -385 -10 -529 -16 -138 -16 -145 2 -168 291
-375 433 -678 506 -1079 32 -177 32 -528 0 -702 -72 -390 -227 -729 -480
-1045 -87 -109 -274 -296 -383 -383 -90 -72 -287 -208 -357 -247 l-43 -24 -2
-454 -3 -454 -435 290 -435 290 -140 -23 c-176 -30 -358 -45 -528 -45 -524 0
-898 121 -1377 446 l-115 78 -367 0 c-203 1 -368 -2 -368 -5 0 -14 313 -287
435 -379 469 -354 941 -534 1520 -581 195 -15 542 -6 739 20 l150 20 95 -58
c53 -32 374 -230 715 -439 340 -210 622 -382 627 -382 5 0 9 306 10 728 l0
727 92 66 c424 307 794 763 982 1214 147 349 208 654 208 1025 0 298 -37 538
-124 802 -144 435 -372 796 -726 1146 -151 149 -206 192 -188 145z"/>
</g>
</svg>
