<?xml version="1.0" standalone="no"?>
<!DOCTYPE svg PUBLIC "-//W3C//DTD SVG 20010904//EN"
 "http://www.w3.org/TR/2001/REC-SVG-20010904/DTD/svg10.dtd">
<svg version="1.0" xmlns="http://www.w3.org/2000/svg"
 width="880.000000pt" height="920.000000pt" viewBox="0 0 880.000000 920.000000"
 preserveAspectRatio="xMidYMid meet">

<g transform="translate(0.000000,920.000000) scale(0.100000,-0.100000)"
fill="#000000" stroke="none">
<path d="M4095 8789 c-822 -68 -1564 -363 -2205 -875 -174 -139 -467 -432
-604 -604 -699 -875 -1002 -1977 -845 -3075 103 -719 385 -1367 847 -1947 136
-171 429 -464 600 -600 909 -725 2040 -1021 3177 -832 670 112 1298 394 1845
830 172 137 464 430 604 604 576 722 886 1598 886 2509 0 915 -307 1785 -888
2513 -136 171 -429 464 -602 602 -612 489 -1320 781 -2105 866 -136 15 -575
21 -710 9z m556 -379 c893 -69 1674 -426 2300 -1049 279 -278 485 -557 660
-896 600 -1154 532 -2544 -178 -3634 -595 -915 -1548 -1502 -2648 -1633 -168
-20 -636 -17 -810 5 -753 96 -1412 395 -1980 898 -664 588 -1081 1391 -1192
2299 -26 215 -24 619 5 840 107 823 456 1535 1036 2116 283 282 593 507 935
679 574 288 1249 423 1872 375z"/>
<path d="M4160 7458 c-51 -14 -100 -55 -121 -102 -18 -39 -19 -93 -19 -1329 0
-1099 2 -1292 14 -1315 8 -15 345 -356 748 -759 602 -600 740 -733 770 -741
141 -38 291 130 234 261 -8 18 -305 322 -700 717 l-686 685 0 1220 c0 1170 -1
1222 -19 1261 -22 49 -70 88 -126 103 -46 13 -48 13 -95 -1z"/>
</g>
</svg>
