<svg id="svg" version="1.1" xmlns="http://www.w3.org/2000/svg" xmlns:xlink="http://www.w3.org/1999/xlink" width="400" height="419.5238095238095" viewBox="0, 0, 400,419.5238095238095"><g id="svgg"><path id="path0" d="M181.600 20.207 C 162.090 22.859,153.488 24.698,141.000 28.888 C 97.388 43.520,59.519 74.241,35.591 114.400 C 4.638 166.347,1.046 232.769,26.288 286.400 C 27.272 288.490,28.455 291.010,28.918 292.000 C 47.048 330.802,83.044 365.454,124.000 383.532 C 140.398 390.770,156.030 395.295,173.200 397.774 C 290.922 414.769,396.523 317.881,390.075 198.793 C 385.138 107.597,311.337 30.094,220.200 20.394 C 213.404 19.671,186.504 19.540,181.600 20.207 M206.400 35.204 C 244.095 37.122,272.747 46.775,302.557 67.600 C 359.451 107.344,386.661 181.507,369.993 251.400 C 362.671 282.100,345.515 312.694,324.041 333.343 C 321.296 335.983,321.131 336.076,319.694 335.808 C 317.800 335.454,308.338 331.734,303.400 329.401 C 299.260 327.445,294.334 325.200,294.184 325.200 C 293.832 325.200,274.477 315.571,270.054 313.194 C 261.045 308.355,254.576 304.034,250.174 299.916 L 247.600 297.508 247.601 291.854 C 247.603 285.601,247.663 285.409,250.771 281.600 C 256.022 275.167,263.129 262.572,266.983 252.869 C 269.680 246.080,271.466 242.640,274.155 239.055 C 281.954 228.656,283.603 214.938,278.533 202.637 C 276.251 197.102,276.036 194.573,276.015 173.084 C 275.990 147.881,273.661 137.679,264.937 124.560 C 254.151 108.339,237.266 99.041,213.400 96.182 C 175.985 91.698,145.465 105.688,132.208 133.400 C 126.574 145.177,126.105 148.569,125.212 184.024 L 124.824 199.448 123.385 202.605 C 117.959 214.512,119.466 227.819,127.521 239.126 C 131.120 244.177,132.050 245.955,134.595 252.649 C 138.222 262.190,144.446 273.234,150.341 280.587 C 153.863 284.980,154.000 285.383,154.000 291.324 C 154.000 298.675,152.584 300.595,142.400 307.059 C 126.860 316.921,82.893 337.213,79.117 336.265 C 77.247 335.796,63.465 320.141,57.477 311.683 C 40.307 287.436,28.631 256.616,26.003 228.600 C 23.065 197.283,27.841 166.267,39.893 138.400 C 58.906 94.436,98.679 58.231,143.600 43.997 C 166.883 36.619,184.826 34.107,206.400 35.204 M213.793 111.643 C 234.814 113.899,248.795 122.679,255.537 137.860 C 260.178 148.311,260.764 153.673,260.787 185.911 L 260.800 202.822 262.984 206.444 C 269.158 216.686,268.689 222.816,261.132 230.628 C 257.340 234.547,256.612 235.832,254.123 243.000 C 249.465 256.417,244.381 265.163,234.476 276.800 L 231.922 279.800 232.101 290.000 C 232.292 300.848,232.424 301.679,234.421 304.600 C 240.910 314.091,266.940 330.116,299.600 344.726 C 303.569 346.501,306.600 348.086,306.600 348.387 C 306.600 349.614,290.375 359.976,280.741 364.900 C 231.853 389.891,171.677 390.505,122.400 366.516 C 114.160 362.504,99.523 353.593,95.220 349.968 C 93.672 348.663,94.193 348.329,106.600 342.659 C 137.533 328.524,154.673 318.287,164.510 308.072 C 169.008 303.400,169.905 299.644,169.445 287.400 C 169.112 278.522,169.340 279.174,164.565 273.461 C 157.905 265.493,152.775 256.639,149.058 246.700 C 144.503 234.518,144.918 235.347,141.630 231.852 C 133.256 222.952,132.582 216.894,138.811 206.544 L 140.800 203.239 140.819 189.719 C 140.849 167.821,141.367 154.546,142.383 149.627 C 148.287 121.039,173.983 107.371,213.793 111.643 " stroke="none" fill="#060606" fill-rule="evenodd"></path><path id="path1" d="M0.000 209.600 L 0.000 419.200 200.000 419.200 L 400.000 419.200 400.000 209.600 L 400.000 0.000 200.000 0.000 L 0.000 0.000 0.000 209.600 M215.000 19.637 C 224.468 20.171,239.581 22.605,245.800 24.599 C 246.680 24.881,247.940 25.225,248.600 25.364 C 263.793 28.550,289.717 40.438,306.600 51.961 C 308.453 53.226,319.700 61.629,320.600 62.421 C 340.790 80.192,354.927 96.679,364.483 113.600 C 365.042 114.590,366.274 116.750,367.220 118.400 C 392.558 162.586,397.810 219.288,381.189 269.200 C 380.274 271.950,379.105 275.190,378.592 276.400 C 378.079 277.610,376.633 281.030,375.380 284.000 C 373.192 289.183,367.115 301.375,365.633 303.554 C 365.241 304.129,363.959 306.220,362.784 308.200 C 328.947 365.211,261.051 402.479,195.200 400.186 C 180.785 399.684,159.930 396.734,153.000 394.216 C 152.120 393.897,151.135 393.627,150.811 393.618 C 150.488 393.608,148.418 393.048,146.211 392.374 C 103.577 379.342,65.877 351.497,41.723 315.200 C 20.761 283.700,10.812 253.174,9.600 216.635 C 8.550 184.953,12.540 163.494,25.005 133.800 C 50.014 74.224,110.836 28.789,176.800 20.409 C 190.115 18.717,196.411 18.590,215.000 19.637 M189.200 35.636 C 183.379 35.938,172.608 37.256,168.400 38.182 C 166.970 38.497,164.180 39.052,162.200 39.416 C 143.641 42.825,118.115 53.847,100.263 66.160 C 98.318 67.502,96.338 68.865,95.863 69.189 C 73.973 84.133,50.107 114.279,39.649 140.200 C 38.939 141.960,38.195 143.760,37.995 144.200 C 33.808 153.439,28.392 174.298,26.726 187.600 C 26.023 193.212,26.023 225.706,26.726 231.400 C 29.321 252.417,36.427 274.178,47.365 294.600 C 54.454 307.837,74.215 333.492,79.001 335.673 C 80.993 336.581,93.371 331.459,117.603 319.701 C 139.360 309.144,151.257 301.634,153.060 297.318 C 153.410 296.481,153.600 294.361,153.600 291.298 C 153.600 285.705,153.457 285.350,148.728 279.240 C 147.039 277.056,145.372 274.759,145.023 274.135 C 144.675 273.511,143.651 271.830,142.747 270.400 C 140.328 266.570,136.772 259.311,134.419 253.400 C 131.569 246.239,130.423 244.027,127.158 239.383 C 119.071 227.881,117.535 215.614,122.618 203.136 L 124.355 198.872 124.788 181.336 C 125.536 151.090,126.077 146.378,129.830 137.400 C 142.764 106.466,171.931 91.772,212.807 95.597 C 223.841 96.630,237.420 100.726,245.010 105.311 C 261.080 115.019,270.232 127.747,274.723 146.632 C 276.349 153.467,276.418 154.524,276.759 177.800 L 277.052 197.800 278.488 201.213 C 284.292 215.006,282.905 228.468,274.551 239.418 C 271.676 243.188,270.816 244.808,267.977 251.800 C 263.515 262.789,257.483 273.682,251.740 281.123 C 248.163 285.756,248.000 286.236,248.000 292.139 L 248.000 297.103 250.705 299.652 C 257.207 305.779,272.922 314.841,293.400 324.272 C 315.152 334.290,319.821 336.072,321.475 334.988 C 324.901 332.743,338.021 317.500,343.844 309.000 C 369.849 271.039,379.944 223.268,371.569 177.800 C 355.516 90.654,278.968 30.982,189.200 35.636 M190.400 111.845 C 184.097 112.585,181.697 112.995,177.794 114.002 C 160.425 118.480,148.988 129.036,144.003 145.189 C 142.140 151.227,142.037 152.645,141.541 179.000 L 141.075 203.800 138.982 207.200 C 133.248 216.514,133.914 222.995,141.408 230.800 C 144.420 233.938,145.979 236.310,146.798 239.000 C 150.608 251.515,157.195 264.013,164.411 272.419 C 169.814 278.712,169.666 278.305,169.904 287.521 C 170.133 296.376,169.677 301.111,168.322 303.953 C 165.998 308.830,153.407 319.014,141.400 325.730 C 139.860 326.592,137.520 327.907,136.200 328.652 C 130.919 331.637,118.305 337.835,106.967 343.018 C 100.385 346.027,94.920 348.564,94.822 348.656 C 94.391 349.059,101.567 354.085,109.400 358.866 C 138.164 376.423,172.242 384.885,207.800 383.300 C 217.953 382.848,226.492 382.006,231.200 380.994 C 232.630 380.686,234.970 380.221,236.400 379.959 C 256.262 376.331,281.570 365.597,299.537 353.182 C 301.592 351.762,303.887 350.192,304.637 349.694 C 306.580 348.403,306.615 348.435,299.900 345.412 C 284.118 338.308,258.951 325.090,251.200 319.834 C 233.829 308.055,231.857 305.052,231.665 290.081 L 231.531 279.563 234.480 276.081 C 237.509 272.504,239.744 269.713,240.800 268.187 C 246.942 259.310,249.744 253.702,254.263 241.244 C 256.469 235.163,257.303 233.788,261.031 230.083 C 268.299 222.861,268.476 215.096,261.606 205.000 L 260.517 203.400 260.237 181.200 C 259.839 149.593,259.379 146.240,253.987 135.600 C 250.976 129.657,241.929 120.000,239.373 120.000 C 239.269 120.000,238.475 119.553,237.609 119.006 C 229.258 113.734,205.284 110.097,190.400 111.845 " stroke="none" fill="#f3f3f3" fill-rule="evenodd"></path><path id="path2" d="M192.500 19.096 C 193.765 19.175,195.835 19.175,197.100 19.096 C 198.365 19.016,197.330 18.951,194.800 18.951 C 192.270 18.951,191.235 19.016,192.500 19.096 M185.100 19.482 C 185.595 19.578,186.405 19.578,186.900 19.482 C 187.395 19.387,186.990 19.309,186.000 19.309 C 185.010 19.309,184.605 19.387,185.100 19.482 M204.500 19.496 C 205.765 19.575,207.835 19.575,209.100 19.496 C 210.365 19.416,209.330 19.351,206.800 19.351 C 204.270 19.351,203.235 19.416,204.500 19.496 M182.100 19.876 C 182.485 19.976,183.115 19.976,183.500 19.876 C 183.885 19.775,183.570 19.693,182.800 19.693 C 182.030 19.693,181.715 19.775,182.100 19.876 M215.107 19.890 C 215.826 19.979,216.906 19.977,217.507 19.886 C 218.108 19.795,217.520 19.722,216.200 19.724 C 214.880 19.726,214.388 19.801,215.107 19.890 M251.400 26.400 C 251.840 26.589,252.470 26.744,252.800 26.744 C 253.178 26.744,253.104 26.617,252.600 26.400 C 252.160 26.211,251.530 26.056,251.200 26.056 C 250.822 26.056,250.896 26.183,251.400 26.400 M188.900 35.494 C 189.945 35.576,191.655 35.576,192.700 35.494 C 193.745 35.412,192.890 35.344,190.800 35.344 C 188.710 35.344,187.855 35.412,188.900 35.494 M199.900 35.496 C 201.275 35.574,203.525 35.574,204.900 35.496 C 206.275 35.418,205.150 35.354,202.400 35.354 C 199.650 35.354,198.525 35.418,199.900 35.496 M183.905 35.883 C 184.402 35.979,185.122 35.975,185.505 35.875 C 185.887 35.775,185.480 35.696,184.600 35.701 C 183.720 35.705,183.407 35.787,183.905 35.883 M210.307 35.890 C 211.026 35.979,212.106 35.977,212.707 35.886 C 213.308 35.795,212.720 35.722,211.400 35.724 C 210.080 35.726,209.588 35.801,210.307 35.890 M180.100 36.276 C 180.485 36.376,181.115 36.376,181.500 36.276 C 181.885 36.175,181.570 36.093,180.800 36.093 C 180.030 36.093,179.715 36.175,180.100 36.276 M215.705 36.287 C 216.314 36.379,217.214 36.377,217.705 36.282 C 218.197 36.187,217.700 36.111,216.600 36.114 C 215.500 36.117,215.097 36.195,215.705 36.287 M220.305 36.683 C 220.802 36.779,221.522 36.775,221.905 36.675 C 222.287 36.575,221.880 36.496,221.000 36.501 C 220.120 36.505,219.807 36.587,220.305 36.683 M288.800 41.379 C 288.800 41.489,289.340 41.859,290.000 42.200 C 290.660 42.541,291.200 42.731,291.200 42.621 C 291.200 42.511,290.660 42.141,290.000 41.800 C 289.340 41.459,288.800 41.269,288.800 41.379 M297.200 46.150 C 297.200 46.244,297.841 46.699,298.624 47.161 C 299.407 47.623,299.936 47.820,299.799 47.598 C 299.531 47.164,297.200 45.866,297.200 46.150 M97.893 49.014 C 97.072 49.572,96.400 50.115,96.400 50.220 C 96.400 50.325,97.120 49.935,98.000 49.353 C 99.397 48.428,99.870 48.000,99.493 48.000 C 99.434 48.000,98.714 48.456,97.893 49.014 M124.800 51.800 C 124.250 52.114,123.980 52.372,124.200 52.372 C 124.420 52.372,125.050 52.114,125.600 51.800 C 126.150 51.486,126.420 51.228,126.200 51.228 C 125.980 51.228,125.350 51.486,124.800 51.800 M308.400 53.346 C 308.400 53.456,308.940 53.930,309.600 54.400 C 310.260 54.870,310.800 55.164,310.800 55.054 C 310.800 54.944,310.260 54.470,309.600 54.000 C 308.940 53.530,308.400 53.236,308.400 53.346 M318.367 60.945 C 318.900 61.601,320.400 62.593,320.400 62.289 C 320.400 62.213,319.815 61.722,319.100 61.199 C 318.296 60.610,318.016 60.513,318.367 60.945 M77.775 64.100 L 76.600 65.400 77.900 64.225 C 79.112 63.130,79.384 62.800,79.075 62.800 C 79.006 62.800,78.421 63.385,77.775 64.100 M321.000 63.073 C 322.558 64.643,325.254 66.815,324.200 65.652 C 323.540 64.923,322.460 63.954,321.800 63.499 C 321.140 63.043,320.780 62.852,321.000 63.073 M326.800 68.200 C 327.546 68.970,328.247 69.600,328.357 69.600 C 328.467 69.600,327.946 68.970,327.200 68.200 C 326.454 67.430,325.753 66.800,325.643 66.800 C 325.533 66.800,326.054 67.430,326.800 68.200 M71.385 69.700 L 69.400 71.800 71.500 69.815 C 73.451 67.971,73.783 67.600,73.485 67.600 C 73.422 67.600,72.477 68.545,71.385 69.700 M334.400 75.400 C 336.923 77.930,339.077 80.000,339.187 80.000 C 339.297 80.000,337.323 77.930,334.800 75.400 C 332.277 72.870,330.123 70.800,330.013 70.800 C 329.903 70.800,331.877 72.870,334.400 75.400 M65.387 75.300 L 63.000 77.800 65.500 75.413 C 67.822 73.195,68.183 72.800,67.887 72.800 C 67.826 72.800,66.701 73.925,65.387 75.300 M315.600 78.600 C 316.346 79.370,317.047 80.000,317.157 80.000 C 317.267 80.000,316.746 79.370,316.000 78.600 C 315.254 77.830,314.553 77.200,314.443 77.200 C 314.333 77.200,314.854 77.830,315.600 78.600 M82.000 80.200 C 81.028 81.190,80.323 82.000,80.433 82.000 C 80.543 82.000,81.428 81.190,82.400 80.200 C 83.372 79.210,84.077 78.400,83.967 78.400 C 83.857 78.400,82.972 79.210,82.000 80.200 M319.600 82.200 C 320.795 83.410,321.863 84.400,321.973 84.400 C 322.083 84.400,321.195 83.410,320.000 82.200 C 318.805 80.990,317.737 80.000,317.627 80.000 C 317.517 80.000,318.405 80.990,319.600 82.200 M58.778 82.300 L 57.400 83.800 58.900 82.422 C 60.296 81.138,60.584 80.800,60.278 80.800 C 60.212 80.800,59.537 81.475,58.778 82.300 M341.400 82.800 C 342.259 83.680,343.052 84.400,343.162 84.400 C 343.272 84.400,342.659 83.680,341.800 82.800 C 340.941 81.920,340.148 81.200,340.038 81.200 C 339.928 81.200,340.541 81.920,341.400 82.800 M75.792 86.100 L 72.200 89.800 75.900 86.208 C 77.935 84.233,79.600 82.568,79.600 82.508 C 79.600 82.218,79.128 82.664,75.792 86.100 M55.626 85.707 C 54.487 87.111,54.442 87.229,55.363 86.400 C 56.320 85.538,57.456 83.986,57.114 84.007 C 57.051 84.011,56.382 84.776,55.626 85.707 M344.400 86.200 C 345.146 86.970,345.847 87.600,345.957 87.600 C 346.067 87.600,345.546 86.970,344.800 86.200 C 344.054 85.430,343.353 84.800,343.243 84.800 C 343.133 84.800,343.654 85.430,344.400 86.200 M328.000 90.600 C 329.417 92.030,330.667 93.200,330.777 93.200 C 330.887 93.200,329.817 92.030,328.400 90.600 C 326.983 89.170,325.733 88.000,325.623 88.000 C 325.513 88.000,326.583 89.170,328.000 90.600 M69.578 92.700 L 68.200 94.200 69.700 92.822 C 71.096 91.538,71.384 91.200,71.078 91.200 C 71.012 91.200,70.337 91.875,69.578 92.700 M350.575 93.732 C 351.191 94.539,351.776 95.200,351.875 95.200 C 352.153 95.200,350.421 92.860,349.909 92.544 C 349.659 92.389,349.959 92.924,350.575 93.732 M332.000 95.000 C 332.746 95.770,333.447 96.400,333.557 96.400 C 333.667 96.400,333.146 95.770,332.400 95.000 C 331.654 94.230,330.953 93.600,330.843 93.600 C 330.733 93.600,331.254 94.230,332.000 95.000 M190.900 95.487 C 191.505 95.578,192.495 95.578,193.100 95.487 C 193.705 95.395,193.210 95.320,192.000 95.320 C 190.790 95.320,190.295 95.395,190.900 95.487 M207.900 95.482 C 208.395 95.578,209.205 95.578,209.700 95.482 C 210.195 95.387,209.790 95.309,208.800 95.309 C 207.810 95.309,207.405 95.387,207.900 95.482 M186.500 95.876 C 186.885 95.976,187.515 95.976,187.900 95.876 C 188.285 95.775,187.970 95.693,187.200 95.693 C 186.430 95.693,186.115 95.775,186.500 95.876 M213.300 95.876 C 213.685 95.976,214.315 95.976,214.700 95.876 C 215.085 95.775,214.770 95.693,214.000 95.693 C 213.230 95.693,212.915 95.775,213.300 95.876 M163.100 102.229 C 161.549 103.070,161.725 103.361,163.300 102.559 C 164.808 101.793,165.075 101.594,164.567 101.616 C 164.365 101.625,163.705 101.901,163.100 102.229 M240.833 103.351 C 241.242 103.721,244.400 105.195,244.400 105.016 C 244.400 104.789,241.381 103.200,240.949 103.200 C 240.794 103.200,240.742 103.268,240.833 103.351 M155.300 106.446 C 153.937 107.319,153.495 107.906,154.700 107.243 C 155.618 106.739,157.056 105.627,156.800 105.619 C 156.690 105.616,156.015 105.988,155.300 106.446 M39.353 107.300 C 37.976 109.636,37.886 109.835,38.587 109.000 C 39.400 108.032,40.100 106.800,39.838 106.800 C 39.733 106.800,39.515 107.025,39.353 107.300 M197.900 111.498 C 199.715 111.572,202.685 111.572,204.500 111.498 C 206.315 111.423,204.830 111.363,201.200 111.363 C 197.570 111.363,196.085 111.423,197.900 111.498 M253.600 111.325 C 253.600 111.394,254.185 111.979,254.900 112.625 L 256.200 113.800 255.025 112.500 C 253.930 111.288,253.600 111.016,253.600 111.325 M189.505 111.883 C 190.002 111.979,190.722 111.975,191.105 111.875 C 191.487 111.775,191.080 111.696,190.200 111.701 C 189.320 111.705,189.007 111.787,189.505 111.883 M210.500 111.876 C 210.885 111.976,211.515 111.976,211.900 111.876 C 212.285 111.775,211.970 111.693,211.200 111.693 C 210.430 111.693,210.115 111.775,210.500 111.876 M144.181 115.300 L 142.600 117.000 144.300 115.419 C 145.881 113.948,146.184 113.600,145.881 113.600 C 145.816 113.600,145.051 114.365,144.181 115.300 M50.953 117.700 C 49.576 120.036,49.486 120.235,50.187 119.400 C 51.000 118.432,51.700 117.200,51.438 117.200 C 51.333 117.200,51.115 117.425,50.953 117.700 M262.975 121.332 C 263.591 122.139,264.176 122.800,264.275 122.800 C 264.553 122.800,262.821 120.460,262.309 120.144 C 262.059 119.989,262.359 120.524,262.975 121.332 M154.989 126.100 L 152.200 129.000 155.100 126.211 C 156.695 124.677,158.000 123.372,158.000 123.311 C 158.000 123.017,157.580 123.406,154.989 126.100 M46.600 125.200 C 46.259 125.860,46.069 126.400,46.179 126.400 C 46.289 126.400,46.659 125.860,47.000 125.200 C 47.341 124.540,47.531 124.000,47.421 124.000 C 47.311 124.000,46.941 124.540,46.600 125.200 M353.000 125.200 C 353.341 125.860,353.711 126.400,353.821 126.400 C 353.931 126.400,353.741 125.860,353.400 125.200 C 353.059 124.540,352.689 124.000,352.579 124.000 C 352.469 124.000,352.659 124.540,353.000 125.200 M134.600 127.600 C 134.259 128.260,134.069 128.800,134.179 128.800 C 134.289 128.800,134.659 128.260,135.000 127.600 C 135.341 126.940,135.531 126.400,135.421 126.400 C 135.311 126.400,134.941 126.940,134.600 127.600 M372.828 129.800 C 372.828 130.020,373.086 130.650,373.400 131.200 C 373.714 131.750,373.972 132.020,373.972 131.800 C 373.972 131.580,373.714 130.950,373.400 130.400 C 373.086 129.850,372.828 129.580,372.828 129.800 M374.828 134.200 C 374.828 134.420,375.086 135.050,375.400 135.600 C 375.714 136.150,375.972 136.420,375.972 136.200 C 375.972 135.980,375.714 135.350,375.400 134.800 C 375.086 134.250,374.828 133.980,374.828 134.200 M40.865 136.617 C 40.195 138.088,40.323 138.402,41.047 137.065 C 41.386 136.440,41.588 135.854,41.496 135.763 C 41.405 135.671,41.121 136.056,40.865 136.617 M358.428 135.800 C 358.428 136.020,358.686 136.650,359.000 137.200 C 359.314 137.750,359.572 138.020,359.572 137.800 C 359.572 137.580,359.314 136.950,359.000 136.400 C 358.686 135.850,358.428 135.580,358.428 135.800 M377.628 141.000 C 377.628 141.220,377.886 141.850,378.200 142.400 C 378.514 142.950,378.772 143.220,378.772 143.000 C 378.772 142.780,378.514 142.150,378.200 141.600 C 377.886 141.050,377.628 140.780,377.628 141.000 M143.429 145.829 C 143.281 146.415,143.238 146.972,143.332 147.066 C 143.427 147.160,143.624 146.758,143.771 146.171 C 143.919 145.585,143.962 145.028,143.868 144.934 C 143.773 144.840,143.576 145.242,143.429 145.829 M275.693 152.400 C 275.693 153.170,275.775 153.485,275.876 153.100 C 275.976 152.715,275.976 152.085,275.876 151.700 C 275.775 151.315,275.693 151.630,275.693 152.400 M259.728 155.200 C 259.728 156.630,259.801 157.215,259.889 156.500 C 259.978 155.785,259.978 154.615,259.889 153.900 C 259.801 153.185,259.728 153.770,259.728 155.200 M125.693 155.600 C 125.693 156.370,125.775 156.685,125.876 156.300 C 125.976 155.915,125.976 155.285,125.876 154.900 C 125.775 154.515,125.693 154.830,125.693 155.600 M276.114 156.600 C 276.117 157.700,276.195 158.103,276.287 157.495 C 276.379 156.886,276.377 155.986,276.282 155.495 C 276.187 155.003,276.111 155.500,276.114 156.600 M141.728 158.000 C 141.728 159.430,141.801 160.015,141.889 159.300 C 141.978 158.585,141.978 157.415,141.889 156.700 C 141.801 155.985,141.728 156.570,141.728 158.000 M125.328 163.200 C 125.328 164.630,125.401 165.215,125.489 164.500 C 125.578 163.785,125.578 162.615,125.489 161.900 C 125.401 161.185,125.328 161.770,125.328 163.200 M260.154 165.600 C 260.154 168.350,260.218 169.475,260.296 168.100 C 260.374 166.725,260.374 164.475,260.296 163.100 C 260.218 161.725,260.154 162.850,260.154 165.600 M141.371 175.200 C 141.371 180.150,141.428 182.175,141.499 179.700 C 141.569 177.225,141.569 173.175,141.499 170.700 C 141.428 168.225,141.371 170.250,141.371 175.200 M276.578 179.400 C 276.579 186.440,276.633 189.264,276.699 185.675 C 276.766 182.086,276.766 176.326,276.699 172.875 C 276.633 169.424,276.578 172.360,276.578 179.400 M260.120 173.200 C 260.120 174.410,260.195 174.905,260.287 174.300 C 260.378 173.695,260.378 172.705,260.287 172.100 C 260.195 171.495,260.120 171.990,260.120 173.200 M124.953 178.200 C 124.953 180.840,125.018 181.868,125.097 180.484 C 125.175 179.101,125.174 176.941,125.095 175.684 C 125.016 174.428,124.952 175.560,124.953 178.200 M389.701 189.400 C 389.705 190.280,389.787 190.593,389.883 190.095 C 389.979 189.598,389.975 188.878,389.875 188.495 C 389.775 188.113,389.696 188.520,389.701 189.400 M10.093 190.000 C 10.093 190.770,10.175 191.085,10.276 190.700 C 10.376 190.315,10.376 189.685,10.276 189.300 C 10.175 188.915,10.093 189.230,10.093 190.000 M124.485 194.467 C 124.438 196.814,124.296 199.064,124.170 199.467 C 123.958 200.142,123.975 200.146,124.383 199.511 C 124.661 199.080,124.779 197.207,124.699 194.511 L 124.570 190.200 124.485 194.467 M26.120 192.800 C 26.120 194.010,26.195 194.505,26.287 193.900 C 26.378 193.295,26.378 192.305,26.287 191.700 C 26.195 191.095,26.120 191.590,26.120 192.800 M373.701 193.400 C 373.705 194.280,373.787 194.593,373.883 194.095 C 373.979 193.598,373.975 192.878,373.875 192.495 C 373.775 192.113,373.696 192.520,373.701 193.400 M140.799 198.281 C 140.689 201.626,140.740 204.222,140.911 204.050 C 141.083 203.878,141.172 201.141,141.110 197.969 L 140.997 192.200 140.799 198.281 M390.114 194.200 C 390.117 195.300,390.195 195.703,390.287 195.095 C 390.379 194.486,390.377 193.586,390.282 193.095 C 390.187 192.603,390.111 193.100,390.114 194.200 M9.720 195.200 C 9.720 196.410,9.795 196.905,9.887 196.300 C 9.978 195.695,9.978 194.705,9.887 194.100 C 9.795 193.495,9.720 193.990,9.720 195.200 M374.114 198.600 C 374.117 199.700,374.195 200.103,374.287 199.495 C 374.379 198.886,374.377 197.986,374.282 197.495 C 374.187 197.003,374.111 197.500,374.114 198.600 M25.772 209.600 C 25.772 214.770,25.829 216.885,25.899 214.300 C 25.968 211.715,25.968 207.485,25.899 204.900 C 25.829 202.315,25.772 204.430,25.772 209.600 M123.265 201.417 C 122.595 202.888,122.723 203.202,123.447 201.865 C 123.786 201.240,123.988 200.654,123.896 200.563 C 123.805 200.471,123.521 200.856,123.265 201.417 M9.348 205.600 C 9.348 207.910,9.414 208.855,9.495 207.700 C 9.576 206.545,9.576 204.655,9.495 203.500 C 9.414 202.345,9.348 203.290,9.348 205.600 M390.567 209.600 C 390.567 213.890,390.626 215.645,390.698 213.500 C 390.770 211.355,390.770 207.845,390.698 205.700 C 390.626 203.555,390.567 205.310,390.567 209.600 M374.557 209.200 C 374.557 212.170,374.620 213.385,374.697 211.900 C 374.774 210.415,374.774 207.985,374.697 206.500 C 374.620 205.015,374.557 206.230,374.557 209.200 M281.751 216.800 C 281.751 219.330,281.816 220.365,281.896 219.100 C 281.975 217.835,281.975 215.765,281.896 214.500 C 281.816 213.235,281.751 214.270,281.751 216.800 M119.731 217.800 C 119.733 219.340,119.805 219.921,119.892 219.091 C 119.979 218.261,119.977 217.001,119.889 216.291 C 119.800 215.581,119.729 216.260,119.731 217.800 M374.131 220.200 C 374.133 221.740,374.205 222.321,374.292 221.491 C 374.379 220.661,374.377 219.401,374.289 218.691 C 374.200 217.981,374.129 218.660,374.131 220.200 M9.714 221.400 C 9.717 222.500,9.795 222.903,9.887 222.295 C 9.979 221.686,9.977 220.786,9.882 220.295 C 9.787 219.803,9.711 220.300,9.714 221.400 M390.134 223.200 C 390.134 224.850,390.205 225.525,390.291 224.700 C 390.378 223.875,390.378 222.525,390.291 221.700 C 390.205 220.875,390.134 221.550,390.134 223.200 M26.124 225.000 C 26.126 226.320,26.201 226.812,26.290 226.093 C 26.379 225.374,26.377 224.294,26.286 223.693 C 26.195 223.092,26.122 223.680,26.124 225.000 M373.709 226.000 C 373.709 226.990,373.787 227.395,373.882 226.900 C 373.978 226.405,373.978 225.595,373.882 225.100 C 373.787 224.605,373.709 225.010,373.709 226.000 M10.114 228.600 C 10.117 229.700,10.195 230.103,10.287 229.495 C 10.379 228.886,10.377 227.986,10.282 227.495 C 10.187 227.003,10.111 227.500,10.114 228.600 M389.701 229.000 C 389.705 229.880,389.787 230.193,389.883 229.695 C 389.979 229.198,389.975 228.478,389.875 228.095 C 389.775 227.713,389.696 228.120,389.701 229.000 M141.600 231.400 C 143.017 232.830,144.267 234.000,144.377 234.000 C 144.487 234.000,143.417 232.830,142.000 231.400 C 140.583 229.970,139.333 228.800,139.223 228.800 C 139.113 228.800,140.183 229.970,141.600 231.400 M278.278 233.005 C 277.912 233.772,277.695 234.400,277.796 234.400 C 278.070 234.400,279.284 231.951,279.101 231.768 C 279.014 231.681,278.644 232.238,278.278 233.005 M10.493 233.200 C 10.493 233.970,10.575 234.285,10.676 233.900 C 10.776 233.515,10.776 232.885,10.676 232.500 C 10.575 232.115,10.493 232.430,10.493 233.200 M145.478 236.595 C 145.844 237.362,146.214 237.919,146.301 237.832 C 146.484 237.649,145.270 235.200,144.996 235.200 C 144.895 235.200,145.112 235.828,145.478 236.595 M275.623 237.500 C 274.891 238.545,274.631 239.097,275.046 238.727 C 275.771 238.080,277.399 235.600,277.100 235.600 C 277.020 235.600,276.355 236.455,275.623 237.500 M273.544 240.300 C 272.393 241.689,271.906 242.400,272.104 242.400 C 272.214 242.400,272.786 241.770,273.373 241.000 C 274.463 239.571,274.595 239.032,273.544 240.300 M371.422 241.822 C 371.272 242.625,371.228 243.362,371.326 243.460 C 371.424 243.557,371.627 242.981,371.778 242.178 C 371.928 241.375,371.972 240.638,371.874 240.540 C 371.776 240.443,371.573 241.019,371.422 241.822 M130.400 244.149 C 130.400 244.581,131.989 247.600,132.216 247.600 C 132.326 247.600,132.030 246.835,131.559 245.900 C 130.632 244.061,130.400 243.711,130.400 244.149 M30.456 252.400 C 30.456 252.730,30.611 253.360,30.800 253.800 C 31.017 254.304,31.144 254.378,31.144 254.000 C 31.144 253.670,30.989 253.040,30.800 252.600 C 30.583 252.096,30.456 252.022,30.456 252.400 M136.028 257.400 C 136.028 257.620,136.286 258.250,136.600 258.800 C 136.914 259.350,137.172 259.620,137.172 259.400 C 137.172 259.180,136.914 258.550,136.600 258.000 C 136.286 257.450,136.028 257.180,136.028 257.400 M155.787 260.600 C 156.403 261.700,157.092 262.780,157.319 263.000 C 157.546 263.220,157.228 262.500,156.613 261.400 C 155.997 260.300,155.308 259.220,155.081 259.000 C 154.854 258.780,155.172 259.500,155.787 260.600 M16.056 260.400 C 16.056 260.730,16.211 261.360,16.400 261.800 C 16.617 262.304,16.744 262.378,16.744 262.000 C 16.744 261.670,16.589 261.040,16.400 260.600 C 16.183 260.096,16.056 260.022,16.056 260.400 M244.553 262.500 C 243.176 264.836,243.086 265.035,243.787 264.200 C 244.600 263.232,245.300 262.000,245.038 262.000 C 244.933 262.000,244.715 262.225,244.553 262.500 M157.949 264.200 C 158.165 264.640,158.634 265.360,158.993 265.800 L 159.644 266.600 159.251 265.800 C 159.035 265.360,158.566 264.640,158.207 264.200 L 157.556 263.400 157.949 264.200 M141.000 267.600 C 141.341 268.260,141.711 268.800,141.821 268.800 C 141.931 268.800,141.741 268.260,141.400 267.600 C 141.059 266.940,140.689 266.400,140.579 266.400 C 140.469 266.400,140.659 266.940,141.000 267.600 M241.523 267.100 C 240.818 267.921,240.290 268.800,240.501 268.800 C 240.583 268.800,241.049 268.260,241.537 267.600 C 242.501 266.296,242.492 265.972,241.523 267.100 M260.200 267.600 C 259.859 268.260,259.669 268.800,259.779 268.800 C 259.889 268.800,260.259 268.260,260.600 267.600 C 260.941 266.940,261.131 266.400,261.021 266.400 C 260.911 266.400,260.541 266.940,260.200 267.600 M165.797 274.500 C 166.872 275.765,167.823 276.800,167.910 276.800 C 168.183 276.800,165.729 273.836,164.764 273.000 C 164.256 272.560,164.721 273.235,165.797 274.500 M145.564 275.133 C 145.780 275.536,146.271 276.121,146.655 276.433 C 147.087 276.784,146.990 276.504,146.401 275.700 C 145.351 274.265,144.957 273.998,145.564 275.133 M234.175 276.500 L 233.000 277.800 234.300 276.625 C 235.015 275.979,235.600 275.394,235.600 275.325 C 235.600 275.016,235.270 275.288,234.175 276.500 M21.228 276.200 C 21.228 276.420,21.486 277.050,21.800 277.600 C 22.114 278.150,22.372 278.420,22.372 278.200 C 22.372 277.980,22.114 277.350,21.800 276.800 C 21.486 276.250,21.228 275.980,21.228 276.200 M232.255 278.740 C 231.661 279.396,231.598 280.574,231.700 289.240 L 231.815 299.000 231.907 289.231 C 231.987 280.788,232.090 279.364,232.662 278.731 C 233.026 278.329,233.234 278.000,233.124 278.000 C 233.014 278.000,232.623 278.333,232.255 278.740 M23.234 281.000 C 23.234 281.220,23.578 282.030,24.000 282.800 C 24.422 283.570,24.766 284.020,24.766 283.800 C 24.766 283.580,24.422 282.770,24.000 282.000 C 23.578 281.230,23.234 280.780,23.234 281.000 M40.428 281.000 C 40.428 281.220,40.686 281.850,41.000 282.400 C 41.314 282.950,41.572 283.220,41.572 283.000 C 41.572 282.780,41.314 282.150,41.000 281.600 C 40.686 281.050,40.428 280.780,40.428 281.000 M169.766 290.400 C 169.766 294.470,169.825 296.135,169.898 294.100 C 169.971 292.065,169.971 288.735,169.898 286.700 C 169.825 284.665,169.766 286.330,169.766 290.400 M248.388 285.222 C 248.146 285.674,248.007 286.222,248.080 286.439 C 248.152 286.657,248.418 286.287,248.671 285.617 C 249.197 284.225,249.039 284.005,248.388 285.222 M42.438 285.400 C 42.438 285.620,42.961 286.790,43.600 288.000 C 44.239 289.210,44.762 290.020,44.762 289.800 C 44.762 289.580,44.239 288.410,43.600 287.200 C 42.961 285.990,42.438 285.180,42.438 285.400 M26.028 287.000 C 26.028 287.220,26.286 287.850,26.600 288.400 C 26.914 288.950,27.172 289.220,27.172 289.000 C 27.172 288.780,26.914 288.150,26.600 287.600 C 26.286 287.050,26.028 286.780,26.028 287.000 M247.686 292.013 L 247.600 297.025 250.100 299.413 L 252.600 301.800 250.313 299.400 L 248.025 297.000 247.899 292.000 L 247.773 287.000 247.686 292.013 M153.742 291.400 C 153.741 293.380,153.808 294.240,153.892 293.312 C 153.976 292.384,153.977 290.764,153.895 289.712 C 153.812 288.660,153.743 289.420,153.742 291.400 M372.678 289.405 C 372.312 290.172,372.095 290.800,372.196 290.800 C 372.470 290.800,373.684 288.351,373.501 288.168 C 373.414 288.081,373.044 288.638,372.678 289.405 M370.682 293.411 C 370.092 294.615,369.694 295.600,369.798 295.600 C 370.067 295.600,372.084 291.551,371.905 291.371 C 371.823 291.289,371.273 292.207,370.682 293.411 M150.981 300.100 L 149.400 301.800 151.100 300.219 C 152.681 298.748,152.984 298.400,152.681 298.400 C 152.616 298.400,151.851 299.165,150.981 300.100 M366.039 302.224 C 365.577 303.007,365.380 303.536,365.602 303.399 C 366.036 303.131,367.334 300.800,367.050 300.800 C 366.956 300.800,366.501 301.441,366.039 302.224 M52.749 304.200 C 52.965 304.640,53.434 305.360,53.793 305.800 L 54.444 306.600 54.051 305.800 C 53.835 305.360,53.366 304.640,53.007 304.200 L 52.356 303.400 52.749 304.200 M35.949 306.200 C 36.165 306.640,36.634 307.360,36.993 307.800 L 37.644 308.600 37.251 307.800 C 37.035 307.360,36.566 306.640,36.207 306.200 L 35.556 305.400 35.949 306.200 M163.789 309.300 L 161.000 312.200 163.900 309.411 C 166.594 306.820,166.983 306.400,166.689 306.400 C 166.628 306.400,165.323 307.705,163.789 309.300 M237.800 309.200 C 239.328 310.740,240.669 312.000,240.779 312.000 C 240.889 312.000,239.728 310.740,238.200 309.200 C 236.672 307.660,235.331 306.400,235.221 306.400 C 235.111 306.400,236.272 307.660,237.800 309.200 M260.600 307.407 C 261.040 307.766,261.760 308.235,262.200 308.451 L 263.000 308.844 262.200 308.193 C 261.760 307.834,261.040 307.365,260.600 307.149 L 259.800 306.756 260.600 307.407 M131.500 312.629 C 130.005 313.440,130.096 313.778,131.600 313.000 C 132.260 312.659,132.800 312.294,132.800 312.190 C 132.800 311.932,132.757 311.947,131.500 312.629 M158.200 314.263 C 156.488 315.831,156.436 315.918,157.838 314.863 C 159.319 313.749,160.727 312.376,160.349 312.415 C 160.267 312.424,159.300 313.255,158.200 314.263 M269.600 312.579 C 269.600 312.689,270.140 313.059,270.800 313.400 C 271.460 313.741,272.000 313.931,272.000 313.821 C 272.000 313.711,271.460 313.341,270.800 313.000 C 270.140 312.659,269.600 312.469,269.600 312.579 M272.433 314.149 C 272.845 314.517,275.200 315.600,275.200 315.421 C 275.200 315.190,272.982 314.000,272.553 314.000 C 272.396 314.000,272.342 314.067,272.433 314.149 M44.400 319.200 C 44.870 319.860,45.344 320.400,45.454 320.400 C 45.564 320.400,45.270 319.860,44.800 319.200 C 44.330 318.540,43.856 318.000,43.746 318.000 C 43.636 318.000,43.930 318.540,44.400 319.200 M46.400 322.000 C 46.870 322.660,47.344 323.200,47.454 323.200 C 47.564 323.200,47.270 322.660,46.800 322.000 C 46.330 321.340,45.856 320.800,45.746 320.800 C 45.636 320.800,45.930 321.340,46.400 322.000 M111.200 322.800 C 110.430 323.222,109.980 323.566,110.200 323.566 C 110.420 323.566,111.230 323.222,112.000 322.800 C 112.770 322.378,113.220 322.034,113.000 322.034 C 112.780 322.034,111.970 322.378,111.200 322.800 M68.000 324.600 C 68.746 325.370,69.447 326.000,69.557 326.000 C 69.667 326.000,69.146 325.370,68.400 324.600 C 67.654 323.830,66.953 323.200,66.843 323.200 C 66.733 323.200,67.254 323.830,68.000 324.600 M48.791 325.188 C 49.257 325.841,49.842 326.502,50.091 326.656 C 50.341 326.811,50.041 326.276,49.425 325.468 C 48.088 323.715,47.584 323.492,48.791 325.188 M105.500 325.429 C 103.949 326.270,104.125 326.561,105.700 325.759 C 107.208 324.993,107.475 324.794,106.967 324.816 C 106.765 324.825,106.105 325.101,105.500 325.429 M294.433 324.949 C 294.845 325.317,297.200 326.400,297.200 326.221 C 297.200 325.990,294.982 324.800,294.553 324.800 C 294.396 324.800,294.342 324.867,294.433 324.949 M299.600 327.400 C 300.150 327.714,300.780 327.972,301.000 327.972 C 301.220 327.972,300.950 327.714,300.400 327.400 C 299.850 327.086,299.220 326.828,299.000 326.828 C 298.780 326.828,299.050 327.086,299.600 327.400 M71.822 328.825 C 72.690 329.829,73.481 330.588,73.580 330.512 C 73.680 330.435,72.970 329.614,72.003 328.686 L 70.244 327.000 71.822 328.825 M326.786 329.900 L 324.600 332.200 326.900 330.014 C 329.037 327.982,329.383 327.600,329.086 327.600 C 329.024 327.600,327.989 328.635,326.786 329.900 M265.600 328.179 C 265.600 328.289,266.140 328.659,266.800 329.000 C 267.460 329.341,268.000 329.531,268.000 329.421 C 268.000 329.311,267.460 328.941,266.800 328.600 C 266.140 328.259,265.600 328.069,265.600 328.179 M96.000 329.800 C 95.450 330.114,95.180 330.372,95.400 330.372 C 95.620 330.372,96.250 330.114,96.800 329.800 C 97.350 329.486,97.620 329.228,97.400 329.228 C 97.180 329.228,96.550 329.486,96.000 329.800 M76.285 333.597 C 77.652 335.008,78.828 336.081,78.898 335.981 C 78.967 335.882,77.849 334.727,76.412 333.415 L 73.800 331.031 76.285 333.597 M54.000 331.725 C 54.000 331.794,54.585 332.379,55.300 333.025 L 56.600 334.200 55.425 332.900 C 54.330 331.688,54.000 331.416,54.000 331.725 M342.581 334.900 L 341.000 336.600 342.700 335.019 C 344.281 333.548,344.584 333.200,344.281 333.200 C 344.216 333.200,343.451 333.965,342.581 334.900 M58.000 336.200 C 58.746 336.970,59.447 337.600,59.557 337.600 C 59.667 337.600,59.146 336.970,58.400 336.200 C 57.654 335.430,56.953 334.800,56.843 334.800 C 56.733 334.800,57.254 335.430,58.000 336.200 M118.000 337.600 C 116.790 338.239,115.980 338.762,116.200 338.762 C 116.420 338.762,117.590 338.239,118.800 337.600 C 120.010 336.961,120.820 336.438,120.600 336.438 C 120.380 336.438,119.210 336.961,118.000 337.600 M337.588 340.300 L 335.000 343.000 337.700 340.412 C 339.185 338.988,340.400 337.773,340.400 337.712 C 340.400 337.417,339.993 337.792,337.588 340.300 M64.800 343.400 C 67.323 345.930,69.477 348.000,69.587 348.000 C 69.697 348.000,67.723 345.930,65.200 343.400 C 62.677 340.870,60.523 338.800,60.413 338.800 C 60.303 338.800,62.277 340.870,64.800 343.400 M112.400 340.200 C 111.850 340.514,111.580 340.772,111.800 340.772 C 112.020 340.772,112.650 340.514,113.200 340.200 C 113.750 339.886,114.020 339.628,113.800 339.628 C 113.580 339.628,112.950 339.886,112.400 340.200 M292.800 342.200 C 293.350 342.514,293.980 342.772,294.200 342.772 C 294.420 342.772,294.150 342.514,293.600 342.200 C 293.050 341.886,292.420 341.628,292.200 341.628 C 291.980 341.628,292.250 341.886,292.800 342.200 M102.800 344.600 C 102.250 344.914,101.980 345.172,102.200 345.172 C 102.420 345.172,103.050 344.914,103.600 344.600 C 104.150 344.286,104.420 344.028,104.200 344.028 C 103.980 344.028,103.350 344.286,102.800 344.600 M328.391 349.500 L 325.000 353.000 328.500 349.609 C 331.751 346.459,332.182 346.000,331.891 346.000 C 331.831 346.000,330.256 347.575,328.391 349.500 M97.600 347.000 C 97.050 347.314,96.780 347.572,97.000 347.572 C 97.220 347.572,97.850 347.314,98.400 347.000 C 98.950 346.686,99.220 346.428,99.000 346.428 C 98.780 346.428,98.150 346.686,97.600 347.000 M305.117 347.696 C 305.714 347.983,305.949 348.357,305.793 348.768 C 305.594 349.290,305.644 349.309,306.076 348.873 C 306.623 348.323,305.601 347.165,304.624 347.227 C 304.391 347.242,304.612 347.453,305.117 347.696 M71.600 349.725 C 71.600 349.794,72.185 350.379,72.900 351.025 L 74.200 352.200 73.025 350.900 C 71.930 349.688,71.600 349.416,71.600 349.725 M75.200 352.925 C 75.200 352.994,75.785 353.579,76.500 354.225 L 77.800 355.400 76.625 354.100 C 75.530 352.888,75.200 352.616,75.200 352.925 M106.600 357.407 C 107.040 357.766,107.760 358.235,108.200 358.451 L 109.000 358.844 108.200 358.193 C 107.760 357.834,107.040 357.365,106.600 357.149 L 105.800 356.756 106.600 357.407 M283.900 362.629 C 282.405 363.440,282.496 363.778,284.000 363.000 C 284.660 362.659,285.200 362.294,285.200 362.190 C 285.200 361.932,285.157 361.947,283.900 362.629 M120.000 364.979 C 120.000 365.089,120.540 365.459,121.200 365.800 C 121.860 366.141,122.400 366.331,122.400 366.221 C 122.400 366.111,121.860 365.741,121.200 365.400 C 120.540 365.059,120.000 364.869,120.000 364.979 M93.069 366.832 C 93.566 367.433,96.000 368.964,96.000 368.676 C 96.000 368.583,95.235 368.002,94.300 367.385 C 93.365 366.768,92.811 366.520,93.069 366.832 M124.833 367.349 C 125.245 367.717,127.600 368.800,127.600 368.621 C 127.600 368.390,125.382 367.200,124.953 367.200 C 124.796 367.200,124.742 367.267,124.833 367.349 M302.081 369.772 C 300.223 371.085,299.962 371.461,301.531 370.562 C 302.263 370.143,303.050 369.575,303.280 369.300 C 303.871 368.593,303.593 368.702,302.081 369.772 M289.900 377.029 C 288.405 377.840,288.496 378.178,290.000 377.400 C 290.660 377.059,291.200 376.694,291.200 376.590 C 291.200 376.332,291.157 376.347,289.900 377.029 M232.200 380.819 C 231.642 381.071,231.885 381.107,233.000 380.938 C 233.880 380.804,234.675 380.628,234.767 380.547 C 235.110 380.244,232.968 380.471,232.200 380.819 M279.200 382.400 C 278.430 382.822,277.980 383.166,278.200 383.166 C 278.420 383.166,279.230 382.822,280.000 382.400 C 280.770 381.978,281.220 381.634,281.000 381.634 C 280.780 381.634,279.970 381.978,279.200 382.400 M179.505 382.683 C 180.002 382.779,180.722 382.775,181.105 382.675 C 181.487 382.575,181.080 382.496,180.200 382.501 C 179.320 382.505,179.007 382.587,179.505 382.683 M219.700 382.676 C 220.085 382.776,220.715 382.776,221.100 382.676 C 221.485 382.575,221.170 382.493,220.400 382.493 C 219.630 382.493,219.315 382.575,219.700 382.676 M183.300 383.087 C 183.905 383.178,184.895 383.178,185.500 383.087 C 186.105 382.995,185.610 382.920,184.400 382.920 C 183.190 382.920,182.695 382.995,183.300 383.087 M216.305 383.083 C 216.802 383.179,217.522 383.175,217.905 383.075 C 218.287 382.975,217.880 382.896,217.000 382.901 C 216.120 382.905,215.807 382.987,216.305 383.083 M188.707 383.490 C 189.426 383.579,190.506 383.577,191.107 383.486 C 191.708 383.395,191.120 383.322,189.800 383.324 C 188.480 383.326,187.988 383.401,188.707 383.490 M208.112 383.495 C 209.164 383.577,210.784 383.576,211.712 383.492 C 212.640 383.408,211.780 383.341,209.800 383.342 C 207.820 383.343,207.060 383.412,208.112 383.495 M198.313 383.895 C 199.476 383.976,201.276 383.976,202.313 383.893 C 203.351 383.811,202.400 383.745,200.200 383.746 C 198.000 383.747,197.151 383.814,198.313 383.895 M252.000 392.600 C 251.230 392.897,250.870 393.139,251.200 393.139 C 251.530 393.139,252.430 392.897,253.200 392.600 C 253.970 392.303,254.330 392.061,254.000 392.061 C 253.670 392.061,252.770 392.303,252.000 392.600 M183.100 399.482 C 183.595 399.578,184.405 399.578,184.900 399.482 C 185.395 399.387,184.990 399.309,184.000 399.309 C 183.010 399.309,182.605 399.387,183.100 399.482 M215.100 399.482 C 215.595 399.578,216.405 399.578,216.900 399.482 C 217.395 399.387,216.990 399.309,216.000 399.309 C 215.010 399.309,214.605 399.387,215.100 399.482 M187.700 399.891 C 188.525 399.978,189.875 399.978,190.700 399.891 C 191.525 399.805,190.850 399.734,189.200 399.734 C 187.550 399.734,186.875 399.805,187.700 399.891 M208.691 399.889 C 209.401 399.977,210.661 399.979,211.491 399.892 C 212.321 399.805,211.740 399.733,210.200 399.731 C 208.660 399.729,207.981 399.800,208.691 399.889 M198.500 400.296 C 199.765 400.375,201.835 400.375,203.100 400.296 C 204.365 400.216,203.330 400.151,200.800 400.151 C 198.270 400.151,197.235 400.216,198.500 400.296 " stroke="none" fill="#939393" fill-rule="evenodd"></path><path id="path3" d="M328.400 69.725 C 328.400 69.794,328.985 70.379,329.700 71.025 L 331.000 72.200 329.825 70.900 C 328.730 69.688,328.400 69.416,328.400 69.725 M337.600 78.925 C 337.600 78.994,338.185 79.579,338.900 80.225 L 340.200 81.400 339.025 80.100 C 337.930 78.888,337.600 78.616,337.600 78.925 M324.400 86.600 C 325.817 88.030,327.067 89.200,327.177 89.200 C 327.287 89.200,326.217 88.030,324.800 86.600 C 323.383 85.170,322.133 84.000,322.023 84.000 C 321.913 84.000,322.983 85.170,324.400 86.600 M257.583 115.300 C 259.241 117.066,259.600 117.384,259.600 117.083 C 259.600 117.019,258.745 116.164,257.700 115.183 L 255.800 113.400 257.583 115.300 M276.101 159.800 C 276.105 160.680,276.187 160.993,276.283 160.495 C 276.379 159.998,276.375 159.278,276.275 158.895 C 276.175 158.513,276.096 158.920,276.101 159.800 M141.314 164.600 C 141.317 165.700,141.395 166.103,141.487 165.495 C 141.579 164.886,141.577 163.986,141.482 163.495 C 141.387 163.003,141.311 163.500,141.314 164.600 M124.893 184.000 C 124.893 184.770,124.975 185.085,125.076 184.700 C 125.176 184.315,125.176 183.685,125.076 183.300 C 124.975 182.915,124.893 183.230,124.893 184.000 M140.928 190.000 C 140.928 191.430,141.001 192.015,141.089 191.300 C 141.178 190.585,141.178 189.415,141.089 188.700 C 141.001 187.985,140.928 188.570,140.928 190.000 M25.693 198.000 C 25.693 198.770,25.775 199.085,25.876 198.700 C 25.976 198.315,25.976 197.685,25.876 197.300 C 25.775 196.915,25.693 197.230,25.693 198.000 M374.493 215.600 C 374.493 216.370,374.575 216.685,374.676 216.300 C 374.776 215.915,374.776 215.285,374.676 214.900 C 374.575 214.515,374.493 214.830,374.493 215.600 M266.893 218.400 C 266.893 219.170,266.975 219.485,267.076 219.100 C 267.176 218.715,267.176 218.085,267.076 217.700 C 266.975 217.315,266.893 217.630,266.893 218.400 M25.701 220.200 C 25.705 221.080,25.787 221.393,25.883 220.895 C 25.979 220.398,25.975 219.678,25.875 219.295 C 25.775 218.913,25.696 219.320,25.701 220.200 M261.375 230.100 L 260.200 231.400 261.500 230.225 C 262.712 229.130,262.984 228.800,262.675 228.800 C 262.606 228.800,262.021 229.385,261.375 230.100 M333.381 344.500 L 331.800 346.200 333.500 344.619 C 334.435 343.749,335.200 342.984,335.200 342.919 C 335.200 342.616,334.852 342.919,333.381 344.500 " stroke="none" fill="#747474" fill-rule="evenodd"></path><path id="path4" d="M191.718 19.498 C 193.433 19.573,196.133 19.572,197.718 19.497 C 199.303 19.421,197.900 19.359,194.600 19.360 C 191.300 19.361,190.003 19.422,191.718 19.498 M210.105 19.887 C 210.714 19.979,211.614 19.977,212.105 19.882 C 212.597 19.787,212.100 19.711,211.000 19.714 C 209.900 19.717,209.497 19.795,210.105 19.887 M218.305 20.283 C 218.802 20.379,219.522 20.375,219.905 20.275 C 220.287 20.175,219.880 20.096,219.000 20.101 C 218.120 20.105,217.807 20.187,218.305 20.283 M222.500 20.676 C 222.885 20.776,223.515 20.776,223.900 20.676 C 224.285 20.575,223.970 20.493,223.200 20.493 C 222.430 20.493,222.115 20.575,222.500 20.676 M193.100 35.097 C 194.695 35.173,197.305 35.173,198.900 35.097 C 200.495 35.021,199.190 34.959,196.000 34.959 C 192.810 34.959,191.505 35.021,193.100 35.097 M208.500 35.476 C 208.885 35.576,209.515 35.576,209.900 35.476 C 210.285 35.375,209.970 35.293,209.200 35.293 C 208.430 35.293,208.115 35.375,208.500 35.476 M116.700 38.629 C 115.205 39.440,115.296 39.778,116.800 39.000 C 117.460 38.659,118.000 38.294,118.000 38.190 C 118.000 37.932,117.957 37.947,116.700 38.629 M282.000 38.196 C 282.000 38.470,284.449 39.684,284.632 39.501 C 284.719 39.414,284.162 39.044,283.395 38.678 C 282.628 38.312,282.000 38.095,282.000 38.196 M326.800 68.600 C 327.546 69.370,328.247 70.000,328.357 70.000 C 328.467 70.000,327.946 69.370,327.200 68.600 C 326.454 67.830,325.753 67.200,325.643 67.200 C 325.533 67.200,326.054 67.830,326.800 68.600 M71.600 69.800 C 70.628 70.790,69.923 71.600,70.033 71.600 C 70.143 71.600,71.028 70.790,72.000 69.800 C 72.972 68.810,73.677 68.000,73.567 68.000 C 73.457 68.000,72.572 68.810,71.600 69.800 M334.000 75.400 C 335.860 77.270,337.472 78.800,337.582 78.800 C 337.692 78.800,336.260 77.270,334.400 75.400 C 332.540 73.530,330.928 72.000,330.818 72.000 C 330.708 72.000,332.140 73.530,334.000 75.400 M65.200 75.800 C 63.561 77.450,62.310 78.800,62.420 78.800 C 62.530 78.800,63.961 77.450,65.600 75.800 C 67.239 74.150,68.490 72.800,68.380 72.800 C 68.270 72.800,66.839 74.150,65.200 75.800 M81.978 79.900 L 80.600 81.400 82.100 80.022 C 83.496 78.738,83.784 78.400,83.478 78.400 C 83.412 78.400,82.737 79.075,81.978 79.900 M319.983 82.100 C 320.964 83.145,321.819 84.000,321.883 84.000 C 322.184 84.000,321.866 83.641,320.100 81.983 L 318.200 80.200 319.983 82.100 M58.778 82.700 L 57.400 84.200 58.900 82.822 C 60.296 81.538,60.584 81.200,60.278 81.200 C 60.212 81.200,59.537 81.875,58.778 82.700 M340.000 81.725 C 340.000 81.794,340.585 82.379,341.300 83.025 L 342.600 84.200 341.425 82.900 C 340.330 81.688,340.000 81.416,340.000 81.725 M75.389 86.100 L 72.600 89.000 75.500 86.211 C 78.194 83.620,78.583 83.200,78.289 83.200 C 78.228 83.200,76.923 84.505,75.389 86.100 M328.600 90.800 C 329.459 91.680,330.252 92.400,330.362 92.400 C 330.472 92.400,329.859 91.680,329.000 90.800 C 328.141 89.920,327.348 89.200,327.238 89.200 C 327.128 89.200,327.741 89.920,328.600 90.800 M69.178 92.700 L 67.800 94.200 69.300 92.822 C 70.696 91.538,70.984 91.200,70.678 91.200 C 70.612 91.200,69.937 91.875,69.178 92.700 M197.682 95.496 C 199.158 95.573,201.678 95.573,203.282 95.497 C 204.887 95.421,203.680 95.358,200.600 95.358 C 197.520 95.357,196.207 95.419,197.682 95.496 M189.300 95.876 C 189.685 95.976,190.315 95.976,190.700 95.876 C 191.085 95.775,190.770 95.693,190.000 95.693 C 189.230 95.693,188.915 95.775,189.300 95.876 M210.500 95.876 C 210.885 95.976,211.515 95.976,211.900 95.876 C 212.285 95.775,211.970 95.693,211.200 95.693 C 210.430 95.693,210.115 95.775,210.500 95.876 M199.511 111.093 C 200.451 111.178,201.891 111.177,202.711 111.091 C 203.530 111.005,202.760 110.936,201.000 110.937 C 199.240 110.939,198.570 111.009,199.511 111.093 M190.705 111.483 C 191.202 111.579,191.922 111.575,192.305 111.475 C 192.687 111.375,192.280 111.296,191.400 111.301 C 190.520 111.305,190.207 111.387,190.705 111.483 M209.505 111.483 C 210.002 111.579,210.722 111.575,211.105 111.475 C 211.487 111.375,211.080 111.296,210.200 111.301 C 209.320 111.305,209.007 111.387,209.505 111.483 M213.700 111.876 C 214.085 111.976,214.715 111.976,215.100 111.876 C 215.485 111.775,215.170 111.693,214.400 111.693 C 213.630 111.693,213.315 111.775,213.700 111.876 M253.600 111.725 C 253.600 111.794,254.185 112.379,254.900 113.025 L 256.200 114.200 255.025 112.900 C 253.930 111.688,253.600 111.416,253.600 111.725 M144.378 115.500 L 143.000 117.000 144.500 115.622 C 145.325 114.863,146.000 114.188,146.000 114.122 C 146.000 113.816,145.662 114.104,144.378 115.500 M154.786 125.900 L 152.600 128.200 154.900 126.014 C 157.037 123.982,157.383 123.600,157.086 123.600 C 157.024 123.600,155.989 124.635,154.786 125.900 M373.628 132.200 C 373.628 132.420,373.886 133.050,374.200 133.600 C 374.514 134.150,374.772 134.420,374.772 134.200 C 374.772 133.980,374.514 133.350,374.200 132.800 C 373.886 132.250,373.628 131.980,373.628 132.200 M130.865 135.417 C 130.195 136.888,130.323 137.202,131.047 135.865 C 131.386 135.240,131.588 134.654,131.496 134.563 C 131.405 134.471,131.121 134.856,130.865 135.417 M126.101 154.600 C 126.105 155.480,126.187 155.793,126.283 155.295 C 126.379 154.798,126.375 154.078,126.275 153.695 C 126.175 153.313,126.096 153.720,126.101 154.600 M260.120 157.200 C 260.120 158.410,260.195 158.905,260.287 158.300 C 260.378 157.695,260.378 156.705,260.287 156.100 C 260.195 155.495,260.120 155.990,260.120 157.200 M141.337 159.800 C 141.339 161.560,141.409 162.230,141.493 161.289 C 141.578 160.349,141.577 158.909,141.491 158.089 C 141.405 157.270,141.336 158.040,141.337 159.800 M125.737 161.000 C 125.739 162.760,125.809 163.430,125.893 162.489 C 125.978 161.549,125.977 160.109,125.891 159.289 C 125.805 158.470,125.736 159.240,125.737 161.000 M276.181 175.600 C 276.181 183.630,276.234 186.915,276.299 182.900 C 276.365 178.885,276.365 172.315,276.299 168.300 C 276.234 164.285,276.181 167.570,276.181 175.600 M260.585 184.400 C 260.585 194.630,260.636 198.815,260.700 193.700 C 260.763 188.585,260.763 180.215,260.700 175.100 C 260.636 169.985,260.585 174.170,260.585 184.400 M125.357 172.400 C 125.357 175.370,125.420 176.585,125.497 175.100 C 125.574 173.615,125.574 171.185,125.497 169.700 C 125.420 168.215,125.357 169.430,125.357 172.400 M140.967 180.000 C 140.967 184.290,141.026 186.045,141.098 183.900 C 141.170 181.755,141.170 178.245,141.098 176.100 C 141.026 173.955,140.967 175.710,140.967 180.000 M124.951 189.600 C 124.951 192.130,125.016 193.165,125.096 191.900 C 125.175 190.635,125.175 188.565,125.096 187.300 C 125.016 186.035,124.951 187.070,124.951 189.600 M26.093 188.800 C 26.093 189.570,26.175 189.885,26.276 189.500 C 26.376 189.115,26.376 188.485,26.276 188.100 C 26.175 187.715,26.093 188.030,26.093 188.800 M25.720 194.800 C 25.720 196.010,25.795 196.505,25.887 195.900 C 25.978 195.295,25.978 194.305,25.887 193.700 C 25.795 193.095,25.720 193.590,25.720 194.800 M276.514 195.000 C 276.517 196.100,276.595 196.503,276.687 195.895 C 276.779 195.286,276.777 194.386,276.682 193.895 C 276.587 193.403,276.511 193.900,276.514 195.000 M390.120 198.800 C 390.120 200.010,390.195 200.505,390.287 199.900 C 390.378 199.295,390.378 198.305,390.287 197.700 C 390.195 197.095,390.120 197.590,390.120 198.800 M9.709 199.600 C 9.709 200.590,9.787 200.995,9.882 200.500 C 9.978 200.005,9.978 199.195,9.882 198.700 C 9.787 198.205,9.709 198.610,9.709 199.600 M374.514 200.200 C 374.517 201.300,374.595 201.703,374.687 201.095 C 374.779 200.486,374.777 199.586,374.682 199.095 C 374.587 198.603,374.511 199.100,374.514 200.200 M25.320 210.000 C 25.320 211.210,25.395 211.705,25.487 211.100 C 25.578 210.495,25.578 209.505,25.487 208.900 C 25.395 208.295,25.320 208.790,25.320 210.000 M281.354 216.800 C 281.354 219.550,281.418 220.675,281.496 219.300 C 281.574 217.925,281.574 215.675,281.496 214.300 C 281.418 212.925,281.354 214.050,281.354 216.800 M9.714 216.600 C 9.717 217.700,9.795 218.103,9.887 217.495 C 9.979 216.886,9.977 215.986,9.882 215.495 C 9.787 215.003,9.711 215.500,9.714 216.600 M134.934 218.400 C 134.934 220.050,135.005 220.725,135.091 219.900 C 135.178 219.075,135.178 217.725,135.091 216.900 C 135.005 216.075,134.934 216.750,134.934 218.400 M390.114 217.400 C 390.117 218.500,390.195 218.903,390.287 218.295 C 390.379 217.686,390.377 216.786,390.282 216.295 C 390.187 215.803,390.111 216.300,390.114 217.400 M374.520 218.800 C 374.520 220.010,374.595 220.505,374.687 219.900 C 374.778 219.295,374.778 218.305,374.687 217.700 C 374.595 217.095,374.520 217.590,374.520 218.800 M25.724 223.800 C 25.726 225.120,25.801 225.612,25.890 224.893 C 25.979 224.174,25.977 223.094,25.886 222.493 C 25.795 221.892,25.722 222.480,25.724 223.800 M10.101 225.000 C 10.105 225.880,10.187 226.193,10.283 225.695 C 10.379 225.198,10.375 224.478,10.275 224.095 C 10.175 223.713,10.096 224.120,10.101 225.000 M374.093 224.800 C 374.093 225.570,374.175 225.885,374.276 225.500 C 374.376 225.115,374.376 224.485,374.276 224.100 C 374.175 223.715,374.093 224.030,374.093 224.800 M389.693 225.600 C 389.693 226.370,389.775 226.685,389.876 226.300 C 389.976 225.915,389.976 225.285,389.876 224.900 C 389.775 224.515,389.693 224.830,389.693 225.600 M26.093 229.600 C 26.093 230.370,26.175 230.685,26.276 230.300 C 26.376 229.915,26.376 229.285,26.276 228.900 C 26.175 228.515,26.093 228.830,26.093 229.600 M141.200 231.400 C 142.617 232.830,143.867 234.000,143.977 234.000 C 144.087 234.000,143.017 232.830,141.600 231.400 C 140.183 229.970,138.933 228.800,138.823 228.800 C 138.713 228.800,139.783 229.970,141.200 231.400 M10.493 230.400 C 10.493 231.170,10.575 231.485,10.676 231.100 C 10.776 230.715,10.776 230.085,10.676 229.700 C 10.575 229.315,10.493 229.630,10.493 230.400 M258.975 232.500 L 257.800 233.800 259.100 232.625 C 259.815 231.979,260.400 231.394,260.400 231.325 C 260.400 231.016,260.070 231.288,258.975 232.500 M137.634 260.200 C 137.634 260.420,137.978 261.230,138.400 262.000 C 138.822 262.770,139.166 263.220,139.166 263.000 C 139.166 262.780,138.822 261.970,138.400 261.200 C 137.978 260.430,137.634 259.980,137.634 260.200 M169.301 283.000 C 169.305 283.880,169.387 284.193,169.483 283.695 C 169.579 283.198,169.575 282.478,169.475 282.095 C 169.375 281.713,169.296 282.120,169.301 283.000 M355.800 289.200 C 355.459 289.860,355.269 290.400,355.379 290.400 C 355.489 290.400,355.859 289.860,356.200 289.200 C 356.541 288.540,356.731 288.000,356.621 288.000 C 356.511 288.000,356.141 288.540,355.800 289.200 M30.600 296.000 C 30.941 296.660,31.311 297.200,31.421 297.200 C 31.531 297.200,31.341 296.660,31.000 296.000 C 30.659 295.340,30.289 294.800,30.179 294.800 C 30.069 294.800,30.259 295.340,30.600 296.000 M169.301 297.800 C 169.305 298.680,169.387 298.993,169.483 298.495 C 169.579 297.998,169.575 297.278,169.475 296.895 C 169.375 296.513,169.296 296.920,169.301 297.800 M249.600 299.400 C 250.795 300.610,251.863 301.600,251.973 301.600 C 252.083 301.600,251.195 300.610,250.000 299.400 C 248.805 298.190,247.737 297.200,247.627 297.200 C 247.517 297.200,248.405 298.190,249.600 299.400 M151.375 300.100 L 150.200 301.400 151.500 300.225 C 152.712 299.130,152.984 298.800,152.675 298.800 C 152.606 298.800,152.021 299.385,151.375 300.100 M235.200 306.125 C 235.200 306.194,235.785 306.779,236.500 307.425 L 237.800 308.600 236.625 307.300 C 235.530 306.088,235.200 305.816,235.200 306.125 M163.588 309.100 L 161.000 311.800 163.700 309.212 C 166.208 306.807,166.583 306.400,166.288 306.400 C 166.227 306.400,165.012 307.615,163.588 309.100 M239.200 310.200 C 239.946 310.970,240.647 311.600,240.757 311.600 C 240.867 311.600,240.346 310.970,239.600 310.200 C 238.854 309.430,238.153 308.800,238.043 308.800 C 237.933 308.800,238.454 309.430,239.200 310.200 M118.000 319.800 C 117.450 320.114,117.180 320.372,117.400 320.372 C 117.620 320.372,118.250 320.114,118.800 319.800 C 119.350 319.486,119.620 319.228,119.400 319.228 C 119.180 319.228,118.550 319.486,118.000 319.800 M107.200 325.000 C 106.650 325.314,106.380 325.572,106.600 325.572 C 106.820 325.572,107.450 325.314,108.000 325.000 C 108.550 324.686,108.820 324.428,108.600 324.428 C 108.380 324.428,107.750 324.686,107.200 325.000 M330.975 325.700 L 329.800 327.000 331.100 325.825 C 331.815 325.179,332.400 324.594,332.400 324.525 C 332.400 324.216,332.070 324.488,330.975 325.700 M298.800 327.400 C 299.350 327.714,299.980 327.972,300.200 327.972 C 300.420 327.972,300.150 327.714,299.600 327.400 C 299.050 327.086,298.420 326.828,298.200 326.828 C 297.980 326.828,298.250 327.086,298.800 327.400 M70.400 327.725 C 70.400 327.794,70.985 328.379,71.700 329.025 L 73.000 330.200 71.825 328.900 C 70.730 327.688,70.400 327.416,70.400 327.725 M326.786 330.300 L 324.600 332.600 326.900 330.414 C 329.037 328.382,329.383 328.000,329.086 328.000 C 329.024 328.000,327.989 329.035,326.786 330.300 M76.000 333.800 C 77.195 335.010,78.263 336.000,78.373 336.000 C 78.483 336.000,77.595 335.010,76.400 333.800 C 75.205 332.590,74.137 331.600,74.027 331.600 C 73.917 331.600,74.805 332.590,76.000 333.800 M342.575 334.500 L 341.400 335.800 342.700 334.625 C 343.415 333.979,344.000 333.394,344.000 333.325 C 344.000 333.016,343.670 333.288,342.575 334.500 M278.400 334.579 C 278.400 334.689,278.940 335.059,279.600 335.400 C 280.260 335.741,280.800 335.931,280.800 335.821 C 280.800 335.711,280.260 335.341,279.600 335.000 C 278.940 334.659,278.400 334.469,278.400 334.579 M58.400 336.200 C 59.146 336.970,59.847 337.600,59.957 337.600 C 60.067 337.600,59.546 336.970,58.800 336.200 C 58.054 335.430,57.353 334.800,57.243 334.800 C 57.133 334.800,57.654 335.430,58.400 336.200 M337.588 339.900 L 335.000 342.600 337.700 340.012 C 339.185 338.588,340.400 337.373,340.400 337.312 C 340.400 337.017,339.993 337.392,337.588 339.900 M65.600 343.800 C 67.681 345.890,69.474 347.600,69.584 347.600 C 69.694 347.600,68.081 345.890,66.000 343.800 C 63.919 341.710,62.126 340.000,62.016 340.000 C 61.906 340.000,63.519 341.710,65.600 343.800 M327.586 349.900 L 325.400 352.200 327.700 350.014 C 329.837 347.982,330.183 347.600,329.886 347.600 C 329.824 347.600,328.789 348.635,327.586 349.900 M277.200 383.000 C 276.650 383.314,276.380 383.572,276.600 383.572 C 276.820 383.572,277.450 383.314,278.000 383.000 C 278.550 382.686,278.820 382.428,278.600 382.428 C 278.380 382.428,277.750 382.686,277.200 383.000 M191.900 383.882 C 192.395 383.978,193.205 383.978,193.700 383.882 C 194.195 383.787,193.790 383.709,192.800 383.709 C 191.810 383.709,191.405 383.787,191.900 383.882 M206.500 383.887 C 207.105 383.978,208.095 383.978,208.700 383.887 C 209.305 383.795,208.810 383.720,207.600 383.720 C 206.390 383.720,205.895 383.795,206.500 383.887 M177.300 398.676 C 177.685 398.776,178.315 398.776,178.700 398.676 C 179.085 398.575,178.770 398.493,178.000 398.493 C 177.230 398.493,176.915 398.575,177.300 398.676 M196.300 399.898 C 198.115 399.972,201.085 399.972,202.900 399.898 C 204.715 399.823,203.230 399.763,199.600 399.763 C 195.970 399.763,194.485 399.823,196.300 399.898 " stroke="none" fill="#6c6c6c" fill-rule="evenodd"></path></g></svg>