<svg id="svg" version="1.1" xmlns="http://www.w3.org/2000/svg" xmlns:xlink="http://www.w3.org/1999/xlink" width="400" height="400" viewBox="0, 0, 400,400"><g id="svgg"><path id="path0" d="M64.400 42.030 C 52.198 43.599,43.995 51.545,42.185 63.550 C 41.301 69.412,41.315 289.075,42.199 294.942 C 43.466 303.346,43.993 304.047,64.764 324.934 C 85.628 345.916,86.736 346.836,93.800 349.048 C 97.034 350.061,334.306 350.244,338.600 349.237 C 347.930 347.049,355.112 339.963,357.489 330.600 C 358.563 326.372,358.598 65.335,357.526 61.200 C 355.037 51.603,348.266 44.824,338.819 42.472 C 335.910 41.748,69.928 41.320,64.400 42.030 M316.701 129.100 L 316.600 183.400 200.000 183.400 L 83.400 183.400 83.299 129.100 L 83.197 74.800 200.000 74.800 L 316.803 74.800 316.701 129.100 M263.469 217.306 C 268.482 219.017,272.705 223.312,274.326 228.344 L 275.200 231.057 275.200 270.936 L 275.200 310.815 274.201 313.675 C 272.356 318.955,268.486 322.711,263.126 324.424 C 259.225 325.670,115.396 325.636,111.763 324.388 C 107.098 322.786,103.774 319.854,101.347 315.200 L 100.200 313.000 100.200 271.000 L 100.200 229.000 101.450 226.400 C 103.824 221.464,107.935 218.088,112.890 217.005 C 117.224 216.059,260.654 216.345,263.469 217.306 M125.200 271.000 L 125.200 308.400 150.000 308.400 L 174.800 308.400 174.800 271.000 L 174.800 233.600 150.000 233.600 L 125.200 233.600 125.200 271.000 " stroke="none" fill="#040404" fill-rule="evenodd"></path><path id="path1" d="M57.800 8.421 C 56.920 8.597,54.676 9.032,52.814 9.387 C 50.951 9.742,49.331 10.182,49.214 10.366 C 49.096 10.549,48.370 10.833,47.600 10.995 C 46.830 11.158,45.210 11.742,44.000 12.293 C 38.274 14.900,37.410 15.333,36.895 15.848 C 36.591 16.152,36.080 16.400,35.759 16.400 C 35.438 16.400,35.071 16.670,34.945 17.000 C 34.818 17.330,34.549 17.600,34.348 17.600 C 33.771 17.600,29.960 20.324,28.717 21.624 C 28.099 22.271,27.459 22.800,27.295 22.800 C 27.130 22.800,26.043 23.835,24.878 25.100 C 23.713 26.365,22.218 27.981,21.556 28.690 C 20.116 30.233,17.600 33.832,17.600 34.348 C 17.600 34.549,17.330 34.818,17.000 34.945 C 16.670 35.071,16.400 35.438,16.400 35.759 C 16.400 36.080,16.152 36.591,15.848 36.895 C 15.340 37.403,14.705 38.674,12.198 44.200 C 11.699 45.300,11.158 46.830,10.995 47.600 C 10.833 48.370,10.549 49.096,10.366 49.214 C 10.182 49.331,9.744 50.951,9.391 52.814 C 9.038 54.676,8.592 57.010,8.399 58.000 C 7.937 60.366,7.938 298.035,8.399 300.400 C 9.492 306.004,10.102 308.643,10.387 308.999 C 10.563 309.220,10.839 310.030,11.000 310.800 C 11.161 311.570,11.529 312.650,11.818 313.200 C 12.886 315.232,15.200 320.443,15.200 320.815 C 15.200 321.027,15.358 321.200,15.551 321.200 C 15.745 321.200,16.127 321.740,16.400 322.400 C 16.673 323.060,17.055 323.600,17.249 323.600 C 17.442 323.600,17.600 323.860,17.600 324.177 C 17.600 324.495,17.915 324.991,18.300 325.279 C 18.685 325.568,19.282 326.307,19.626 326.922 C 20.850 329.106,23.215 331.586,41.623 349.986 C 61.086 369.440,62.992 371.281,64.115 371.712 C 64.492 371.857,64.800 372.161,64.800 372.387 C 64.800 372.614,64.992 372.800,65.227 372.800 C 65.461 372.800,66.243 373.250,66.964 373.800 C 67.686 374.350,68.422 374.800,68.600 374.800 C 68.778 374.800,69.502 375.240,70.208 375.779 C 70.913 376.317,71.965 376.876,72.545 377.022 C 73.125 377.168,73.600 377.447,73.600 377.643 C 73.600 377.840,73.775 378.000,73.988 378.000 C 74.202 378.000,75.327 378.433,76.488 378.962 C 77.650 379.490,79.410 380.138,80.400 380.401 C 81.390 380.663,82.383 381.028,82.607 381.211 C 82.832 381.394,84.272 381.761,85.807 382.026 C 87.343 382.291,88.728 382.709,88.885 382.954 C 89.286 383.581,343.902 383.594,344.315 382.967 C 344.472 382.729,345.944 382.316,347.588 382.049 C 349.231 381.782,350.671 381.426,350.788 381.257 C 350.904 381.089,352.215 380.627,353.700 380.231 C 355.185 379.835,356.400 379.351,356.400 379.156 C 356.400 378.960,356.595 378.800,356.834 378.800 C 357.321 378.800,362.488 376.336,362.800 375.956 C 362.910 375.822,363.630 375.391,364.400 374.999 C 365.170 374.607,366.184 373.997,366.654 373.643 C 367.123 373.290,367.910 372.730,368.403 372.400 C 371.369 370.412,379.304 362.540,380.297 360.601 C 380.635 359.940,381.033 359.310,381.182 359.200 C 381.704 358.815,384.000 355.252,384.000 354.828 C 384.000 354.593,384.138 354.400,384.306 354.400 C 384.627 354.400,386.000 351.480,386.000 350.797 C 386.000 350.579,386.180 350.400,386.400 350.400 C 386.620 350.400,386.800 350.192,386.800 349.939 C 386.800 349.685,387.234 348.560,387.764 347.439 C 388.294 346.317,388.854 344.725,389.008 343.900 C 389.163 343.075,389.433 342.400,389.608 342.400 C 389.784 342.400,390.141 341.095,390.403 339.500 C 390.664 337.905,391.086 336.168,391.339 335.639 C 392.003 334.255,392.003 57.345,391.339 55.961 C 391.086 55.432,390.664 53.695,390.403 52.100 C 390.141 50.505,389.784 49.200,389.608 49.200 C 389.433 49.200,389.163 48.525,389.008 47.700 C 388.854 46.875,388.294 45.255,387.764 44.100 C 387.234 42.945,386.328 40.976,385.752 39.724 C 385.176 38.471,384.456 37.199,384.152 36.895 C 383.848 36.591,383.600 36.080,383.600 35.759 C 383.600 35.438,383.330 35.071,383.000 34.945 C 382.670 34.818,382.400 34.549,382.400 34.348 C 382.400 33.832,379.884 30.233,378.444 28.690 C 377.782 27.981,376.287 26.365,375.122 25.100 C 373.957 23.835,372.870 22.800,372.705 22.800 C 372.541 22.800,371.901 22.271,371.283 21.624 C 370.040 20.324,366.229 17.600,365.652 17.600 C 365.451 17.600,365.182 17.330,365.055 17.000 C 364.929 16.670,364.562 16.400,364.241 16.400 C 363.920 16.400,363.419 16.174,363.129 15.899 C 362.128 14.951,354.397 11.417,352.400 10.995 C 351.630 10.833,350.904 10.549,350.786 10.366 C 350.669 10.182,349.049 9.744,347.186 9.391 C 345.324 9.038,342.990 8.592,342.000 8.399 C 339.741 7.958,59.999 7.980,57.800 8.421 M341.400 42.734 C 345.518 44.336,348.094 46.029,351.200 49.178 C 354.043 52.059,354.883 53.376,357.465 59.000 C 358.327 60.876,358.849 325.791,358.000 330.383 C 356.937 336.132,351.304 343.967,346.378 346.546 C 345.840 346.828,344.995 347.270,344.500 347.529 C 339.389 350.204,349.913 350.000,216.862 350.000 C 85.633 350.000,94.421 350.172,88.800 347.493 C 85.416 345.880,85.306 345.779,65.761 326.236 C 45.117 305.595,44.928 305.377,42.771 299.600 L 41.800 297.000 41.800 179.200 L 41.800 61.400 42.731 58.800 C 45.818 50.182,52.898 43.896,61.800 41.872 C 62.240 41.772,124.790 41.715,200.800 41.745 L 339.000 41.800 341.400 42.734 M83.600 129.200 L 83.600 183.200 200.000 183.200 L 316.400 183.200 316.400 129.200 L 316.400 75.200 200.000 75.200 L 83.600 75.200 83.600 129.200 M114.000 217.076 C 107.592 218.183,102.141 223.571,100.643 230.279 C 99.553 235.161,99.688 307.276,100.796 311.897 C 102.355 318.400,107.081 323.046,113.536 324.421 C 114.741 324.678,141.339 324.779,188.800 324.709 L 262.200 324.600 264.910 323.317 C 268.469 321.630,271.630 318.469,273.317 314.910 L 274.600 312.200 274.600 270.800 L 274.600 229.400 273.489 227.028 C 271.440 222.652,268.528 219.870,263.957 217.920 L 261.800 217.000 188.400 216.952 C 148.030 216.925,114.550 216.981,114.000 217.076 M175.200 270.800 L 175.200 308.400 150.000 308.400 L 124.800 308.400 124.800 270.800 L 124.800 233.200 150.000 233.200 L 175.200 233.200 175.200 270.800 " stroke="none" fill="#fbfbfb" fill-rule="evenodd"></path><path id="path2" d="M83.394 129.200 C 83.394 159.010,83.442 171.205,83.500 156.300 C 83.558 141.395,83.558 117.005,83.500 102.100 C 83.442 87.195,83.394 99.390,83.394 129.200 M316.594 129.200 C 316.594 159.010,316.642 171.205,316.700 156.300 C 316.758 141.395,316.758 117.005,316.700 102.100 C 316.642 87.195,316.594 99.390,316.594 129.200 M104.778 221.900 L 103.400 223.400 104.900 222.022 C 106.296 220.738,106.584 220.400,106.278 220.400 C 106.212 220.400,105.537 221.075,104.778 221.900 " stroke="none" fill="#a2a2a2" fill-rule="evenodd"></path><path id="path3" d="M274.992 270.800 C 274.992 291.810,275.041 300.405,275.100 289.900 C 275.159 279.395,275.159 262.205,275.100 251.700 C 275.041 241.195,274.992 249.790,274.992 270.800 M124.992 270.800 C 124.992 291.370,125.040 299.785,125.100 289.500 C 125.159 279.215,125.159 262.385,125.100 252.100 C 125.040 241.815,124.992 250.230,124.992 270.800 M52.200 312.800 C 53.059 313.680,53.852 314.400,53.962 314.400 C 54.072 314.400,53.459 313.680,52.600 312.800 C 51.741 311.920,50.948 311.200,50.838 311.200 C 50.728 311.200,51.341 311.920,52.200 312.800 M59.200 319.800 C 60.617 321.230,61.867 322.400,61.977 322.400 C 62.087 322.400,61.017 321.230,59.600 319.800 C 58.183 318.370,56.933 317.200,56.823 317.200 C 56.713 317.200,57.783 318.370,59.200 319.800 M151.700 325.100 C 171.445 325.157,203.755 325.157,223.500 325.100 C 243.245 325.043,227.090 324.996,187.600 324.996 C 148.110 324.996,131.955 325.043,151.700 325.100 M64.800 325.325 C 64.800 325.394,65.385 325.979,66.100 326.625 L 67.400 327.800 66.225 326.500 C 65.130 325.288,64.800 325.016,64.800 325.325 " stroke="none" fill="#8c8c8c" fill-rule="evenodd"></path><path id="path4" d="M64.705 41.883 C 65.202 41.979,65.922 41.975,66.305 41.875 C 66.687 41.775,66.280 41.696,65.400 41.701 C 64.520 41.705,64.207 41.787,64.705 41.883 M333.905 41.883 C 334.402 41.979,335.122 41.975,335.505 41.875 C 335.887 41.775,335.480 41.696,334.600 41.701 C 333.720 41.705,333.407 41.787,333.905 41.883 M355.628 55.800 C 355.628 56.020,355.886 56.650,356.200 57.200 C 356.514 57.750,356.772 58.020,356.772 57.800 C 356.772 57.580,356.514 56.950,356.200 56.400 C 355.886 55.850,355.628 55.580,355.628 55.800 M41.701 65.000 C 41.705 65.880,41.787 66.193,41.883 65.695 C 41.979 65.198,41.975 64.478,41.875 64.095 C 41.775 63.713,41.696 64.120,41.701 65.000 M358.093 64.800 C 358.093 65.570,358.175 65.885,358.276 65.500 C 358.376 65.115,358.376 64.485,358.276 64.100 C 358.175 63.715,358.093 64.030,358.093 64.800 M141.500 75.100 C 173.675 75.156,226.325 75.156,258.500 75.100 C 290.675 75.044,264.350 74.997,200.000 74.997 C 135.650 74.997,109.325 75.044,141.500 75.100 M141.700 183.500 C 173.765 183.556,226.235 183.556,258.300 183.500 C 290.365 183.444,264.130 183.397,200.000 183.397 C 135.870 183.397,109.635 183.444,141.700 183.500 M151.068 216.700 C 170.906 216.757,203.486 216.757,223.468 216.700 C 243.451 216.643,227.220 216.596,187.400 216.596 C 147.580 216.596,131.231 216.643,151.068 216.700 M104.778 221.500 L 103.400 223.000 104.900 221.622 C 106.296 220.338,106.584 220.000,106.278 220.000 C 106.212 220.000,105.537 220.675,104.778 221.500 M274.893 231.600 C 274.893 232.370,274.975 232.685,275.076 232.300 C 275.176 231.915,275.176 231.285,275.076 230.900 C 274.975 230.515,274.893 230.830,274.893 231.600 M149.898 233.498 L 174.796 233.606 174.901 270.903 L 175.006 308.200 175.003 270.800 L 175.000 233.400 150.000 233.395 L 125.000 233.391 149.898 233.498 M41.701 293.400 C 41.705 294.280,41.787 294.593,41.883 294.095 C 41.979 293.598,41.975 292.878,41.875 292.495 C 41.775 292.113,41.696 292.520,41.701 293.400 M274.893 310.000 C 274.893 310.770,274.975 311.085,275.076 310.700 C 275.176 310.315,275.176 309.685,275.076 309.300 C 274.975 308.915,274.893 309.230,274.893 310.000 M104.800 320.200 C 105.546 320.970,106.247 321.600,106.357 321.600 C 106.467 321.600,105.946 320.970,105.200 320.200 C 104.454 319.430,103.753 318.800,103.643 318.800 C 103.533 318.800,104.054 319.430,104.800 320.200 M114.100 325.076 C 114.485 325.176,115.115 325.176,115.500 325.076 C 115.885 324.975,115.570 324.893,114.800 324.893 C 114.030 324.893,113.715 324.975,114.100 325.076 M358.093 327.200 C 358.093 327.970,358.175 328.285,358.276 327.900 C 358.376 327.515,358.376 326.885,358.276 326.500 C 358.175 326.115,358.093 326.430,358.093 327.200 " stroke="none" fill="#848484" fill-rule="evenodd"></path></g></svg>