<?xml version="1.0" standalone="no"?>
<!DOCTYPE svg PUBLIC "-//W3C//DTD SVG 20010904//EN"
 "http://www.w3.org/TR/2001/REC-SVG-20010904/DTD/svg10.dtd">
<svg version="1.0" xmlns="http://www.w3.org/2000/svg"
 width="225.000000pt" height="225.000000pt" viewBox="0 0 225.000000 225.000000"
 preserveAspectRatio="xMidYMid meet">

<g transform="translate(0.000000,225.000000) scale(0.100000,-0.100000)"
fill="#000000" stroke="none">
<path d="M975 2239 c-603 -81 -1036 -636 -966 -1238 78 -669 703 -1115 1363
-971 200 44 370 135 527 285 250 238 376 573 342 909 -29 290 -138 516 -342
711 -159 152 -320 239 -529 286 -101 22 -297 32 -395 18z m400 -134 c281 -71
527 -270 655 -529 143 -290 143 -614 0 -902 -129 -259 -371 -456 -655 -530
-84 -22 -123 -27 -240 -28 -81 0 -165 5 -200 12 -409 88 -716 391 -801 787
-82 383 66 780 378 1015 131 99 283 166 428 190 41 6 82 13 90 15 47 12 253
-6 345 -30z"/>
<path d="M1086 1724 c-14 -13 -16 -53 -16 -280 l0 -264 -264 0 c-287 0 -296
-2 -296 -55 0 -53 9 -55 296 -55 l264 0 0 -264 c0 -287 2 -296 55 -296 53 0
55 9 55 296 l0 264 264 0 c287 0 296 2 296 55 0 53 -9 55 -296 55 l-264 0 0
264 c0 287 -2 296 -55 296 -13 0 -31 -7 -39 -16z"/>
</g>
</svg>
