<?xml version="1.0" standalone="no"?>
<!DOCTYPE svg PUBLIC "-//W3C//DTD SVG 20010904//EN"
 "http://www.w3.org/TR/2001/REC-SVG-20010904/DTD/svg10.dtd">
<svg version="1.0" xmlns="http://www.w3.org/2000/svg"
 width="512.000000pt" height="512.000000pt" viewBox="0 0 512.000000 512.000000"
 preserveAspectRatio="xMidYMid meet">

<g transform="translate(0.000000,512.000000) scale(0.100000,-0.100000)"
fill="#000000" stroke="none">
<path d="M2115 5110 c-779 -42 -1404 -173 -1726 -360 -88 -52 -187 -145 -221
-207 -39 -71 -53 -156 -38 -229 7 -32 21 -75 31 -95 10 -20 403 -503 873
-1074 l856 -1038 0 -981 c0 -942 1 -983 19 -1023 29 -62 88 -98 162 -98 56 0
78 10 569 255 281 140 522 266 535 280 57 59 55 36 55 833 l0 734 856 1038
c470 571 863 1054 873 1074 67 131 41 286 -66 401 -88 95 -205 167 -384 233
-326 122 -772 204 -1339 247 -192 15 -853 21 -1055 10z m815 -365 c508 -14
1083 -103 1406 -216 109 -38 233 -101 265 -135 l23 -25 -29 -24 c-105 -84
-375 -176 -700 -239 -960 -185 -2377 -136 -3093 108 -144 49 -302 132 -302
160 0 12 73 64 138 96 176 87 529 173 922 225 302 40 796 67 1075 58 61 -1
193 -5 295 -8z m-1812 -990 c199 -40 530 -83 817 -106 220 -17 810 -23 1055
-10 386 20 739 61 1013 117 66 13 122 22 124 20 2 -2 -273 -339 -611 -748
-338 -410 -621 -759 -630 -776 -13 -26 -16 -128 -22 -755 l-7 -725 -295 -144
c-161 -78 -298 -145 -303 -146 -5 -2 -9 348 -9 868 0 778 -2 874 -16 902 -9
17 -289 362 -623 767 -334 405 -610 742 -615 749 -9 15 -20 16 122 -13z"/>
</g>
</svg>
