<?xml version="1.0" standalone="no"?>
<!DOCTYPE svg PUBLIC "-//W3C//DTD SVG 20010904//EN"
 "http://www.w3.org/TR/2001/REC-SVG-20010904/DTD/svg10.dtd">
<svg version="1.0" xmlns="http://www.w3.org/2000/svg"
 width="225.000000pt" height="225.000000pt" viewBox="0 0 225.000000 225.000000"
 preserveAspectRatio="xMidYMid meet">

<g transform="translate(0.000000,225.000000) scale(0.100000,-0.100000)"
fill="#000000" stroke="none">
<path d="M771 2004 c-161 -43 -302 -161 -373 -310 -33 -70 -58 -177 -58 -249
0 -128 60 -285 144 -381 l45 -52 -43 -16 c-78 -30 -219 -131 -296 -213 -164
-173 -208 -329 -127 -451 37 -54 113 -101 165 -102 34 0 82 36 82 62 0 24 -31
58 -71 79 -104 52 -80 177 61 320 78 79 163 138 278 192 78 36 89 39 117 28
73 -30 136 -41 232 -42 82 0 116 5 175 25 l73 24 93 -44 c186 -87 318 -199
381 -325 51 -103 41 -146 -44 -184 -62 -27 -79 -60 -53 -104 12 -23 21 -26 64
-26 64 1 134 40 172 97 24 37 27 51 27 123 0 73 -4 88 -37 156 -72 145 -225
294 -383 372 l-75 37 47 58 c153 187 172 445 50 662 -66 118 -214 229 -353
265 -73 19 -221 19 -293 -1z m291 -153 c212 -73 330 -295 273 -514 -51 -198
-209 -318 -415 -318 -134 0 -228 39 -313 130 -212 227 -124 598 167 701 72 26
215 26 288 1z"/>
<path d="M1465 1871 c3 -9 13 -41 22 -72 15 -53 17 -56 57 -67 105 -28 221
-143 252 -250 24 -83 16 -201 -20 -270 -33 -65 -93 -132 -141 -158 -30 -16
-35 -24 -35 -54 0 -65 8 -77 63 -95 201 -65 401 -242 431 -382 10 -44 -7 -71
-60 -93 -56 -24 -74 -58 -50 -94 23 -37 56 -41 113 -16 68 30 101 66 119 127
13 43 13 63 5 105 -32 149 -193 332 -367 418 l-64 31 39 49 c75 95 111 198
111 320 0 255 -175 462 -429 508 -46 8 -51 8 -46 -7z"/>
</g>
</svg>
