<svg id="svg" version="1.1" xmlns="http://www.w3.org/2000/svg" xmlns:xlink="http://www.w3.org/1999/xlink" width="400" height="418.57142857142856" viewBox="0, 0, 400,418.57142857142856"><g id="svgg"><path id="path0" d="M197.214 19.839 C 196.231 20.196,194.864 20.873,194.175 21.344 C 193.282 21.955,163.352 52.917,155.020 61.850 C 154.789 62.098,152.719 64.258,150.419 66.650 C 140.930 76.523,137.393 80.219,129.410 88.600 C 124.801 93.440,119.209 99.290,116.985 101.600 C 112.987 105.752,101.706 117.542,85.400 134.606 C 80.780 139.441,74.840 145.644,72.200 148.391 C 69.560 151.138,65.678 155.189,63.573 157.393 C 50.089 171.513,30.622 191.871,23.597 199.200 C 10.295 213.076,10.210 213.196,10.240 218.000 C 10.315 229.708,23.166 233.414,31.882 224.241 C 33.367 222.679,37.196 218.700,40.391 215.400 L 46.200 209.400 46.400 299.800 L 46.600 390.200 47.716 392.473 C 48.980 395.047,50.918 396.926,53.580 398.158 C 56.033 399.293,140.486 399.712,144.174 398.607 C 147.286 397.675,149.774 395.612,151.294 392.700 L 152.600 390.200 152.800 329.400 L 153.000 268.600 200.292 268.498 L 247.585 268.397 247.692 329.107 L 247.800 389.817 249.136 392.531 C 250.110 394.509,250.977 395.618,252.336 396.622 C 256.030 399.353,253.567 399.229,301.832 399.109 L 345.400 399.000 347.047 398.119 C 350.856 396.081,352.842 393.435,353.569 389.427 C 353.869 387.777,354.000 359.978,354.000 298.327 C 354.000 249.527,354.153 209.600,354.339 209.600 C 354.526 209.600,355.561 210.571,356.639 211.757 C 370.496 227.004,373.429 229.379,378.400 229.382 C 389.061 229.388,394.017 217.875,386.843 209.770 C 385.625 208.394,341.436 161.827,339.017 159.371 C 338.567 158.915,336.758 157.025,334.995 155.171 C 333.232 153.317,329.810 149.730,327.391 147.200 C 324.972 144.670,319.745 139.180,315.775 135.000 C 295.430 113.579,291.238 109.171,284.200 101.800 C 276.293 93.517,260.909 77.349,241.198 56.606 C 234.929 50.009,229.530 44.329,229.200 43.984 C 228.870 43.639,225.360 39.946,221.401 35.778 C 208.273 21.960,207.926 21.622,205.742 20.554 C 203.060 19.242,199.643 18.956,197.214 19.839 M205.617 53.004 C 212.758 60.522,224.395 72.745,229.014 77.580 C 231.441 80.121,235.210 84.090,237.389 86.400 C 239.568 88.710,243.083 92.400,245.199 94.600 C 247.316 96.800,254.342 104.180,260.813 111.000 C 272.262 123.068,280.219 131.440,295.000 146.973 C 298.960 151.135,302.650 155.017,303.200 155.600 C 303.750 156.183,307.361 159.977,311.224 164.030 C 328.431 182.085,330.998 184.866,330.967 185.416 C 330.948 185.737,330.903 228.660,330.867 280.800 L 330.800 375.600 301.006 375.600 L 271.213 375.600 271.101 314.900 C 270.976 246.551,271.284 252.420,267.623 248.759 C 263.730 244.866,269.795 245.175,199.580 245.295 L 138.200 245.400 136.200 246.464 C 133.652 247.820,131.885 249.670,130.720 252.200 L 129.800 254.200 129.556 314.400 C 129.421 347.510,129.286 374.825,129.256 375.100 C 129.188 375.704,70.199 375.845,69.826 375.242 C 69.704 375.045,69.602 332.101,69.598 279.810 L 69.590 184.735 81.928 171.868 C 88.714 164.790,98.556 154.500,103.800 149.000 C 109.044 143.500,115.339 136.930,117.789 134.400 C 120.240 131.870,124.209 127.730,126.610 125.200 C 129.011 122.670,132.885 118.620,135.220 116.200 C 139.784 111.471,159.920 90.424,180.583 68.786 C 199.258 49.230,200.481 48.002,200.983 48.317 C 201.231 48.473,203.316 50.582,205.617 53.004 " stroke="none" fill="#050505" fill-rule="evenodd"></path><path id="path1" d="M0.000 209.200 L 0.000 418.400 200.000 418.400 L 400.000 418.400 400.000 209.200 L 400.000 0.000 200.000 0.000 L 0.000 0.000 0.000 209.200 M205.692 19.911 C 207.872 20.875,207.904 20.906,219.408 33.000 C 224.221 38.060,230.148 44.281,232.579 46.825 C 235.011 49.369,239.790 54.406,243.200 58.019 C 246.610 61.631,251.110 66.374,253.200 68.560 C 255.290 70.745,257.270 72.821,257.600 73.173 C 257.930 73.526,263.860 79.751,270.778 87.007 C 277.696 94.263,286.426 103.424,290.178 107.366 C 293.930 111.307,297.540 115.097,298.200 115.789 C 301.761 119.523,306.664 124.684,313.788 132.200 C 318.167 136.820,323.397 142.310,325.409 144.400 C 328.312 147.416,343.274 163.122,346.000 166.016 C 349.869 170.122,361.201 182.049,364.798 185.800 C 372.227 193.547,383.642 205.581,386.356 208.527 C 394.703 217.586,390.125 229.821,378.400 229.791 C 372.978 229.777,373.311 230.026,360.047 216.067 L 354.600 210.334 354.400 300.467 L 354.200 390.600 352.921 393.047 C 351.563 395.646,350.118 397.090,347.447 398.519 L 345.800 399.400 301.000 399.400 L 256.200 399.400 254.228 398.400 C 251.691 397.114,249.734 395.115,248.550 392.600 L 247.608 390.600 247.604 329.900 L 247.600 269.200 242.700 269.144 C 218.611 268.867,153.592 269.047,153.464 269.390 C 153.380 269.615,153.275 294.842,153.231 325.449 C 153.145 385.111,153.024 390.430,151.695 393.000 C 150.655 395.012,148.334 397.235,146.000 398.458 L 144.200 399.400 99.600 399.400 L 55.000 399.400 53.000 398.426 C 50.581 397.248,48.540 395.183,47.198 392.555 L 46.200 390.600 46.000 300.464 L 45.800 210.329 43.020 213.264 C 28.753 228.332,27.224 229.590,22.800 229.904 C 16.480 230.353,11.228 226.405,10.000 220.282 C 9.061 215.596,10.237 212.628,15.066 207.500 C 19.708 202.569,42.481 178.721,48.393 172.600 C 50.942 169.960,54.922 165.820,57.237 163.400 C 75.705 144.092,78.312 141.364,83.810 135.600 C 86.433 132.850,90.482 128.620,92.809 126.200 C 96.317 122.551,100.454 118.217,105.400 113.008 C 106.792 111.542,122.807 94.806,127.600 89.808 C 135.645 81.420,139.923 76.951,154.406 61.800 C 194.429 19.933,193.120 21.272,195.000 20.303 C 198.398 18.553,202.299 18.410,205.692 19.911 M199.720 49.355 C 199.437 49.846,191.079 58.612,177.800 72.348 C 175.380 74.851,173.220 77.105,173.000 77.357 C 172.575 77.844,166.075 84.656,159.411 91.600 C 149.996 101.411,145.332 106.281,137.596 114.381 C 133.088 119.100,128.860 123.525,128.200 124.214 C 126.804 125.670,112.679 140.465,111.200 142.019 C 110.650 142.597,108.400 144.944,106.200 147.235 C 103.999 149.526,98.329 155.450,93.600 160.400 C 84.690 169.724,77.452 177.279,72.592 182.325 L 69.775 185.250 70.018 188.325 C 70.152 190.016,70.247 232.682,70.231 283.138 C 70.210 343.892,70.335 374.964,70.600 375.135 C 70.820 375.277,84.005 375.397,99.900 375.401 L 128.800 375.408 128.805 370.604 C 128.826 348.903,129.255 262.728,129.361 258.710 C 129.561 251.166,131.638 247.641,137.083 245.603 C 139.198 244.812,140.128 244.800,200.400 244.800 L 261.570 244.800 263.885 245.652 C 266.904 246.764,269.596 249.474,270.752 252.564 L 271.600 254.830 271.600 314.963 L 271.600 375.097 275.500 375.323 C 281.258 375.657,329.514 375.419,329.878 375.056 C 330.049 374.884,330.195 331.998,330.201 279.752 L 330.213 184.760 309.860 163.280 C 298.665 151.466,287.588 139.820,285.244 137.400 C 281.820 133.864,275.959 127.696,267.200 118.408 C 262.812 113.755,258.677 109.401,255.221 105.795 C 252.900 103.372,247.749 97.972,243.775 93.795 C 239.801 89.618,232.601 82.052,227.775 76.982 C 222.949 71.913,214.961 63.498,210.024 58.282 C 201.211 48.973,200.364 48.239,199.720 49.355 " stroke="none" fill="#f3f3f3" fill-rule="evenodd"></path><path id="path2" d="M199.507 19.090 C 200.226 19.179,201.306 19.177,201.907 19.086 C 202.508 18.995,201.920 18.922,200.600 18.924 C 199.280 18.926,198.788 19.001,199.507 19.090 M206.800 20.525 C 206.800 20.624,207.461 21.209,208.268 21.825 C 209.076 22.441,209.611 22.741,209.456 22.491 C 209.140 21.979,206.800 20.247,206.800 20.525 M189.792 24.900 L 185.800 29.000 189.900 25.008 C 192.155 22.812,194.000 20.967,194.000 20.908 C 194.000 20.618,193.501 21.092,189.792 24.900 M216.200 30.000 C 217.950 31.760,219.471 33.200,219.581 33.200 C 219.691 33.200,218.350 31.760,216.600 30.000 C 214.850 28.240,213.329 26.800,213.219 26.800 C 213.109 26.800,214.450 28.240,216.200 30.000 M179.988 35.100 L 177.400 37.800 180.100 35.212 C 181.585 33.788,182.800 32.573,182.800 32.512 C 182.800 32.217,182.393 32.592,179.988 35.100 M224.600 38.800 C 226.128 40.340,227.469 41.600,227.579 41.600 C 227.689 41.600,226.528 40.340,225.000 38.800 C 223.472 37.260,222.131 36.000,222.021 36.000 C 221.911 36.000,223.072 37.260,224.600 38.800 M170.991 44.500 L 167.800 47.800 171.100 44.609 C 174.165 41.646,174.582 41.200,174.291 41.200 C 174.230 41.200,172.745 42.685,170.991 44.500 M228.800 43.310 C 228.800 43.371,230.195 44.766,231.900 46.410 L 235.000 49.400 232.010 46.300 C 229.233 43.421,228.800 43.017,228.800 43.310 M200.435 48.500 C 200.528 48.555,201.233 49.140,202.002 49.800 L 203.400 51.000 202.225 49.700 C 201.579 48.985,200.874 48.400,200.658 48.400 C 200.443 48.400,200.343 48.445,200.435 48.500 M196.191 52.900 L 193.000 56.200 196.300 53.009 C 199.365 50.046,199.782 49.600,199.491 49.600 C 199.430 49.600,197.945 51.085,196.191 52.900 M161.791 54.100 L 158.600 57.400 161.900 54.209 C 164.965 51.246,165.382 50.800,165.091 50.800 C 165.030 50.800,163.545 52.285,161.791 54.100 M239.200 54.200 C 240.617 55.630,241.867 56.800,241.977 56.800 C 242.087 56.800,241.017 55.630,239.600 54.200 C 238.183 52.770,236.933 51.600,236.823 51.600 C 236.713 51.600,237.783 52.770,239.200 54.200 M207.600 55.800 C 209.017 57.230,210.267 58.400,210.377 58.400 C 210.487 58.400,209.417 57.230,208.000 55.800 C 206.583 54.370,205.333 53.200,205.223 53.200 C 205.113 53.200,206.183 54.370,207.600 55.800 M153.392 62.900 L 149.800 66.600 153.500 63.008 C 156.936 59.672,157.382 59.200,157.092 59.200 C 157.032 59.200,155.367 60.865,153.392 62.900 M186.991 62.500 L 183.800 65.800 187.100 62.609 C 190.165 59.646,190.582 59.200,190.291 59.200 C 190.230 59.200,188.745 60.685,186.991 62.500 M247.000 62.400 C 248.306 63.720,249.465 64.800,249.575 64.800 C 249.685 64.800,248.706 63.720,247.400 62.400 C 246.094 61.080,244.935 60.000,244.825 60.000 C 244.715 60.000,245.694 61.080,247.000 62.400 M215.200 63.800 C 216.617 65.230,217.867 66.400,217.977 66.400 C 218.087 66.400,217.017 65.230,215.600 63.800 C 214.183 62.370,212.933 61.200,212.823 61.200 C 212.713 61.200,213.783 62.370,215.200 63.800 M144.192 72.500 L 140.200 76.600 144.300 72.608 C 148.108 68.899,148.582 68.400,148.292 68.400 C 148.233 68.400,146.388 70.245,144.192 72.500 M254.800 70.600 C 255.995 71.810,257.063 72.800,257.173 72.800 C 257.283 72.800,256.395 71.810,255.200 70.600 C 254.005 69.390,252.937 68.400,252.827 68.400 C 252.717 68.400,253.605 69.390,254.800 70.600 M223.000 72.000 C 224.750 73.760,226.271 75.200,226.381 75.200 C 226.491 75.200,225.150 73.760,223.400 72.000 C 221.650 70.240,220.129 68.800,220.019 68.800 C 219.909 68.800,221.250 70.240,223.000 72.000 M177.188 72.700 L 174.600 75.400 177.300 72.812 C 179.808 70.407,180.183 70.000,179.888 70.000 C 179.827 70.000,178.612 71.215,177.188 72.700 M263.000 79.200 C 264.750 80.960,266.271 82.400,266.381 82.400 C 266.491 82.400,265.150 80.960,263.400 79.200 C 261.650 77.440,260.129 76.000,260.019 76.000 C 259.909 76.000,261.250 77.440,263.000 79.200 M230.800 80.200 C 232.660 82.070,234.272 83.600,234.382 83.600 C 234.492 83.600,233.060 82.070,231.200 80.200 C 229.340 78.330,227.728 76.800,227.618 76.800 C 227.508 76.800,228.940 78.330,230.800 80.200 M135.391 81.700 L 132.200 85.000 135.500 81.809 C 138.565 78.846,138.982 78.400,138.691 78.400 C 138.630 78.400,137.145 79.885,135.391 81.700 M169.188 81.100 L 166.600 83.800 169.300 81.212 C 171.808 78.807,172.183 78.400,171.888 78.400 C 171.827 78.400,170.612 79.615,169.188 81.100 M271.000 87.600 C 272.971 89.580,274.673 91.200,274.783 91.200 C 274.893 91.200,273.371 89.580,271.400 87.600 C 269.429 85.620,267.727 84.000,267.617 84.000 C 267.507 84.000,269.029 85.620,271.000 87.600 M236.000 85.710 C 236.000 85.771,237.395 87.166,239.100 88.810 L 242.200 91.800 239.210 88.700 C 236.433 85.821,236.000 85.417,236.000 85.710 M160.391 90.300 L 157.000 93.800 160.500 90.409 C 162.425 88.544,164.000 86.969,164.000 86.909 C 164.000 86.618,163.541 87.049,160.391 90.300 M127.588 89.900 L 125.000 92.600 127.700 90.012 C 130.208 87.607,130.583 87.200,130.288 87.200 C 130.227 87.200,129.012 88.415,127.588 89.900 M279.400 96.400 C 281.150 98.160,282.671 99.600,282.781 99.600 C 282.891 99.600,281.550 98.160,279.800 96.400 C 278.050 94.640,276.529 93.200,276.419 93.200 C 276.309 93.200,277.650 94.640,279.400 96.400 M247.200 97.400 C 248.395 98.610,249.463 99.600,249.573 99.600 C 249.683 99.600,248.795 98.610,247.600 97.400 C 246.405 96.190,245.337 95.200,245.227 95.200 C 245.117 95.200,246.005 96.190,247.200 97.400 M151.600 99.400 C 149.961 101.050,148.710 102.400,148.820 102.400 C 148.930 102.400,150.361 101.050,152.000 99.400 C 153.639 97.750,154.890 96.400,154.780 96.400 C 154.670 96.400,153.239 97.750,151.600 99.400 M118.189 99.700 L 115.400 102.600 118.300 99.811 C 120.994 97.220,121.383 96.800,121.089 96.800 C 121.028 96.800,119.723 98.105,118.189 99.700 M286.800 104.200 C 288.217 105.630,289.467 106.800,289.577 106.800 C 289.687 106.800,288.617 105.630,287.200 104.200 C 285.783 102.770,284.533 101.600,284.423 101.600 C 284.313 101.600,285.383 102.770,286.800 104.200 M254.800 105.400 C 256.217 106.830,257.467 108.000,257.577 108.000 C 257.687 108.000,256.617 106.830,255.200 105.400 C 253.783 103.970,252.533 102.800,252.423 102.800 C 252.313 102.800,253.383 103.970,254.800 105.400 M142.591 108.900 L 139.400 112.200 142.700 109.009 C 145.765 106.046,146.182 105.600,145.891 105.600 C 145.830 105.600,144.345 107.085,142.591 108.900 M108.991 109.300 L 105.800 112.600 109.100 109.409 C 112.165 106.446,112.582 106.000,112.291 106.000 C 112.230 106.000,110.745 107.485,108.991 109.300 M294.400 112.200 C 295.817 113.630,297.067 114.800,297.177 114.800 C 297.287 114.800,296.217 113.630,294.800 112.200 C 293.383 110.770,292.133 109.600,292.023 109.600 C 291.913 109.600,292.983 110.770,294.400 112.200 M262.400 113.400 C 263.817 114.830,265.067 116.000,265.177 116.000 C 265.287 116.000,264.217 114.830,262.800 113.400 C 261.383 111.970,260.133 110.800,260.023 110.800 C 259.913 110.800,260.983 111.970,262.400 113.400 M100.591 118.100 L 97.400 121.400 100.700 118.209 C 102.515 116.455,104.000 114.970,104.000 114.909 C 104.000 114.618,103.554 115.035,100.591 118.100 M133.600 118.200 C 131.961 119.850,130.710 121.200,130.820 121.200 C 130.930 121.200,132.361 119.850,134.000 118.200 C 135.639 116.550,136.890 115.200,136.780 115.200 C 136.670 115.200,135.239 116.550,133.600 118.200 M302.000 120.200 C 303.417 121.630,304.667 122.800,304.777 122.800 C 304.887 122.800,303.817 121.630,302.400 120.200 C 300.983 118.770,299.733 117.600,299.623 117.600 C 299.513 117.600,300.583 118.770,302.000 120.200 M270.000 121.400 C 271.417 122.830,272.667 124.000,272.777 124.000 C 272.887 124.000,271.817 122.830,270.400 121.400 C 268.983 119.970,267.733 118.800,267.623 118.800 C 267.513 118.800,268.583 119.970,270.000 121.400 M92.189 126.900 L 89.400 129.800 92.300 127.011 C 94.994 124.420,95.383 124.000,95.089 124.000 C 95.028 124.000,93.723 125.305,92.189 126.900 M124.587 127.700 L 122.200 130.200 124.700 127.813 C 127.022 125.595,127.383 125.200,127.087 125.200 C 127.026 125.200,125.901 126.325,124.587 127.700 M310.400 129.000 C 312.260 130.870,313.872 132.400,313.982 132.400 C 314.092 132.400,312.660 130.870,310.800 129.000 C 308.940 127.130,307.328 125.600,307.218 125.600 C 307.108 125.600,308.540 127.130,310.400 129.000 M277.400 129.200 C 278.928 130.740,280.269 132.000,280.379 132.000 C 280.489 132.000,279.328 130.740,277.800 129.200 C 276.272 127.660,274.931 126.400,274.821 126.400 C 274.711 126.400,275.872 127.660,277.400 129.200 M284.400 136.600 C 286.260 138.470,287.872 140.000,287.982 140.000 C 288.092 140.000,286.660 138.470,284.800 136.600 C 282.940 134.730,281.328 133.200,281.218 133.200 C 281.108 133.200,282.540 134.730,284.400 136.600 M82.591 136.900 L 79.400 140.200 82.700 137.009 C 84.515 135.255,86.000 133.770,86.000 133.709 C 86.000 133.418,85.554 133.835,82.591 136.900 M317.800 136.800 C 319.550 138.560,321.071 140.000,321.181 140.000 C 321.291 140.000,319.950 138.560,318.200 136.800 C 316.450 135.040,314.929 133.600,314.819 133.600 C 314.709 133.600,316.050 135.040,317.800 136.800 M114.587 138.100 L 112.200 140.600 114.700 138.213 C 117.022 135.995,117.383 135.600,117.087 135.600 C 117.026 135.600,115.901 136.725,114.587 138.100 M326.000 145.400 C 327.860 147.270,329.472 148.800,329.582 148.800 C 329.692 148.800,328.260 147.270,326.400 145.400 C 324.540 143.530,322.928 142.000,322.818 142.000 C 322.708 142.000,324.140 143.530,326.000 145.400 M74.788 145.100 L 72.200 147.800 74.900 145.212 C 76.385 143.788,77.600 142.573,77.600 142.512 C 77.600 142.217,77.193 142.592,74.788 145.100 M290.400 142.910 C 290.400 142.971,291.795 144.366,293.500 146.010 L 296.600 149.000 293.610 145.900 C 290.833 143.021,290.400 142.617,290.400 142.910 M106.589 146.500 L 103.800 149.400 106.700 146.611 C 108.295 145.077,109.600 143.772,109.600 143.711 C 109.600 143.417,109.180 143.806,106.589 146.500 M300.600 153.600 C 302.128 155.140,303.469 156.400,303.579 156.400 C 303.689 156.400,302.528 155.140,301.000 153.600 C 299.472 152.060,298.131 150.800,298.021 150.800 C 297.911 150.800,299.072 152.060,300.600 153.600 M334.200 154.000 C 335.950 155.760,337.471 157.200,337.581 157.200 C 337.691 157.200,336.350 155.760,334.600 154.000 C 332.850 152.240,331.329 150.800,331.219 150.800 C 331.109 150.800,332.450 152.240,334.200 154.000 M98.392 155.100 L 94.600 159.000 98.500 155.208 C 102.122 151.686,102.582 151.200,102.292 151.200 C 102.233 151.200,100.478 152.955,98.392 155.100 M65.600 154.600 C 63.961 156.250,62.710 157.600,62.820 157.600 C 62.930 157.600,64.361 156.250,66.000 154.600 C 67.639 152.950,68.890 151.600,68.780 151.600 C 68.670 151.600,67.239 152.950,65.600 154.600 M308.200 161.600 C 309.728 163.140,311.069 164.400,311.179 164.400 C 311.289 164.400,310.128 163.140,308.600 161.600 C 307.072 160.060,305.731 158.800,305.621 158.800 C 305.511 158.800,306.672 160.060,308.200 161.600 M342.000 162.200 C 343.417 163.630,344.667 164.800,344.777 164.800 C 344.887 164.800,343.817 163.630,342.400 162.200 C 340.983 160.770,339.733 159.600,339.623 159.600 C 339.513 159.600,340.583 160.770,342.000 162.200 M56.591 164.100 L 53.400 167.400 56.700 164.209 C 58.515 162.455,60.000 160.970,60.000 160.909 C 60.000 160.618,59.554 161.035,56.591 164.100 M88.987 164.900 L 86.600 167.400 89.100 165.013 C 91.422 162.795,91.783 162.400,91.487 162.400 C 91.426 162.400,90.301 163.525,88.987 164.900 M316.000 169.800 C 317.860 171.670,319.472 173.200,319.582 173.200 C 319.692 173.200,318.260 171.670,316.400 169.800 C 314.540 167.930,312.928 166.400,312.818 166.400 C 312.708 166.400,314.140 167.930,316.000 169.800 M349.200 169.800 C 350.617 171.230,351.867 172.400,351.977 172.400 C 352.087 172.400,351.017 171.230,349.600 169.800 C 348.183 168.370,346.933 167.200,346.823 167.200 C 346.713 167.200,347.783 168.370,349.200 169.800 M80.592 173.700 L 76.600 177.800 80.700 173.808 C 84.508 170.099,84.982 169.600,84.692 169.600 C 84.633 169.600,82.788 171.445,80.592 173.700 M47.588 173.500 L 45.000 176.200 47.700 173.612 C 50.208 171.207,50.583 170.800,50.288 170.800 C 50.227 170.800,49.012 172.015,47.588 173.500 M323.400 177.600 C 325.371 179.580,327.073 181.200,327.183 181.200 C 327.293 181.200,325.771 179.580,323.800 177.600 C 321.829 175.620,320.127 174.000,320.017 174.000 C 319.907 174.000,321.429 175.620,323.400 177.600 M354.400 175.310 C 354.400 175.371,355.795 176.766,357.500 178.410 L 360.600 181.400 357.610 178.300 C 354.833 175.421,354.400 175.017,354.400 175.310 M38.592 182.900 L 35.000 186.600 38.700 183.008 C 42.136 179.672,42.582 179.200,42.292 179.200 C 42.232 179.200,40.567 180.865,38.592 182.900 M71.988 182.700 L 69.400 185.400 72.100 182.812 C 73.585 181.388,74.800 180.173,74.800 180.112 C 74.800 179.817,74.393 180.192,71.988 182.700 M328.863 183.400 C 329.667 184.280,330.411 185.360,330.516 185.800 C 330.703 186.584,330.708 186.584,330.754 185.781 C 330.781 185.293,330.113 184.323,329.100 183.381 L 327.400 181.800 328.863 183.400 M365.800 187.200 C 367.550 188.960,369.071 190.400,369.181 190.400 C 369.291 190.400,367.950 188.960,366.200 187.200 C 364.450 185.440,362.929 184.000,362.819 184.000 C 362.709 184.000,364.050 185.440,365.800 187.200 M330.101 189.000 C 330.105 189.880,330.187 190.193,330.283 189.695 C 330.379 189.198,330.375 188.478,330.275 188.095 C 330.175 187.713,330.096 188.120,330.101 189.000 M29.789 192.100 L 27.000 195.000 29.900 192.211 C 32.594 189.620,32.983 189.200,32.689 189.200 C 32.628 189.200,31.323 190.505,29.789 192.100 M70.154 195.200 C 70.154 197.950,70.218 199.075,70.296 197.700 C 70.374 196.325,70.374 194.075,70.296 192.700 C 70.218 191.325,70.154 192.450,70.154 195.200 M372.600 194.400 C 374.350 196.160,375.871 197.600,375.981 197.600 C 376.091 197.600,374.750 196.160,373.000 194.400 C 371.250 192.640,369.729 191.200,369.619 191.200 C 369.509 191.200,370.850 192.640,372.600 194.400 M20.992 201.300 L 17.400 205.000 21.100 201.408 C 23.135 199.433,24.800 197.768,24.800 197.708 C 24.800 197.418,24.328 197.864,20.992 201.300 M330.155 204.600 C 330.156 207.460,330.220 208.578,330.297 207.083 C 330.374 205.589,330.374 203.249,330.296 201.883 C 330.218 200.518,330.155 201.740,330.155 204.600 M380.800 203.000 C 382.660 204.870,384.272 206.400,384.382 206.400 C 384.492 206.400,383.060 204.870,381.200 203.000 C 379.340 201.130,377.728 199.600,377.618 199.600 C 377.508 199.600,378.940 201.130,380.800 203.000 M13.600 209.000 C 12.628 209.990,11.923 210.800,12.033 210.800 C 12.143 210.800,13.028 209.990,14.000 209.000 C 14.972 208.010,15.677 207.200,15.567 207.200 C 15.457 207.200,14.572 208.010,13.600 209.000 M386.000 208.525 C 386.000 208.594,386.585 209.179,387.300 209.825 L 388.600 211.000 387.425 209.700 C 386.330 208.488,386.000 208.216,386.000 208.525 M70.155 214.200 C 70.156 217.060,70.220 218.178,70.297 216.683 C 70.374 215.189,70.374 212.849,70.296 211.483 C 70.218 210.118,70.155 211.340,70.155 214.200 M43.982 211.902 L 42.200 213.800 44.100 212.017 L 46.000 210.233 46.099 300.017 L 46.198 389.800 46.300 300.221 C 46.356 250.952,46.258 210.498,46.083 210.323 C 45.907 210.147,44.962 210.858,43.982 211.902 M354.099 299.900 L 354.198 389.800 354.300 300.018 L 354.402 210.235 356.301 212.018 L 358.200 213.800 356.417 211.900 C 355.436 210.855,354.491 210.000,354.317 210.000 C 354.143 210.000,354.045 250.455,354.099 299.900 M37.191 219.100 L 33.800 222.600 37.300 219.209 C 40.551 216.059,40.982 215.600,40.691 215.600 C 40.631 215.600,39.056 217.175,37.191 219.100 M359.600 215.710 C 359.600 215.771,360.995 217.166,362.700 218.810 L 365.800 221.800 362.810 218.700 C 360.033 215.821,359.600 215.417,359.600 215.710 M390.509 217.600 C 390.509 218.590,390.587 218.995,390.682 218.500 C 390.778 218.005,390.778 217.195,390.682 216.700 C 390.587 216.205,390.509 216.610,390.509 217.600 M9.701 217.800 C 9.705 218.680,9.787 218.993,9.883 218.495 C 9.979 217.998,9.975 217.278,9.875 216.895 C 9.775 216.513,9.696 216.920,9.701 217.800 M330.154 223.600 C 330.154 226.350,330.218 227.475,330.296 226.100 C 330.374 224.725,330.374 222.475,330.296 221.100 C 330.218 219.725,330.154 220.850,330.154 223.600 M369.000 225.600 C 369.859 226.480,370.652 227.200,370.762 227.200 C 370.872 227.200,370.259 226.480,369.400 225.600 C 368.541 224.720,367.748 224.000,367.638 224.000 C 367.528 224.000,368.141 224.720,369.000 225.600 M387.375 225.868 C 386.759 226.676,386.459 227.211,386.709 227.056 C 387.221 226.740,388.953 224.400,388.675 224.400 C 388.576 224.400,387.991 225.061,387.375 225.868 M26.000 229.000 C 25.450 229.314,25.180 229.572,25.400 229.572 C 25.620 229.572,26.250 229.314,26.800 229.000 C 27.350 228.686,27.620 228.428,27.400 228.428 C 27.180 228.428,26.550 228.686,26.000 229.000 M70.154 233.200 C 70.154 235.950,70.218 237.075,70.296 235.700 C 70.374 234.325,70.374 232.075,70.296 230.700 C 70.218 229.325,70.154 230.450,70.154 233.200 M330.154 242.800 C 330.154 245.550,330.218 246.675,330.296 245.300 C 330.374 243.925,330.374 241.675,330.296 240.300 C 330.218 238.925,330.154 240.050,330.154 242.800 M265.800 246.652 C 266.020 246.845,266.920 247.632,267.799 248.401 L 269.398 249.800 268.199 248.466 C 267.540 247.732,266.640 246.945,266.200 246.717 C 265.760 246.489,265.580 246.460,265.800 246.652 M70.155 252.200 C 70.156 255.060,70.220 256.178,70.297 254.683 C 70.374 253.189,70.374 250.849,70.296 249.483 C 70.218 248.118,70.155 249.340,70.155 252.200 M132.755 248.300 C 131.481 249.708,130.656 250.800,130.866 250.800 C 130.957 250.800,131.708 249.990,132.535 249.000 C 134.187 247.024,134.335 246.553,132.755 248.300 M271.395 314.600 C 271.395 347.820,271.442 361.469,271.500 344.931 C 271.558 328.394,271.558 301.214,271.500 284.531 C 271.442 267.849,271.395 281.380,271.395 314.600 M330.155 261.800 C 330.156 264.660,330.220 265.778,330.297 264.283 C 330.374 262.789,330.374 260.449,330.296 259.083 C 330.218 257.718,330.155 258.940,330.155 261.800 M129.387 281.200 C 129.387 293.850,129.438 299.025,129.500 292.700 C 129.562 286.375,129.562 276.025,129.500 269.700 C 129.438 263.375,129.387 268.550,129.387 281.200 M70.155 271.400 C 70.156 274.260,70.220 275.378,70.297 273.883 C 70.374 272.389,70.374 270.049,70.296 268.683 C 70.218 267.318,70.155 268.540,70.155 271.400 M164.316 269.097 C 165.699 269.175,167.859 269.174,169.116 269.095 C 170.372 269.016,169.240 268.952,166.600 268.953 C 163.960 268.953,162.932 269.018,164.316 269.097 M183.516 269.097 C 184.899 269.175,187.059 269.174,188.316 269.095 C 189.572 269.016,188.440 268.952,185.800 268.953 C 183.160 268.953,182.132 269.018,183.516 269.097 M202.300 269.096 C 203.675 269.174,205.925 269.174,207.300 269.096 C 208.675 269.018,207.550 268.954,204.800 268.954 C 202.050 268.954,200.925 269.018,202.300 269.096 M221.516 269.097 C 222.899 269.175,225.059 269.174,226.316 269.095 C 227.572 269.016,226.440 268.952,223.800 268.953 C 221.160 268.953,220.132 269.018,221.516 269.097 M240.300 269.096 C 241.675 269.174,243.925 269.174,245.300 269.096 C 246.675 269.018,245.550 268.954,242.800 268.954 C 240.050 268.954,238.925 269.018,240.300 269.096 M153.354 280.800 C 153.354 283.550,153.418 284.675,153.496 283.300 C 153.574 281.925,153.574 279.675,153.496 278.300 C 153.418 276.925,153.354 278.050,153.354 280.800 M330.154 280.800 C 330.154 283.550,330.218 284.675,330.296 283.300 C 330.374 281.925,330.374 279.675,330.296 278.300 C 330.218 276.925,330.154 278.050,330.154 280.800 M70.154 290.400 C 70.154 293.150,70.218 294.275,70.296 292.900 C 70.374 291.525,70.374 289.275,70.296 287.900 C 70.218 286.525,70.154 287.650,70.154 290.400 M330.155 299.800 C 330.156 302.660,330.220 303.778,330.297 302.283 C 330.374 300.789,330.374 298.449,330.296 297.083 C 330.218 295.718,330.155 296.940,330.155 299.800 M70.155 309.400 C 70.156 312.260,70.220 313.378,70.297 311.883 C 70.374 310.389,70.374 308.049,70.296 306.683 C 70.218 305.318,70.155 306.540,70.155 309.400 M330.154 318.800 C 330.154 321.550,330.218 322.675,330.296 321.300 C 330.374 319.925,330.374 317.675,330.296 316.300 C 330.218 314.925,330.154 316.050,330.154 318.800 M70.154 328.400 C 70.154 331.150,70.218 332.275,70.296 330.900 C 70.374 329.525,70.374 327.275,70.296 325.900 C 70.218 324.525,70.154 325.650,70.154 328.400 M152.990 353.400 C 152.990 369.900,153.039 376.708,153.100 368.530 C 153.160 360.351,153.160 346.851,153.100 338.530 C 153.039 330.208,152.990 336.900,152.990 353.400 M128.953 328.600 C 128.953 331.240,129.018 332.268,129.097 330.884 C 129.175 329.501,129.174 327.341,129.095 326.084 C 129.016 324.828,128.952 325.960,128.953 328.600 M330.154 338.000 C 330.154 340.750,330.218 341.875,330.296 340.500 C 330.374 339.125,330.374 336.875,330.296 335.500 C 330.218 334.125,330.154 335.250,330.154 338.000 M128.983 358.200 C 128.983 367.660,129.036 371.473,129.100 366.673 C 129.164 361.873,129.163 354.133,129.099 349.473 C 129.036 344.813,128.983 348.740,128.983 358.200 M70.155 347.400 C 70.156 350.260,70.220 351.378,70.297 349.883 C 70.374 348.389,70.374 346.049,70.296 344.683 C 70.218 343.318,70.155 344.540,70.155 347.400 M330.155 357.000 C 330.156 359.860,330.220 360.978,330.297 359.483 C 330.374 357.989,330.374 355.649,330.296 354.283 C 330.218 352.918,330.155 354.140,330.155 357.000 M70.155 366.600 C 70.156 369.460,70.220 370.578,70.297 369.083 C 70.374 367.589,70.374 365.249,70.296 363.883 C 70.218 362.518,70.155 363.740,70.155 366.600 M330.000 373.183 L 330.000 375.166 326.900 375.303 L 323.800 375.439 327.100 375.520 L 330.400 375.600 330.400 373.400 C 330.400 372.190,330.310 371.200,330.200 371.200 C 330.090 371.200,330.000 372.092,330.000 373.183 M78.716 375.497 C 80.099 375.575,82.259 375.574,83.516 375.495 C 84.772 375.416,83.640 375.352,81.000 375.353 C 78.360 375.353,77.332 375.418,78.716 375.497 M97.916 375.497 C 99.299 375.575,101.459 375.574,102.716 375.495 C 103.972 375.416,102.840 375.352,100.200 375.353 C 97.560 375.353,96.532 375.418,97.916 375.497 M116.716 375.497 C 118.099 375.575,120.259 375.574,121.516 375.495 C 122.772 375.416,121.640 375.352,119.000 375.353 C 116.360 375.353,115.332 375.418,116.716 375.497 M272.707 375.490 C 273.426 375.579,274.506 375.577,275.107 375.486 C 275.708 375.395,275.120 375.322,273.800 375.324 C 272.480 375.326,271.988 375.401,272.707 375.490 M288.316 375.497 C 289.699 375.575,291.859 375.574,293.116 375.495 C 294.372 375.416,293.240 375.352,290.600 375.353 C 287.960 375.353,286.932 375.418,288.316 375.497 M307.116 375.497 C 308.499 375.575,310.659 375.574,311.916 375.495 C 313.172 375.416,312.040 375.352,309.400 375.353 C 306.760 375.353,305.732 375.418,307.116 375.497 M350.575 396.100 L 349.400 397.400 350.700 396.225 C 351.415 395.579,352.000 394.994,352.000 394.925 C 352.000 394.616,351.670 394.888,350.575 396.100 M69.100 399.496 C 70.475 399.574,72.725 399.574,74.100 399.496 C 75.475 399.418,74.350 399.354,71.600 399.354 C 68.850 399.354,67.725 399.418,69.100 399.496 M87.900 399.496 C 89.275 399.574,91.525 399.574,92.900 399.496 C 94.275 399.418,93.150 399.354,90.400 399.354 C 87.650 399.354,86.525 399.418,87.900 399.496 M107.100 399.496 C 108.475 399.574,110.725 399.574,112.100 399.496 C 113.475 399.418,112.350 399.354,109.600 399.354 C 106.850 399.354,105.725 399.418,107.100 399.496 M126.117 399.497 C 127.611 399.574,129.951 399.574,131.317 399.496 C 132.682 399.418,131.460 399.355,128.600 399.355 C 125.740 399.356,124.622 399.420,126.117 399.497 M259.500 399.496 C 260.875 399.574,263.125 399.574,264.500 399.496 C 265.875 399.418,264.750 399.354,262.000 399.354 C 259.250 399.354,258.125 399.418,259.500 399.496 M278.517 399.497 C 280.011 399.574,282.351 399.574,283.717 399.496 C 285.082 399.418,283.860 399.355,281.000 399.355 C 278.140 399.356,277.022 399.420,278.517 399.497 M297.500 399.496 C 298.875 399.574,301.125 399.574,302.500 399.496 C 303.875 399.418,302.750 399.354,300.000 399.354 C 297.250 399.354,296.125 399.418,297.500 399.496 M316.700 399.496 C 318.075 399.574,320.325 399.574,321.700 399.496 C 323.075 399.418,321.950 399.354,319.200 399.354 C 316.450 399.354,315.325 399.418,316.700 399.496 M336.118 399.498 C 337.833 399.573,340.533 399.572,342.118 399.497 C 343.703 399.421,342.300 399.359,339.000 399.360 C 335.700 399.361,334.403 399.422,336.118 399.498 " stroke="none" fill="#919191" fill-rule="evenodd"></path><path id="path3" d="M210.000 23.800 C 211.195 25.010,212.263 26.000,212.373 26.000 C 212.483 26.000,211.595 25.010,210.400 23.800 C 209.205 22.590,208.137 21.600,208.027 21.600 C 207.917 21.600,208.805 22.590,210.000 23.800 M187.591 27.500 L 184.200 31.000 187.700 27.609 C 189.625 25.744,191.200 24.169,191.200 24.109 C 191.200 23.818,190.741 24.249,187.591 27.500 M214.000 28.110 C 214.000 28.171,215.395 29.566,217.100 31.210 L 220.200 34.200 217.210 31.100 C 214.433 28.221,214.000 27.817,214.000 28.110 M179.389 36.100 L 176.600 39.000 179.500 36.211 C 182.194 33.620,182.583 33.200,182.289 33.200 C 182.228 33.200,180.923 34.505,179.389 36.100 M224.800 39.400 C 226.217 40.830,227.467 42.000,227.577 42.000 C 227.687 42.000,226.617 40.830,225.200 39.400 C 223.783 37.970,222.533 36.800,222.423 36.800 C 222.313 36.800,223.383 37.970,224.800 39.400 M170.391 45.500 L 167.000 49.000 170.500 45.609 C 172.425 43.744,174.000 42.169,174.000 42.109 C 174.000 41.818,173.541 42.249,170.391 45.500 M232.400 47.400 C 233.595 48.610,234.663 49.600,234.773 49.600 C 234.883 49.600,233.995 48.610,232.800 47.400 C 231.605 46.190,230.537 45.200,230.427 45.200 C 230.317 45.200,231.205 46.190,232.400 47.400 M196.987 51.700 L 194.600 54.200 197.100 51.813 C 199.422 49.595,199.783 49.200,199.487 49.200 C 199.426 49.200,198.301 50.325,196.987 51.700 M161.600 54.600 C 159.961 56.250,158.710 57.600,158.820 57.600 C 158.930 57.600,160.361 56.250,162.000 54.600 C 163.639 52.950,164.890 51.600,164.780 51.600 C 164.670 51.600,163.239 52.950,161.600 54.600 M206.600 54.400 C 208.128 55.940,209.469 57.200,209.579 57.200 C 209.689 57.200,208.528 55.940,207.000 54.400 C 205.472 52.860,204.131 51.600,204.021 51.600 C 203.911 51.600,205.072 52.860,206.600 54.400 M240.200 55.600 C 241.728 57.140,243.069 58.400,243.179 58.400 C 243.289 58.400,242.128 57.140,240.600 55.600 C 239.072 54.060,237.731 52.800,237.621 52.800 C 237.511 52.800,238.672 54.060,240.200 55.600 M187.600 61.400 C 185.961 63.050,184.710 64.400,184.820 64.400 C 184.930 64.400,186.361 63.050,188.000 61.400 C 189.639 59.750,190.890 58.400,190.780 58.400 C 190.670 58.400,189.239 59.750,187.600 61.400 M214.200 62.400 C 215.506 63.720,216.665 64.800,216.775 64.800 C 216.885 64.800,215.906 63.720,214.600 62.400 C 213.294 61.080,212.135 60.000,212.025 60.000 C 211.915 60.000,212.894 61.080,214.200 62.400 M247.800 63.600 C 249.328 65.140,250.669 66.400,250.779 66.400 C 250.889 66.400,249.728 65.140,248.200 63.600 C 246.672 62.060,245.331 60.800,245.221 60.800 C 245.111 60.800,246.272 62.060,247.800 63.600 M151.988 64.700 L 149.400 67.400 152.100 64.812 C 154.608 62.407,154.983 62.000,154.688 62.000 C 154.627 62.000,153.412 63.215,151.988 64.700 M178.791 70.700 L 175.400 74.200 178.900 70.809 C 180.825 68.944,182.400 67.369,182.400 67.309 C 182.400 67.018,181.941 67.449,178.791 70.700 M222.200 70.800 C 223.506 72.120,224.665 73.200,224.775 73.200 C 224.885 73.200,223.906 72.120,222.600 70.800 C 221.294 69.480,220.135 68.400,220.025 68.400 C 219.915 68.400,220.894 69.480,222.200 70.800 M255.800 72.000 C 257.771 73.980,259.473 75.600,259.583 75.600 C 259.693 75.600,258.171 73.980,256.200 72.000 C 254.229 70.020,252.527 68.400,252.417 68.400 C 252.307 68.400,253.829 70.020,255.800 72.000 M143.391 73.700 L 140.200 77.000 143.500 73.809 C 146.565 70.846,146.982 70.400,146.691 70.400 C 146.630 70.400,145.145 71.885,143.391 73.700 M170.400 79.400 C 168.761 81.050,167.510 82.400,167.620 82.400 C 167.730 82.400,169.161 81.050,170.800 79.400 C 172.439 77.750,173.690 76.400,173.580 76.400 C 173.470 76.400,172.039 77.750,170.400 79.400 M230.600 79.600 C 232.350 81.360,233.871 82.800,233.981 82.800 C 234.091 82.800,232.750 81.360,231.000 79.600 C 229.250 77.840,227.729 76.400,227.619 76.400 C 227.509 76.400,228.850 77.840,230.600 79.600 M263.400 80.000 C 265.150 81.760,266.671 83.200,266.781 83.200 C 266.891 83.200,265.550 81.760,263.800 80.000 C 262.050 78.240,260.529 76.800,260.419 76.800 C 260.309 76.800,261.650 78.240,263.400 80.000 M134.189 83.300 L 131.400 86.200 134.300 83.411 C 136.994 80.820,137.383 80.400,137.089 80.400 C 137.028 80.400,135.723 81.705,134.189 83.300 M234.800 84.110 C 234.800 84.171,236.195 85.566,237.900 87.210 L 241.000 90.200 238.010 87.100 C 235.233 84.221,234.800 83.817,234.800 84.110 M271.400 88.400 C 273.150 90.160,274.671 91.600,274.781 91.600 C 274.891 91.600,273.550 90.160,271.800 88.400 C 270.050 86.640,268.529 85.200,268.419 85.200 C 268.309 85.200,269.650 86.640,271.400 88.400 M161.191 89.100 L 157.800 92.600 161.300 89.209 C 163.225 87.344,164.800 85.769,164.800 85.709 C 164.800 85.418,164.341 85.849,161.191 89.100 M125.991 91.900 L 122.600 95.400 126.100 92.009 C 128.025 90.144,129.600 88.569,129.600 88.509 C 129.600 88.218,129.141 88.649,125.991 91.900 M245.000 94.800 C 246.306 96.120,247.465 97.200,247.575 97.200 C 247.685 97.200,246.706 96.120,245.400 94.800 C 244.094 93.480,242.935 92.400,242.825 92.400 C 242.715 92.400,243.694 93.480,245.000 94.800 M279.000 96.400 C 280.750 98.160,282.271 99.600,282.381 99.600 C 282.491 99.600,281.150 98.160,279.400 96.400 C 277.650 94.640,276.129 93.200,276.019 93.200 C 275.909 93.200,277.250 94.640,279.000 96.400 M151.600 99.000 C 149.961 100.650,148.710 102.000,148.820 102.000 C 148.930 102.000,150.361 100.650,152.000 99.000 C 153.639 97.350,154.890 96.000,154.780 96.000 C 154.670 96.000,153.239 97.350,151.600 99.000 M117.200 101.000 C 115.561 102.650,114.310 104.000,114.420 104.000 C 114.530 104.000,115.961 102.650,117.600 101.000 C 119.239 99.350,120.490 98.000,120.380 98.000 C 120.270 98.000,118.839 99.350,117.200 101.000 M253.400 103.600 C 255.150 105.360,256.671 106.800,256.781 106.800 C 256.891 106.800,255.550 105.360,253.800 103.600 C 252.050 101.840,250.529 100.400,250.419 100.400 C 250.309 100.400,251.650 101.840,253.400 103.600 M287.800 105.600 C 289.328 107.140,290.669 108.400,290.779 108.400 C 290.889 108.400,289.728 107.140,288.200 105.600 C 286.672 104.060,285.331 102.800,285.221 102.800 C 285.111 102.800,286.272 104.060,287.800 105.600 M143.191 107.900 L 139.800 111.400 143.300 108.009 C 146.551 104.859,146.982 104.400,146.691 104.400 C 146.631 104.400,145.056 105.975,143.191 107.900 M108.392 110.300 L 104.600 114.200 108.500 110.408 C 112.122 106.886,112.582 106.400,112.292 106.400 C 112.233 106.400,110.478 108.155,108.392 110.300 M258.400 108.910 C 258.400 108.971,259.795 110.366,261.500 112.010 L 264.600 115.000 261.610 111.900 C 258.833 109.021,258.400 108.617,258.400 108.910 M295.000 113.200 C 296.528 114.740,297.869 116.000,297.979 116.000 C 298.089 116.000,296.928 114.740,295.400 113.200 C 293.872 111.660,292.531 110.400,292.421 110.400 C 292.311 110.400,293.472 111.660,295.000 113.200 M134.589 116.900 L 131.800 119.800 134.700 117.011 C 137.394 114.420,137.783 114.000,137.489 114.000 C 137.428 114.000,136.123 115.305,134.589 116.900 M99.392 119.700 L 95.800 123.400 99.500 119.808 C 102.936 116.472,103.382 116.000,103.092 116.000 C 103.032 116.000,101.367 117.665,99.392 119.700 M269.000 120.000 C 270.750 121.760,272.271 123.200,272.381 123.200 C 272.491 123.200,271.150 121.760,269.400 120.000 C 267.650 118.240,266.129 116.800,266.019 116.800 C 265.909 116.800,267.250 118.240,269.000 120.000 M303.000 121.600 C 304.750 123.360,306.271 124.800,306.381 124.800 C 306.491 124.800,305.150 123.360,303.400 121.600 C 301.650 119.840,300.129 118.400,300.019 118.400 C 299.909 118.400,301.250 119.840,303.000 121.600 M125.991 125.900 L 122.600 129.400 126.100 126.009 C 129.351 122.859,129.782 122.400,129.491 122.400 C 129.431 122.400,127.856 123.975,125.991 125.900 M90.591 128.900 L 87.400 132.200 90.700 129.009 C 92.515 127.255,94.000 125.770,94.000 125.709 C 94.000 125.418,93.554 125.835,90.591 128.900 M277.400 128.800 C 278.928 130.340,280.269 131.600,280.379 131.600 C 280.489 131.600,279.328 130.340,277.800 128.800 C 276.272 127.260,274.931 126.000,274.821 126.000 C 274.711 126.000,275.872 127.260,277.400 128.800 M308.000 126.910 C 308.000 126.971,309.395 128.366,311.100 130.010 L 314.200 133.000 311.210 129.900 C 308.433 127.021,308.000 126.617,308.000 126.910 M117.389 134.900 L 114.600 137.800 117.500 135.011 C 120.194 132.420,120.583 132.000,120.289 132.000 C 120.228 132.000,118.923 133.305,117.389 134.900 M284.600 136.400 C 286.128 137.940,287.469 139.200,287.579 139.200 C 287.689 139.200,286.528 137.940,285.000 136.400 C 283.472 134.860,282.131 133.600,282.021 133.600 C 281.911 133.600,283.072 134.860,284.600 136.400 M81.600 138.200 C 79.961 139.850,78.710 141.200,78.820 141.200 C 78.930 141.200,80.361 139.850,82.000 138.200 C 83.639 136.550,84.890 135.200,84.780 135.200 C 84.670 135.200,83.239 136.550,81.600 138.200 M316.000 135.310 C 316.000 135.371,317.395 136.766,319.100 138.410 L 322.200 141.400 319.210 138.300 C 316.433 135.421,316.000 135.017,316.000 135.310 M107.392 145.300 L 103.800 149.000 107.500 145.408 C 110.936 142.072,111.382 141.600,111.092 141.600 C 111.032 141.600,109.367 143.265,107.392 145.300 M292.000 144.200 C 293.417 145.630,294.667 146.800,294.777 146.800 C 294.887 146.800,293.817 145.630,292.400 144.200 C 290.983 142.770,289.733 141.600,289.623 141.600 C 289.513 141.600,290.583 142.770,292.000 144.200 M326.200 146.000 C 327.950 147.760,329.471 149.200,329.581 149.200 C 329.691 149.200,328.350 147.760,326.600 146.000 C 324.850 144.240,323.329 142.800,323.219 142.800 C 323.109 142.800,324.450 144.240,326.200 146.000 M72.386 147.900 L 70.200 150.200 72.500 148.014 C 74.637 145.982,74.983 145.600,74.686 145.600 C 74.624 145.600,73.589 146.635,72.386 147.900 M299.800 152.400 C 301.106 153.720,302.265 154.800,302.375 154.800 C 302.485 154.800,301.506 153.720,300.200 152.400 C 298.894 151.080,297.735 150.000,297.625 150.000 C 297.515 150.000,298.494 151.080,299.800 152.400 M98.991 154.100 L 95.800 157.400 99.100 154.209 C 100.915 152.455,102.400 150.970,102.400 150.909 C 102.400 150.618,101.954 151.035,98.991 154.100 M334.600 154.800 C 335.906 156.120,337.065 157.200,337.175 157.200 C 337.285 157.200,336.306 156.120,335.000 154.800 C 333.694 153.480,332.535 152.400,332.425 152.400 C 332.315 152.400,333.294 153.480,334.600 154.800 M64.388 156.300 L 61.800 159.000 64.500 156.412 C 65.985 154.988,67.200 153.773,67.200 153.712 C 67.200 153.417,66.793 153.792,64.388 156.300 M308.000 161.000 C 309.195 162.210,310.263 163.200,310.373 163.200 C 310.483 163.200,309.595 162.210,308.400 161.000 C 307.205 159.790,306.137 158.800,306.027 158.800 C 305.917 158.800,306.805 159.790,308.000 161.000 M89.591 163.900 L 86.200 167.400 89.700 164.009 C 92.951 160.859,93.382 160.400,93.091 160.400 C 93.031 160.400,91.456 161.975,89.591 163.900 M342.200 162.800 C 343.506 164.120,344.665 165.200,344.775 165.200 C 344.885 165.200,343.906 164.120,342.600 162.800 C 341.294 161.480,340.135 160.400,340.025 160.400 C 339.915 160.400,340.894 161.480,342.200 162.800 M55.792 165.300 L 52.200 169.000 55.900 165.408 C 59.336 162.072,59.782 161.600,59.492 161.600 C 59.432 161.600,57.767 163.265,55.792 165.300 M312.800 166.110 C 312.800 166.171,314.195 167.566,315.900 169.210 L 319.000 172.200 316.010 169.100 C 313.233 166.221,312.800 165.817,312.800 166.110 M350.200 171.200 C 351.728 172.740,353.069 174.000,353.179 174.000 C 353.289 174.000,352.128 172.740,350.600 171.200 C 349.072 169.660,347.731 168.400,347.621 168.400 C 347.511 168.400,348.672 169.660,350.200 171.200 M80.992 172.900 L 77.400 176.600 81.100 173.008 C 83.135 171.033,84.800 169.368,84.800 169.308 C 84.800 169.018,84.328 169.464,80.992 172.900 M46.991 174.500 L 43.800 177.800 47.100 174.609 C 48.915 172.855,50.400 171.370,50.400 171.309 C 50.400 171.018,49.954 171.435,46.991 174.500 M323.400 177.200 C 325.150 178.960,326.671 180.400,326.781 180.400 C 326.891 180.400,325.550 178.960,323.800 177.200 C 322.050 175.440,320.529 174.000,320.419 174.000 C 320.309 174.000,321.650 175.440,323.400 177.200 M357.400 178.800 C 358.928 180.340,360.269 181.600,360.379 181.600 C 360.489 181.600,359.328 180.340,357.800 178.800 C 356.272 177.260,354.931 176.000,354.821 176.000 C 354.711 176.000,355.872 177.260,357.400 178.800 M72.400 181.800 C 70.761 183.450,69.510 184.800,69.620 184.800 C 69.730 184.800,71.161 183.450,72.800 181.800 C 74.439 180.150,75.690 178.800,75.580 178.800 C 75.470 178.800,74.039 180.150,72.400 181.800 M37.791 184.100 L 34.600 187.400 37.900 184.209 C 39.715 182.455,41.200 180.970,41.200 180.909 C 41.200 180.618,40.754 181.035,37.791 184.100 M329.052 183.200 C 329.961 184.190,330.801 185.270,330.920 185.600 C 331.109 186.122,331.141 186.120,331.168 185.583 C 331.186 185.244,330.345 184.164,329.300 183.183 L 327.400 181.400 329.052 183.200 M362.800 184.510 C 362.800 184.571,364.195 185.966,365.900 187.610 L 369.000 190.600 366.010 187.500 C 363.233 184.621,362.800 184.217,362.800 184.510 M69.797 281.000 C 69.797 332.920,69.843 354.101,69.900 328.068 C 69.957 302.035,69.957 259.555,69.900 233.668 C 69.843 207.781,69.797 229.080,69.797 281.000 M330.597 281.200 C 330.597 333.230,330.643 354.515,330.700 328.500 C 330.757 302.485,330.757 259.915,330.700 233.900 C 330.643 207.885,330.597 229.170,330.597 281.200 M28.991 193.300 L 25.800 196.600 29.100 193.409 C 30.915 191.655,32.400 190.170,32.400 190.109 C 32.400 189.818,31.954 190.235,28.991 193.300 M373.400 195.600 C 375.150 197.360,376.671 198.800,376.781 198.800 C 376.891 198.800,375.550 197.360,373.800 195.600 C 372.050 193.840,370.529 192.400,370.419 192.400 C 370.309 192.400,371.650 193.840,373.400 195.600 M19.787 202.900 L 17.400 205.400 19.900 203.013 C 21.275 201.699,22.400 200.574,22.400 200.513 C 22.400 200.217,22.005 200.578,19.787 202.900 M381.000 203.600 C 382.750 205.360,384.271 206.800,384.381 206.800 C 384.491 206.800,383.150 205.360,381.400 203.600 C 379.650 201.840,378.129 200.400,378.019 200.400 C 377.909 200.400,379.250 201.840,381.000 203.600 M13.178 209.900 L 11.800 211.400 13.300 210.022 C 14.696 208.738,14.984 208.400,14.678 208.400 C 14.612 208.400,13.937 209.075,13.178 209.900 M386.000 208.925 C 386.000 208.994,386.585 209.579,387.300 210.225 L 388.600 211.400 387.425 210.100 C 386.330 208.888,386.000 208.616,386.000 208.925 M354.035 209.700 C 354.128 209.755,354.833 210.340,355.602 211.000 L 357.000 212.200 355.825 210.900 C 355.179 210.185,354.474 209.600,354.258 209.600 C 354.043 209.600,353.943 209.645,354.035 209.700 M44.175 211.300 L 43.000 212.600 44.300 211.425 C 45.512 210.330,45.784 210.000,45.475 210.000 C 45.406 210.000,44.821 210.585,44.175 211.300 M37.392 218.500 L 33.800 222.200 37.500 218.608 C 40.936 215.272,41.382 214.800,41.092 214.800 C 41.032 214.800,39.367 216.465,37.392 218.500 M362.000 217.800 C 363.417 219.230,364.667 220.400,364.777 220.400 C 364.887 220.400,363.817 219.230,362.400 217.800 C 360.983 216.370,359.733 215.200,359.623 215.200 C 359.513 215.200,360.583 216.370,362.000 217.800 M369.183 225.300 C 370.164 226.345,371.019 227.200,371.083 227.200 C 371.384 227.200,371.066 226.841,369.300 225.183 L 367.400 223.400 369.183 225.300 M141.105 245.083 C 141.602 245.179,142.322 245.175,142.705 245.075 C 143.087 244.975,142.680 244.896,141.800 244.901 C 140.920 244.905,140.607 244.987,141.105 245.083 M154.517 245.097 C 156.011 245.174,158.351 245.174,159.717 245.096 C 161.082 245.018,159.860 244.955,157.000 244.955 C 154.140 244.956,153.022 245.020,154.517 245.097 M173.717 245.097 C 175.211 245.174,177.551 245.174,178.917 245.096 C 180.282 245.018,179.060 244.955,176.200 244.955 C 173.340 244.956,172.222 245.020,173.717 245.097 M192.917 245.097 C 194.411 245.174,196.751 245.174,198.117 245.096 C 199.482 245.018,198.260 244.955,195.400 244.955 C 192.540 244.956,191.422 245.020,192.917 245.097 M211.717 245.097 C 213.211 245.174,215.551 245.174,216.917 245.096 C 218.282 245.018,217.060 244.955,214.200 244.955 C 211.340 244.956,210.222 245.020,211.717 245.097 M230.917 245.097 C 232.411 245.174,234.751 245.174,236.117 245.096 C 237.482 245.018,236.260 244.955,233.400 244.955 C 230.540 244.956,229.422 245.020,230.917 245.097 M249.900 245.096 C 251.275 245.174,253.525 245.174,254.900 245.096 C 256.275 245.018,255.150 244.954,252.400 244.954 C 249.650 244.954,248.525 245.018,249.900 245.096 M135.900 246.229 C 134.349 247.070,134.525 247.361,136.100 246.559 C 137.608 245.793,137.875 245.594,137.367 245.616 C 137.165 245.625,136.505 245.901,135.900 246.229 M132.975 248.500 L 131.800 249.800 133.100 248.625 C 134.312 247.530,134.584 247.200,134.275 247.200 C 134.206 247.200,133.621 247.785,132.975 248.500 M267.600 248.600 C 268.346 249.370,269.047 250.000,269.157 250.000 C 269.267 250.000,268.746 249.370,268.000 248.600 C 267.254 247.830,266.553 247.200,266.443 247.200 C 266.333 247.200,266.854 247.830,267.600 248.600 M152.983 268.900 C 152.878 269.175,152.840 277.770,152.900 288.000 L 153.008 306.600 153.104 287.702 L 153.200 268.803 200.500 268.700 L 247.800 268.597 200.487 268.498 C 162.934 268.420,153.135 268.503,152.983 268.900 M129.388 336.600 C 129.388 350.020,129.438 355.452,129.500 348.671 C 129.561 341.890,129.561 330.910,129.500 324.271 C 129.438 317.632,129.388 323.180,129.388 336.600 " stroke="none" fill="#747474" fill-rule="evenodd"></path><path id="path4" d="M337.200 157.325 C 337.200 157.394,337.785 157.979,338.500 158.625 L 339.800 159.800 338.625 158.500 C 337.530 157.288,337.200 157.016,337.200 157.325 M145.300 245.096 C 146.565 245.175,148.635 245.175,149.900 245.096 C 151.165 245.016,150.130 244.951,147.600 244.951 C 145.070 244.951,144.035 245.016,145.300 245.096 M164.316 245.097 C 165.699 245.175,167.859 245.174,169.116 245.095 C 170.372 245.016,169.240 244.952,166.600 244.953 C 163.960 244.953,162.932 245.018,164.316 245.097 M183.516 245.097 C 184.899 245.175,187.059 245.174,188.316 245.095 C 189.572 245.016,188.440 244.952,185.800 244.953 C 183.160 244.953,182.132 245.018,183.516 245.097 M202.500 245.096 C 203.765 245.175,205.835 245.175,207.100 245.096 C 208.365 245.016,207.330 244.951,204.800 244.951 C 202.270 244.951,201.235 245.016,202.500 245.096 M221.516 245.097 C 222.899 245.175,225.059 245.174,226.316 245.095 C 227.572 245.016,226.440 244.952,223.800 244.953 C 221.160 244.953,220.132 245.018,221.516 245.097 M240.716 245.097 C 242.099 245.175,244.259 245.174,245.516 245.095 C 246.772 245.016,245.640 244.952,243.000 244.953 C 240.360 244.953,239.332 245.018,240.716 245.097 M257.900 245.082 C 258.395 245.178,259.205 245.178,259.700 245.082 C 260.195 244.987,259.790 244.909,258.800 244.909 C 257.810 244.909,257.405 244.987,257.900 245.082 M129.350 308.200 C 129.351 310.620,129.416 311.558,129.496 310.285 C 129.576 309.012,129.575 307.032,129.494 305.885 C 129.414 304.738,129.349 305.780,129.350 308.200 M152.970 315.000 C 152.971 319.840,153.029 321.765,153.099 319.278 C 153.169 316.791,153.169 312.831,153.098 310.478 C 153.028 308.125,152.970 310.160,152.970 315.000 M60.100 399.496 C 61.365 399.575,63.435 399.575,64.700 399.496 C 65.965 399.416,64.930 399.351,62.400 399.351 C 59.870 399.351,58.835 399.416,60.100 399.496 M78.716 399.497 C 80.099 399.575,82.259 399.574,83.516 399.495 C 84.772 399.416,83.640 399.352,81.000 399.353 C 78.360 399.353,77.332 399.418,78.716 399.497 M97.500 399.496 C 98.875 399.574,101.125 399.574,102.500 399.496 C 103.875 399.418,102.750 399.354,100.000 399.354 C 97.250 399.354,96.125 399.418,97.500 399.496 M116.716 399.497 C 118.099 399.575,120.259 399.574,121.516 399.495 C 122.772 399.416,121.640 399.352,119.000 399.353 C 116.360 399.353,115.332 399.418,116.716 399.497 M135.513 399.495 C 136.676 399.576,138.476 399.576,139.513 399.493 C 140.551 399.411,139.600 399.345,137.400 399.346 C 135.200 399.347,134.351 399.414,135.513 399.495 M269.116 399.497 C 270.499 399.575,272.659 399.574,273.916 399.495 C 275.172 399.416,274.040 399.352,271.400 399.353 C 268.760 399.353,267.732 399.418,269.116 399.497 M288.316 399.497 C 289.699 399.575,291.859 399.574,293.116 399.495 C 294.372 399.416,293.240 399.352,290.600 399.353 C 287.960 399.353,286.932 399.418,288.316 399.497 M307.100 399.496 C 308.475 399.574,310.725 399.574,312.100 399.496 C 313.475 399.418,312.350 399.354,309.600 399.354 C 306.850 399.354,305.725 399.418,307.100 399.496 M326.316 399.497 C 327.699 399.575,329.859 399.574,331.116 399.495 C 332.372 399.416,331.240 399.352,328.600 399.353 C 325.960 399.353,324.932 399.418,326.316 399.497 " stroke="none" fill="#7c7c7c" fill-rule="evenodd"></path></g></svg>