<svg id="outline" height="512" viewBox="0 0 512 512" width="512" xmlns="http://www.w3.org/2000/svg"><path d="m488 320a8.00008 8.00008 0 0 0 8-8v-32a8.00008 8.00008 0 0 0 -8-8h-35.18164a63.67022 63.67022 0 0 1 -51.709-26.61133 70.27619 70.27619 0 0 0 -33.10936-25.13574v-20.25293a8.00008 8.00008 0 0 0 -8-8h-32a8.00008 8.00008 0 0 0 -8 8v20.25293a70.27347 70.27347 0 0 0 -33.10938 25.13672 63.67193 63.67193 0 0 1 -51.70898 26.61035h-35.18164a8.00008 8.00008 0 0 0 -8 8v32a8.00008 8.00008 0 0 0 8 8h27.05566l-16 32h-11.05566a8.00008 8.00008 0 0 0 -8 8v4a52 52 0 0 0 104 0v-4a8.00008 8.00008 0 0 0 -8-8h-11.05566l-16-32h27.05566a8.00907 8.00907 0 0 0 4.11621-1.13965l26.27979-15.76855q.79375-.47608 1.604-.91944v127.40576l-12.28125 18.42188h-27.71875a7.99967 7.99967 0 0 0 -7.15527 4.42188l-16 32a8 8 0 0 0 7.15527 11.57812h160a8 8 0 0 0 7.15527-11.57812l-16-32a7.99967 7.99967 0 0 0 -7.15527-4.42188h-27.71875l-12.28125-18.42188v-127.40551c.53918.29687 1.07446.6018 1.60352.91919l26.28027 15.76855a8.00907 8.00907 0 0 0 4.11621 1.13965h27.05566l-16 32h-11.05566a8.00008 8.00008 0 0 0 -8 8v4a52 52 0 0 0 104 0v-4a8.00008 8.00008 0 0 0 -8-8h-11.05566l-16-32zm-152-112h16v8.46484a69.07331 69.07331 0 0 0 -16 0zm-92 192a36.05335 36.05335 0 0 1 -35.7793-32h71.5586a36.05335 36.05335 0 0 1 -35.7793 32zm-15.05566-48 15.05566-30.11133 15.05566 30.11133zm182.11132 128h-134.11132l8-16h118.11132zm-57.71191-43.5625 7.70825 11.5625h-34.104l7.70825-11.5625a7.99836 7.99836 0 0 0 1.34375-4.4375v-135.34741a49.36168 49.36168 0 0 1 16 0v135.34741a7.99836 7.99836 0 0 0 1.34375 4.4375zm24.49219-147.06641h-.00049a65.76991 65.76991 0 0 0 -67.67139 0l-24.37988 14.62891h-77.78418v-16h27.18164a79.70259 79.70259 0 0 0 64.72852-33.31055 54.1828 54.1828 0 0 1 88.17968-.001 79.7009 79.7009 0 0 0 64.72852 33.31155h27.18164v16h-77.78418zm66.16406 110.62891a36.05335 36.05335 0 0 1 -35.7793-32h71.5586a36.05335 36.05335 0 0 1 -35.7793 32zm-15.05566-48 15.05566-30.11133 15.05566 30.11133z"/><circle cx="344" cy="256" r="16"/><path d="m152 80h80v16h-80z"/><path d="m112 80h16v16h-16z"/><path d="m160 136h72v16h-72z"/><path d="m72 136h72v16h-72z"/><path d="m200 192h104v16h-104z"/><path d="m120 192h64v16h-64z"/><path d="m72 192h32v16h-32z"/><path d="m72 248h104v16h-104z"/><path d="m128 304h48v16h-48z"/><path d="m72 304h32v16h-32z"/><path d="m72 360h104v16h-104z"/><path d="m136 416h72v16h-72z"/><path d="m72 416h48v16h-48z"/><path d="m40 496h200v-16h-200a8.00917 8.00917 0 0 1 -8-8v-432a8.00917 8.00917 0 0 1 8-8h218.74512a24.20388 24.20388 0 0 1 5.25488.58081v79.41919a40.04552 40.04552 0 0 0 40 40h48v-16h-48a24.02718 24.02718 0 0 1 -24-24v-68.68555l96.97021 96.96875a23.84779 23.84779 0 0 1 7.02979 16.97168v58.74512h16v-58.74512a39.74371 39.74371 0 0 0 -11.71582-28.28515l-101.25439-101.25293a39.734 39.734 0 0 0 -28.28467-11.7168h-218.74512a24.0275 24.0275 0 0 0 -24 24v432a24.0275 24.0275 0 0 0 24 24z"/></svg>