<svg id="svg" version="1.1" xmlns="http://www.w3.org/2000/svg" xmlns:xlink="http://www.w3.org/1999/xlink" width="400" height="400" viewBox="0, 0, 400,400"><g id="svgg"><path id="path0" d="M8.400 0.557 C 8.400 1.052,5.774 2.400,4.810 2.400 C 4.044 2.400,2.549 4.326,2.067 5.936 C 1.702 7.152,1.357 7.600,0.784 7.600 C 0.006 7.600,0.000 9.180,0.000 200.000 C 0.000 390.873,0.006 392.400,0.785 392.400 C 1.358 392.400,1.682 392.820,1.990 393.964 C 2.566 396.103,4.254 397.809,6.146 398.163 C 7.185 398.358,7.755 398.705,7.891 399.226 C 8.206 400.429,389.678 400.448,390.736 399.245 C 391.101 398.830,392.277 398.282,393.349 398.027 C 395.636 397.484,397.268 396.018,397.976 393.872 C 398.251 393.040,398.818 392.145,399.238 391.884 C 400.447 391.128,400.436 91.807,399.226 91.491 C 398.702 91.354,398.363 90.791,398.174 89.744 C 397.918 88.331,394.282 84.000,393.351 84.000 C 393.195 84.000,392.782 83.730,392.434 83.399 C 392.085 83.069,390.537 81.764,388.994 80.499 C 387.451 79.235,385.427 77.480,384.497 76.600 C 383.567 75.720,382.242 74.550,381.554 74.000 C 380.866 73.450,380.095 72.820,379.841 72.600 C 379.588 72.380,378.575 71.576,377.590 70.813 C 376.606 70.051,375.080 68.743,374.200 67.908 C 370.535 64.428,368.731 62.800,368.539 62.800 C 368.215 62.800,361.147 56.763,359.531 55.106 C 358.724 54.278,357.968 53.600,357.852 53.600 C 357.736 53.600,357.137 53.127,356.521 52.549 C 355.904 51.971,354.500 50.823,353.400 49.998 C 352.300 49.173,350.500 47.659,349.400 46.632 C 344.974 42.502,343.960 41.600,343.742 41.600 C 343.323 41.600,337.494 36.617,334.969 34.100 C 334.031 33.165,333.070 32.400,332.835 32.400 C 332.599 32.400,332.182 32.040,331.907 31.600 C 331.632 31.160,331.250 30.800,331.058 30.800 C 330.650 30.800,326.563 27.351,324.068 24.901 C 323.116 23.965,322.183 23.200,321.995 23.200 C 321.808 23.200,321.540 22.840,321.400 22.400 C 321.260 21.960,320.966 21.600,320.746 21.600 C 320.408 21.600,317.832 19.854,317.200 19.196 C 317.090 19.082,315.749 17.911,314.220 16.594 C 312.692 15.277,310.778 13.525,309.967 12.700 C 309.157 11.875,308.294 11.200,308.050 11.200 C 307.806 11.200,307.382 10.840,307.107 10.400 C 306.832 9.960,306.450 9.600,306.258 9.600 C 305.855 9.600,301.666 6.081,299.587 3.996 C 298.810 3.217,297.395 2.345,296.442 2.060 C 295.343 1.730,294.636 1.259,294.508 0.770 C 294.240 -0.255,8.400 -0.469,8.400 0.557 M113.467 19.733 C 113.650 19.916,113.890 45.053,114.000 75.591 C 114.182 126.075,114.259 131.184,114.849 131.858 C 115.207 132.266,115.711 133.261,115.970 134.068 C 116.229 134.875,116.702 135.752,117.020 136.017 C 117.339 136.282,117.600 136.746,117.600 137.049 C 117.600 137.790,121.649 141.835,122.736 142.180 C 123.211 142.330,123.600 142.615,123.600 142.812 C 123.600 143.008,124.365 143.373,125.300 143.622 C 126.235 143.871,127.334 144.373,127.742 144.737 C 128.428 145.350,134.519 145.400,207.752 145.400 L 287.020 145.400 288.164 144.500 C 288.793 144.005,289.689 143.597,290.154 143.593 C 290.619 143.589,291.424 143.139,291.942 142.593 C 292.460 142.047,293.129 141.600,293.428 141.600 C 293.727 141.600,294.158 141.252,294.386 140.827 C 294.613 140.402,295.159 139.940,295.600 139.800 C 296.040 139.660,296.400 139.302,296.400 139.004 C 296.400 138.705,296.850 137.927,297.400 137.273 C 297.950 136.619,298.400 135.959,298.400 135.805 C 298.400 135.652,298.745 135.087,299.167 134.551 C 299.589 134.015,300.056 132.817,300.205 131.888 C 300.355 130.960,300.730 129.801,301.038 129.314 C 301.512 128.566,301.600 120.982,301.600 80.676 C 301.600 25.835,301.319 29.751,304.990 33.369 C 306.011 34.376,307.015 35.200,307.220 35.200 C 307.425 35.200,307.818 35.560,308.093 36.000 C 308.368 36.440,308.742 36.800,308.926 36.800 C 309.401 36.800,314.994 41.625,319.475 45.900 C 320.455 46.835,321.353 47.600,321.471 47.600 C 321.927 47.600,324.998 50.146,329.103 53.926 C 330.699 55.397,332.409 56.909,332.903 57.286 C 334.042 58.157,336.970 60.536,337.785 61.253 C 339.429 62.698,342.598 65.571,344.236 67.100 C 345.238 68.035,346.149 68.800,346.261 68.800 C 346.741 68.800,352.120 73.365,354.863 76.100 C 355.911 77.145,356.949 78.000,357.170 78.000 C 357.391 78.000,357.765 78.360,358.000 78.800 C 358.235 79.240,358.622 79.600,358.860 79.600 C 359.302 79.600,363.157 82.806,365.420 85.054 C 366.114 85.744,367.069 86.516,367.541 86.768 C 368.013 87.021,368.400 87.488,368.400 87.806 C 368.400 88.125,368.850 88.498,369.400 88.636 C 369.950 88.774,370.400 89.010,370.400 89.161 C 370.400 89.312,371.270 90.099,372.332 90.909 C 374.588 92.629,375.824 93.715,378.702 96.506 L 380.803 98.545 380.702 239.052 C 380.619 353.703,380.504 379.656,380.080 380.080 C 379.317 380.843,337.084 380.844,336.320 380.080 C 335.898 379.658,335.762 364.662,335.600 300.680 C 335.412 226.386,335.359 221.742,334.700 220.811 C 334.315 220.267,334.000 219.329,334.000 218.727 C 334.000 218.124,333.662 217.309,333.250 216.916 C 332.837 216.522,332.361 215.752,332.192 215.204 C 331.877 214.181,330.061 212.055,327.619 209.848 C 326.860 209.162,325.840 208.218,325.353 207.752 C 324.866 207.285,323.965 206.778,323.352 206.624 C 322.738 206.470,322.011 206.022,321.736 205.630 C 321.402 205.153,320.502 204.840,319.028 204.688 C 317.814 204.562,316.416 204.176,315.921 203.830 C 314.581 202.891,86.049 202.866,84.250 203.805 C 83.617 204.135,82.107 204.560,80.895 204.750 C 79.612 204.952,78.545 205.356,78.343 205.717 C 78.152 206.058,77.428 206.462,76.734 206.615 C 75.129 206.967,68.180 213.744,67.777 215.350 C 67.623 215.963,67.264 216.554,66.978 216.664 C 66.693 216.773,66.340 217.572,66.193 218.439 C 66.047 219.306,65.628 220.314,65.264 220.679 C 64.651 221.292,64.592 227.377,64.497 300.343 C 64.402 373.061,64.342 379.401,63.735 380.072 C 62.838 381.063,21.521 381.215,20.176 380.232 C 19.401 379.666,18.650 27.062,19.412 21.677 C 19.591 20.415,19.890 19.859,20.528 19.599 C 21.636 19.150,113.014 19.281,113.467 19.733 M282.103 19.700 C 283.004 20.387,282.967 17.751,282.879 74.920 L 282.800 126.041 281.403 126.625 C 278.874 127.681,134.138 127.278,133.359 126.212 C 132.471 124.998,132.708 20.155,133.600 19.591 C 134.586 18.968,281.283 19.075,282.103 19.700 M182.678 45.813 C 182.060 46.356,181.340 46.807,181.078 46.815 C 179.610 46.859,178.199 50.521,178.233 54.200 L 178.265 57.801 179.980 59.685 C 180.923 60.721,182.289 61.765,183.016 62.005 C 183.742 62.245,184.552 62.702,184.817 63.020 C 185.227 63.514,188.688 63.600,208.187 63.600 C 229.854 63.600,231.111 63.639,231.738 64.331 C 232.325 64.980,232.401 66.531,232.406 78.031 C 232.414 93.247,232.633 94.821,235.084 97.272 C 238.610 100.798,244.768 100.732,248.312 97.130 C 250.724 94.679,250.691 95.013,250.733 72.400 C 250.768 53.124,250.560 49.760,249.252 48.452 C 248.783 47.983,248.400 47.423,248.400 47.208 C 248.400 46.992,247.950 46.702,247.400 46.564 C 246.850 46.426,246.400 46.182,246.400 46.021 C 246.400 44.901,243.714 44.800,214.081 44.813 L 183.800 44.825 182.678 45.813 M315.176 223.530 C 316.556 224.895,316.749 225.335,316.981 227.630 C 317.546 233.222,317.038 379.431,316.451 380.139 C 315.627 381.131,84.821 381.164,83.829 380.171 C 83.168 379.511,82.872 226.744,83.528 225.133 C 83.678 224.766,84.500 223.911,85.355 223.233 L 86.910 222.000 200.271 222.000 L 313.631 222.000 315.176 223.530 M146.182 267.148 C 145.027 267.387,144.167 267.936,143.081 269.128 C 142.816 269.418,142.217 270.016,141.749 270.457 C 138.444 273.571,141.783 284.354,146.070 284.413 C 146.582 284.420,147.349 284.690,147.776 285.013 C 148.717 285.724,251.755 285.920,252.193 285.211 C 252.326 284.997,253.167 284.624,254.062 284.383 C 259.413 282.942,261.754 273.388,257.658 269.704 C 256.856 268.983,255.872 268.079,255.472 267.696 C 254.728 266.986,149.524 266.458,146.182 267.148 M143.190 322.372 C 140.767 324.647,140.188 326.638,140.643 331.128 C 140.921 333.867,143.684 337.597,145.440 337.603 C 145.858 337.604,146.740 337.963,147.400 338.400 C 149.205 339.595,250.641 339.659,252.600 338.466 C 253.260 338.064,254.269 337.618,254.843 337.474 C 260.044 336.173,261.360 326.705,256.924 322.500 L 254.709 320.400 200.000 320.400 L 145.291 320.400 143.190 322.372 " stroke="none" fill="#040404" fill-rule="evenodd"></path><path id="path1" d="M0.000 2.400 C 0.000 4.947,0.856 5.826,1.364 3.800 C 1.502 3.250,1.863 2.800,2.165 2.800 C 2.467 2.800,2.819 2.527,2.947 2.194 C 3.075 1.861,3.634 1.415,4.190 1.204 C 5.988 0.520,5.302 0.000,2.600 0.000 L 0.000 0.000 0.000 2.400 M297.600 0.600 C 297.600 0.930,297.844 1.200,298.142 1.200 C 298.439 1.200,299.137 1.605,299.693 2.100 C 300.248 2.595,301.290 3.450,302.008 4.000 C 302.726 4.550,304.109 5.765,305.080 6.700 C 306.052 7.635,306.951 8.400,307.078 8.400 C 307.204 8.400,307.724 8.805,308.232 9.300 C 309.376 10.416,309.702 10.696,314.400 14.613 C 316.490 16.356,318.435 18.101,318.723 18.491 C 319.010 18.881,319.493 19.200,319.796 19.200 C 320.098 19.200,320.460 19.560,320.600 20.000 C 320.740 20.440,321.046 20.800,321.281 20.800 C 321.516 20.800,322.107 21.205,322.595 21.700 C 323.082 22.195,324.081 23.050,324.814 23.600 C 326.533 24.889,327.783 25.932,329.249 27.300 C 329.897 27.905,330.601 28.400,330.814 28.400 C 331.026 28.400,331.200 28.670,331.200 29.000 C 331.200 29.330,331.466 29.600,331.791 29.600 C 332.116 29.600,332.676 30.050,333.037 30.600 C 333.397 31.150,333.947 31.600,334.259 31.600 C 334.570 31.600,334.917 31.838,335.028 32.130 C 335.140 32.421,336.168 33.366,337.313 34.230 C 338.457 35.093,339.980 36.378,340.695 37.085 C 341.411 37.792,342.358 38.563,342.798 38.799 C 343.239 39.035,343.600 39.492,343.600 39.814 C 343.600 40.142,343.969 40.400,344.437 40.400 C 344.938 40.400,345.359 40.721,345.484 41.200 C 345.599 41.640,345.891 42.000,346.133 42.000 C 346.374 42.000,346.938 42.360,347.386 42.799 C 347.834 43.238,349.373 44.543,350.807 45.699 C 353.291 47.701,355.809 49.938,357.785 51.900 C 358.284 52.395,358.884 52.800,359.119 52.800 C 359.354 52.800,359.646 53.115,359.768 53.500 C 359.891 53.885,360.503 54.427,361.129 54.705 C 361.756 54.982,362.973 55.924,363.834 56.798 C 364.695 57.672,365.524 58.390,365.676 58.393 C 365.829 58.397,366.775 59.210,367.779 60.200 C 368.783 61.190,369.784 62.000,370.002 62.000 C 370.221 62.000,370.400 62.270,370.400 62.600 C 370.400 62.930,370.562 63.200,370.759 63.200 C 371.256 63.200,378.879 69.440,379.299 70.191 C 379.486 70.526,379.889 70.800,380.193 70.800 C 380.497 70.800,380.860 71.160,381.000 71.600 C 381.140 72.040,381.446 72.400,381.681 72.400 C 381.916 72.400,382.504 72.805,382.988 73.300 C 383.472 73.795,384.456 74.650,385.174 75.200 C 387.328 76.849,388.875 78.159,389.545 78.900 C 389.893 79.285,390.396 79.600,390.662 79.600 C 390.928 79.600,391.260 79.960,391.400 80.400 C 391.540 80.840,391.806 81.200,391.993 81.200 C 392.690 81.200,398.538 86.692,398.914 87.700 C 399.904 90.356,400.000 86.526,400.000 44.200 L 400.000 0.000 348.800 0.000 C 303.556 0.000,297.600 0.070,297.600 0.600 M21.867 21.467 C 21.207 22.126,21.572 378.304,22.233 378.557 C 23.660 379.105,61.483 378.823,61.949 378.261 C 62.274 377.870,62.433 356.898,62.532 301.561 C 62.676 220.895,62.708 219.537,64.489 218.230 C 64.811 217.994,65.198 217.142,65.348 216.339 C 65.499 215.535,65.891 214.774,66.220 214.647 C 66.550 214.521,66.950 214.099,67.110 213.709 C 67.671 212.338,69.779 209.761,71.298 208.587 C 72.142 207.934,73.302 206.995,73.875 206.500 C 74.448 206.005,75.231 205.600,75.616 205.600 C 76.000 205.600,76.414 205.339,76.537 205.021 C 76.659 204.702,77.533 204.234,78.479 203.980 C 79.426 203.725,80.317 203.330,80.459 203.101 C 81.066 202.127,90.053 202.048,200.000 202.048 C 309.947 202.048,318.934 202.127,319.541 203.101 C 319.683 203.330,320.544 203.717,321.453 203.961 C 322.363 204.206,323.330 204.674,323.602 205.003 C 323.875 205.331,324.320 205.600,324.591 205.600 C 324.862 205.600,325.552 206.005,326.125 206.500 C 326.698 206.995,327.849 207.929,328.683 208.576 C 330.405 209.910,333.200 213.326,333.200 214.096 C 333.200 214.377,333.535 214.817,333.944 215.072 C 334.353 215.327,334.805 216.124,334.948 216.842 C 335.092 217.560,335.477 218.443,335.803 218.804 C 337.259 220.413,337.351 224.729,337.578 302.400 L 337.800 378.200 358.200 378.200 L 378.600 378.200 378.701 238.543 L 378.801 98.886 377.679 97.743 C 376.056 96.088,373.974 94.400,373.559 94.400 C 373.361 94.400,373.200 94.130,373.200 93.800 C 373.200 93.470,373.021 93.200,372.802 93.200 C 372.584 93.200,371.583 92.390,370.579 91.400 C 369.575 90.410,368.616 89.600,368.449 89.600 C 368.281 89.600,367.764 89.195,367.300 88.700 C 366.835 88.205,366.216 87.620,365.924 87.400 C 362.992 85.195,360.074 82.664,356.958 79.622 C 356.495 79.170,355.922 78.800,355.685 78.800 C 355.448 78.800,355.140 78.440,355.000 78.000 C 354.860 77.560,354.555 77.200,354.322 77.200 C 353.895 77.200,347.754 72.190,346.119 70.507 C 345.635 70.008,345.050 69.600,344.819 69.600 C 344.589 69.600,344.400 69.330,344.400 69.000 C 344.400 68.670,344.140 68.400,343.823 68.400 C 343.505 68.400,343.010 68.071,342.723 67.669 C 342.435 67.267,341.903 66.772,341.540 66.569 C 340.721 66.112,337.287 63.169,334.924 60.900 C 333.950 59.965,332.978 59.200,332.764 59.200 C 332.550 59.200,332.266 58.916,332.133 58.569 C 332.000 58.223,331.465 57.777,330.945 57.579 C 330.425 57.382,330.000 56.945,330.000 56.610 C 330.000 56.274,329.799 56.000,329.553 56.000 C 329.089 56.000,327.444 54.701,324.466 51.983 C 323.512 51.112,322.587 50.400,322.412 50.400 C 322.236 50.400,321.797 49.950,321.437 49.400 C 321.076 48.850,320.516 48.400,320.191 48.400 C 319.866 48.400,319.600 48.124,319.600 47.787 C 319.600 47.451,319.285 47.059,318.900 46.917 C 318.515 46.776,317.812 46.286,317.337 45.830 C 316.863 45.373,315.895 44.550,315.187 44.000 C 312.802 42.149,311.930 41.408,310.005 39.600 C 308.952 38.610,307.622 37.440,307.050 37.000 C 306.478 36.560,305.451 35.687,304.766 35.059 C 304.039 34.392,303.374 34.066,303.166 34.274 C 302.963 34.477,302.765 55.451,302.705 83.073 C 302.611 126.513,302.535 131.593,301.969 132.258 C 301.622 132.666,301.120 133.765,300.853 134.700 C 300.586 135.635,300.213 136.400,300.023 136.400 C 299.833 136.400,299.489 136.942,299.258 137.605 C 299.027 138.268,298.559 138.917,298.219 139.048 C 297.879 139.179,297.600 139.540,297.600 139.851 C 297.600 140.163,297.150 140.622,296.600 140.873 C 296.050 141.123,295.600 141.557,295.600 141.837 C 295.600 142.117,295.195 142.474,294.700 142.630 C 294.205 142.787,293.579 143.228,293.309 143.612 C 293.039 143.995,292.334 144.430,291.741 144.579 C 291.148 144.728,290.220 145.198,289.678 145.625 C 289.063 146.108,288.069 146.400,287.035 146.400 C 286.124 146.400,284.990 146.672,284.516 147.004 C 283.213 147.916,132.717 147.910,130.534 146.998 C 129.746 146.669,128.519 146.400,127.805 146.400 C 127.092 146.400,126.064 146.051,125.522 145.625 C 124.980 145.198,124.063 144.731,123.483 144.585 C 122.903 144.440,122.320 143.978,122.187 143.560 C 122.055 143.142,121.622 142.800,121.226 142.800 C 120.451 142.800,116.800 138.985,116.800 138.175 C 116.800 137.906,116.536 137.584,116.213 137.460 C 115.890 137.336,115.345 136.642,115.002 135.917 C 114.659 135.193,114.116 134.150,113.795 133.600 C 113.474 133.050,113.209 131.856,113.206 130.946 C 113.203 130.036,112.931 128.776,112.602 128.146 C 112.081 127.147,112.005 120.315,112.002 74.733 C 112.001 45.986,111.891 22.181,111.757 21.833 C 111.504 21.172,22.523 20.810,21.867 21.467 M134.267 21.467 C 134.120 21.613,134.000 45.103,134.000 73.667 L 134.000 125.600 207.353 125.600 L 280.707 125.600 280.948 124.700 C 281.392 123.044,281.234 22.810,280.786 21.974 C 280.366 21.189,135.047 20.686,134.267 21.467 M243.386 43.177 C 243.514 43.384,244.429 43.675,245.420 43.824 C 246.580 43.998,247.366 44.363,247.625 44.847 C 247.847 45.261,248.296 45.600,248.624 45.600 C 248.952 45.600,249.382 46.025,249.579 46.545 C 249.777 47.065,250.223 47.600,250.569 47.733 C 250.916 47.866,251.200 48.298,251.200 48.693 C 251.200 49.089,251.560 50.084,252.000 50.904 C 252.769 52.340,252.800 53.161,252.800 72.400 C 252.800 91.639,252.769 92.460,252.000 93.896 C 251.560 94.716,251.200 95.681,251.200 96.039 C 251.200 96.874,247.449 100.400,246.561 100.400 C 246.191 100.400,245.660 100.713,245.380 101.095 C 244.669 102.067,238.829 102.103,237.736 101.142 C 237.331 100.786,236.604 100.374,236.119 100.226 C 235.098 99.916,232.404 97.338,232.391 96.660 C 232.386 96.407,232.030 95.750,231.600 95.200 C 230.856 94.249,230.817 93.474,230.809 79.515 L 230.800 64.830 206.968 64.715 C 184.786 64.608,183.100 64.551,182.622 63.898 C 182.340 63.512,181.545 63.000,180.855 62.759 C 180.165 62.519,179.600 62.193,179.600 62.036 C 179.600 61.879,179.218 61.341,178.752 60.840 C 176.759 58.702,175.538 53.458,176.600 51.600 C 176.914 51.050,177.178 50.195,177.186 49.700 C 177.194 49.205,177.546 48.454,177.970 48.030 C 178.393 47.607,178.939 46.887,179.184 46.430 C 179.428 45.974,179.802 45.600,180.014 45.600 C 180.226 45.600,180.741 45.259,181.158 44.842 C 181.574 44.426,182.653 43.960,183.556 43.808 C 184.458 43.655,185.297 43.366,185.422 43.165 C 185.729 42.667,243.078 42.679,243.386 43.177 M89.000 223.485 C 88.560 223.591,88.029 223.840,87.820 224.039 C 87.611 224.237,87.150 224.400,86.795 224.400 C 86.441 224.400,85.757 224.933,85.275 225.584 L 84.400 226.768 84.400 302.584 L 84.400 378.401 200.100 378.301 L 315.800 378.200 315.800 302.590 L 315.800 226.980 314.864 225.790 C 312.688 223.022,322.709 223.242,200.200 223.269 C 139.480 223.282,89.440 223.379,89.000 223.485 M253.157 265.349 C 253.408 265.650,254.238 265.999,255.003 266.123 C 256.597 266.382,260.400 269.829,260.400 271.015 C 260.400 271.412,260.676 272.042,261.014 272.415 C 261.999 273.504,261.906 277.838,260.856 279.794 C 260.385 280.671,260.000 281.547,260.000 281.741 C 260.000 282.230,256.894 285.200,256.383 285.200 C 256.155 285.200,255.478 285.562,254.880 286.004 C 253.320 287.158,146.224 287.082,145.069 285.926 C 144.698 285.556,143.991 285.124,143.498 284.968 C 142.257 284.574,140.089 282.118,139.794 280.770 C 139.659 280.157,139.290 279.441,138.974 279.179 C 136.111 276.803,141.402 266.000,145.429 266.000 C 145.909 266.000,146.526 265.730,146.800 265.400 C 147.519 264.534,252.439 264.483,253.157 265.349 M253.400 318.800 C 254.280 319.225,255.282 319.579,255.626 319.586 C 256.421 319.604,259.907 323.064,260.242 324.168 C 260.381 324.626,260.748 325.289,261.057 325.642 C 261.887 326.590,261.872 331.837,261.037 332.760 C 260.686 333.146,260.400 333.765,260.400 334.135 C 260.400 334.505,259.860 335.372,259.200 336.063 C 258.540 336.754,258.000 337.460,258.000 337.632 C 258.000 337.805,257.598 338.074,257.108 338.229 C 256.617 338.385,255.702 338.892,255.074 339.356 L 253.933 340.200 200.057 340.200 L 146.180 340.200 145.036 339.300 C 144.407 338.805,143.710 338.400,143.486 338.400 C 140.586 338.400,136.847 328.010,138.980 325.877 C 139.299 325.558,139.673 324.846,139.812 324.296 C 140.181 322.825,143.558 319.760,145.204 319.402 C 145.972 319.235,146.955 318.851,147.389 318.549 C 148.841 317.539,251.291 317.781,253.400 318.800 M399.200 395.199 C 399.200 395.759,396.347 398.638,395.500 398.932 C 393.956 399.468,394.902 400.000,397.400 400.000 L 400.000 400.000 400.000 397.400 C 400.000 395.933,399.826 394.800,399.600 394.800 C 399.380 394.800,399.200 394.980,399.200 395.199 M0.000 397.600 L 0.000 400.000 2.633 400.000 C 5.204 400.000,6.247 399.193,4.088 398.875 C 3.620 398.806,3.127 398.401,2.992 397.975 C 2.857 397.549,2.492 397.200,2.181 397.200 C 1.870 397.200,1.502 396.750,1.364 396.200 C 0.856 394.174,0.000 395.053,0.000 397.600 " stroke="none" fill="#fbfbfb" fill-rule="evenodd"></path><path id="path2" d="M5.600 0.600 C 5.600 0.930,5.390 1.200,5.133 1.200 C 4.877 1.200,4.761 1.294,4.876 1.409 C 4.991 1.525,5.381 1.505,5.743 1.367 C 6.452 1.094,6.658 0.000,6.000 0.000 C 5.780 0.000,5.600 0.270,5.600 0.600 M296.000 0.557 C 296.000 0.864,296.296 1.228,296.657 1.367 C 297.569 1.717,297.592 1.520,296.733 0.700 C 296.175 0.167,296.000 0.133,296.000 0.557 M298.684 2.328 C 299.804 3.468,306.400 8.863,306.400 8.640 C 306.400 8.530,304.825 7.134,302.900 5.538 C 300.975 3.942,299.256 2.403,299.080 2.118 C 298.904 1.833,298.582 1.600,298.365 1.600 C 298.147 1.600,298.291 1.928,298.684 2.328 M1.200 5.133 C 1.200 5.390,0.930 5.600,0.600 5.600 C 0.270 5.600,0.000 5.780,0.000 6.000 C 0.000 6.658,1.094 6.452,1.367 5.743 C 1.505 5.381,1.525 4.991,1.409 4.876 C 1.294 4.761,1.200 4.877,1.200 5.133 M312.926 14.566 C 313.499 15.098,314.339 15.792,314.793 16.110 C 315.246 16.427,316.288 17.298,317.109 18.044 C 317.929 18.790,319.590 20.192,320.800 21.159 C 324.420 24.053,320.822 20.642,316.215 16.812 C 312.539 13.757,310.690 12.494,312.926 14.566 M21.100 20.276 C 20.715 20.376,20.400 20.743,20.400 21.091 C 20.400 21.658,20.477 21.654,21.131 21.062 C 21.803 20.454,25.553 20.400,66.883 20.400 L 111.902 20.400 112.530 21.300 C 113.157 22.199,113.158 22.199,113.179 21.347 C 113.193 20.790,112.887 20.410,112.300 20.252 C 111.267 19.975,22.162 19.998,21.100 20.276 M133.738 20.617 C 133.608 20.957,133.613 21.347,133.751 21.484 C 133.888 21.621,134.000 21.433,134.000 21.067 C 134.000 19.942,280.984 20.049,281.586 21.174 C 281.865 21.696,282.000 38.808,282.000 73.756 L 282.000 125.564 280.700 125.796 C 279.985 125.923,246.612 125.976,206.538 125.914 C 166.464 125.851,133.760 125.935,133.862 126.100 C 134.148 126.562,280.155 126.473,281.374 126.010 L 282.400 125.620 282.400 73.438 C 282.400 26.534,282.336 21.194,281.771 20.629 C 280.819 19.676,134.104 19.664,133.738 20.617 M20.100 200.100 C 20.000 377.933,20.002 378.402,20.800 379.200 C 21.907 380.307,61.873 380.470,62.971 379.371 C 63.539 378.804,63.590 371.360,63.501 302.471 L 63.402 226.200 63.300 302.170 C 63.206 372.163,63.146 378.197,62.537 378.870 C 61.460 380.059,22.394 379.994,21.200 378.800 C 20.404 378.004,20.401 377.367,20.300 199.900 L 20.199 21.800 20.100 200.100 M323.647 23.443 C 323.951 23.907,326.448 26.137,329.196 28.399 C 331.944 30.660,334.374 32.722,334.596 32.980 C 334.941 33.380,337.268 35.378,341.144 38.600 C 341.673 39.040,342.352 39.638,342.653 39.929 C 342.954 40.219,343.200 40.296,343.200 40.098 C 343.200 39.901,341.988 38.763,340.507 37.570 C 338.114 35.642,336.859 34.564,334.800 32.672 C 334.470 32.368,332.940 31.065,331.400 29.776 C 329.860 28.487,328.394 27.245,328.142 27.016 C 327.890 26.787,327.104 26.150,326.396 25.600 C 325.688 25.050,324.655 24.150,324.101 23.600 C 323.312 22.816,323.213 22.783,323.647 23.443 M303.398 33.137 C 303.834 33.652,304.553 34.259,304.996 34.486 C 305.845 34.921,305.721 34.787,303.803 33.194 C 302.648 32.235,302.634 32.233,303.398 33.137 M302.593 79.600 C 302.593 105.230,302.641 115.715,302.700 102.900 C 302.759 90.085,302.759 69.115,302.700 56.300 C 302.641 43.485,302.593 53.970,302.593 79.600 M308.181 37.330 C 308.632 37.731,309.630 38.634,310.400 39.337 C 311.170 40.040,312.738 41.318,313.884 42.177 C 315.030 43.037,316.060 43.979,316.172 44.270 C 316.283 44.562,316.568 44.800,316.804 44.800 C 317.419 44.800,315.897 43.331,312.000 40.161 C 308.655 37.441,306.576 35.899,308.181 37.330 M344.379 41.378 C 345.520 42.592,345.774 42.673,345.225 41.647 C 345.004 41.233,344.506 40.773,344.121 40.625 C 343.598 40.424,343.663 40.616,344.379 41.378 M346.779 43.378 C 347.307 43.940,347.800 44.400,347.873 44.400 C 348.234 44.400,346.939 42.785,346.418 42.586 C 346.088 42.459,346.251 42.816,346.779 43.378 M184.623 43.947 C 183.975 44.086,197.375 44.200,214.400 44.200 C 231.425 44.200,244.825 44.086,244.177 43.947 C 243.530 43.808,230.130 43.695,214.400 43.695 C 198.670 43.695,185.270 43.808,184.623 43.947 M348.674 44.842 C 348.853 45.194,350.680 46.876,352.733 48.578 C 354.831 50.317,356.169 51.219,355.787 50.636 C 355.414 50.066,354.977 49.600,354.816 49.600 C 354.656 49.600,354.001 49.137,353.362 48.571 C 352.723 48.006,351.570 47.061,350.800 46.471 C 350.030 45.882,349.163 45.130,348.874 44.800 C 348.412 44.272,348.387 44.277,348.674 44.842 M179.154 47.300 C 178.299 48.235,177.600 49.250,177.600 49.556 C 177.600 49.861,178.067 49.412,178.637 48.556 C 179.208 47.700,180.063 46.689,180.537 46.309 C 181.012 45.929,181.244 45.614,181.054 45.609 C 180.863 45.604,180.008 46.365,179.154 47.300 M319.549 47.078 C 319.799 47.560,320.195 48.073,320.429 48.218 C 321.225 48.710,321.045 48.202,320.068 47.200 C 319.185 46.294,319.136 46.283,319.549 47.078 M249.879 47.989 C 250.142 48.334,250.536 49.063,250.754 49.608 C 251.017 50.268,251.158 50.373,251.175 49.922 C 251.189 49.550,250.795 48.821,250.300 48.303 C 249.805 47.785,249.616 47.643,249.879 47.989 M321.600 48.660 C 321.600 48.863,322.860 50.058,324.400 51.316 C 325.940 52.574,327.194 53.468,327.188 53.302 C 327.181 53.136,326.386 52.406,325.421 51.679 C 324.457 50.953,323.202 49.893,322.634 49.325 C 322.065 48.756,321.600 48.457,321.600 48.660 M177.028 52.300 C 176.895 53.125,176.938 54.610,177.124 55.600 C 177.423 57.186,177.460 57.007,177.435 54.100 C 177.402 50.363,177.366 50.205,177.028 52.300 M251.400 72.337 C 251.400 86.704,251.528 93.269,251.797 92.676 C 252.439 91.260,252.543 55.011,251.911 52.861 C 251.481 51.397,251.400 54.477,251.400 72.337 M356.800 51.682 C 356.800 51.766,357.553 52.547,358.474 53.418 C 359.394 54.288,359.979 54.707,359.774 54.350 C 359.410 53.717,356.800 51.376,356.800 51.682 M360.557 55.130 C 360.669 55.311,362.164 56.590,363.880 57.971 C 366.845 60.357,366.307 59.752,362.439 56.349 C 360.720 54.836,360.145 54.464,360.557 55.130 M177.600 58.324 C 177.600 58.965,181.398 62.801,182.020 62.788 C 182.430 62.779,182.382 62.649,181.855 62.343 C 180.992 61.842,180.237 61.103,178.700 59.259 C 178.095 58.533,177.600 58.112,177.600 58.324 M334.000 59.414 C 334.330 59.846,334.714 60.290,334.854 60.400 C 334.993 60.510,335.706 61.050,336.438 61.600 C 337.169 62.150,338.258 63.050,338.857 63.600 C 339.455 64.150,340.803 65.320,341.851 66.200 C 342.900 67.080,344.191 68.216,344.721 68.724 C 345.251 69.233,345.763 69.570,345.858 69.475 C 345.954 69.379,345.080 68.524,343.916 67.575 C 342.752 66.625,341.530 65.552,341.200 65.189 C 340.137 64.020,333.379 58.600,334.000 59.414 M183.725 63.700 C 184.436 64.352,186.068 64.394,207.544 64.308 L 230.600 64.216 207.361 64.008 C 192.875 63.878,183.904 63.649,183.542 63.400 C 183.223 63.180,183.306 63.315,183.725 63.700 M231.200 79.218 C 231.350 90.256,231.526 94.087,231.900 94.461 C 232.249 94.810,232.400 94.823,232.400 94.504 C 232.400 94.253,232.220 93.936,232.000 93.800 C 231.745 93.643,231.600 88.337,231.600 79.200 C 231.600 71.306,231.465 64.764,231.300 64.661 C 231.135 64.559,231.090 71.110,231.200 79.218 M374.400 66.930 C 374.400 67.031,375.945 68.415,377.834 70.005 C 379.722 71.595,381.029 72.515,380.737 72.048 C 380.446 71.582,380.114 71.200,379.999 71.200 C 379.885 71.200,379.073 70.564,378.196 69.786 C 376.285 68.093,374.400 66.675,374.400 66.930 M346.400 69.873 C 346.400 70.070,347.165 70.865,348.100 71.640 C 350.336 73.493,351.386 74.065,349.600 72.458 C 348.830 71.765,347.795 70.819,347.300 70.357 C 346.805 69.894,346.400 69.677,346.400 69.873 M382.198 73.537 C 382.634 74.052,383.353 74.659,383.796 74.886 C 384.645 75.321,384.521 75.187,382.603 73.594 C 381.448 72.635,381.434 72.633,382.198 73.537 M351.200 73.962 C 351.200 74.129,351.920 74.845,352.800 75.552 C 353.680 76.259,354.400 76.769,354.400 76.684 C 354.400 76.600,353.680 75.885,352.800 75.095 C 351.920 74.305,351.200 73.795,351.200 73.962 M385.064 76.273 C 388.882 79.487,393.883 83.396,392.581 82.150 C 391.691 81.297,390.341 80.127,389.581 79.548 C 388.822 78.969,387.699 78.028,387.087 77.455 C 386.475 76.883,385.575 76.219,385.087 75.980 L 384.200 75.546 385.064 76.273 M360.481 82.049 C 363.237 84.613,364.928 86.000,365.300 86.000 C 365.658 86.000,364.205 84.719,360.800 82.034 L 358.600 80.299 360.481 82.049 M396.800 86.200 C 397.546 86.970,398.247 87.600,398.357 87.600 C 398.467 87.600,397.946 86.970,397.200 86.200 C 396.454 85.430,395.753 84.800,395.643 84.800 C 395.533 84.800,396.054 85.430,396.800 86.200 M366.973 87.747 C 367.838 88.546,368.625 89.200,368.722 89.200 C 369.098 89.200,367.811 87.922,366.636 87.128 C 365.640 86.456,365.706 86.576,366.973 87.747 M398.400 88.324 C 398.400 88.908,399.529 90.205,399.801 89.933 C 399.947 89.786,399.692 89.292,399.233 88.833 C 398.775 88.375,398.400 88.146,398.400 88.324 M369.444 89.655 C 369.640 90.016,371.475 91.694,373.522 93.385 C 375.569 95.075,377.023 96.106,376.755 95.676 C 376.486 95.245,375.801 94.614,375.233 94.274 C 374.304 93.717,371.873 91.664,369.844 89.723 C 369.232 89.138,369.155 89.125,369.444 89.655 M250.800 94.958 C 250.800 95.265,249.990 96.374,249.000 97.422 C 248.010 98.470,247.204 99.434,247.208 99.564 C 247.225 100.092,251.200 95.543,251.200 94.994 C 251.200 94.667,251.110 94.400,251.000 94.400 C 250.890 94.400,250.800 94.651,250.800 94.958 M232.412 95.281 C 232.380 96.028,233.433 97.516,234.745 98.577 L 236.200 99.754 234.752 98.177 C 233.956 97.310,233.106 96.240,232.864 95.800 C 232.622 95.360,232.419 95.127,232.412 95.281 M378.900 98.275 C 379.564 99.022,379.600 106.279,379.600 238.685 L 379.600 378.308 378.614 378.954 C 377.166 379.903,339.810 379.936,337.981 378.990 L 336.802 378.381 336.700 302.090 L 336.598 225.800 336.499 302.024 C 336.414 367.333,336.481 378.358,336.968 379.024 C 337.855 380.238,378.545 380.238,379.432 379.024 C 379.920 378.356,380.000 358.550,380.000 238.420 L 380.000 98.592 379.100 98.040 C 378.224 97.501,378.219 97.508,378.900 98.275 M238.000 100.500 C 240.177 101.521,242.967 101.586,244.600 100.655 C 245.641 100.062,245.667 100.008,244.800 100.255 C 242.141 101.010,240.924 101.024,238.837 100.325 C 236.038 99.387,235.752 99.446,238.000 100.500 M113.309 128.000 C 113.309 128.990,113.387 129.395,113.482 128.900 C 113.578 128.405,113.578 127.595,113.482 127.100 C 113.387 126.605,113.309 127.010,113.309 128.000 M301.682 129.866 C 300.732 132.678,300.707 133.013,301.569 131.400 C 302.039 130.520,302.373 129.470,302.312 129.066 C 302.240 128.596,302.014 128.882,301.682 129.866 M113.602 131.656 C 113.601 132.016,113.974 132.736,114.430 133.256 C 114.887 133.775,115.146 133.974,115.006 133.699 C 113.841 131.407,113.605 131.063,113.602 131.656 M297.634 138.553 L 296.669 139.800 297.813 138.712 C 298.443 138.114,298.877 137.553,298.779 137.465 C 298.680 137.377,298.165 137.867,297.634 138.553 M117.213 138.252 C 117.229 138.692,119.937 141.408,120.127 141.174 C 120.205 141.078,119.578 140.303,118.734 139.452 C 117.890 138.600,117.206 138.060,117.213 138.252 M294.800 141.400 C 293.878 142.170,293.309 142.800,293.534 142.800 C 293.759 142.800,294.611 142.170,295.427 141.400 C 296.244 140.630,296.814 140.000,296.694 140.000 C 296.574 140.000,295.722 140.630,294.800 141.400 M122.638 143.400 C 123.277 143.949,124.070 144.388,124.400 144.374 C 124.783 144.358,124.706 144.230,124.186 144.019 C 123.738 143.838,123.131 143.399,122.837 143.045 C 122.543 142.690,122.116 142.400,121.889 142.400 C 121.662 142.400,121.999 142.850,122.638 143.400 M126.200 145.200 C 126.860 145.637,127.663 145.996,127.985 145.997 C 128.306 145.999,127.863 145.640,127.000 145.200 C 125.001 144.181,124.661 144.181,126.200 145.200 M288.800 145.000 C 288.526 145.330,288.009 145.614,287.651 145.632 C 287.202 145.653,287.162 145.728,287.523 145.873 C 287.811 145.988,288.351 145.817,288.723 145.493 C 289.095 145.169,289.670 144.805,290.000 144.684 C 290.502 144.499,290.493 144.458,289.949 144.432 C 289.591 144.414,289.074 144.670,288.800 145.000 M129.300 146.276 C 129.685 146.376,130.315 146.376,130.700 146.276 C 131.085 146.175,130.770 146.093,130.000 146.093 C 129.230 146.093,128.915 146.175,129.300 146.276 M284.500 146.276 C 284.885 146.376,285.515 146.376,285.900 146.276 C 286.285 146.175,285.970 146.093,285.200 146.093 C 284.430 146.093,284.115 146.175,284.500 146.276 M169.868 146.700 C 190.586 146.757,224.606 146.757,245.468 146.700 C 266.331 146.643,249.380 146.596,207.800 146.596 C 166.220 146.596,149.151 146.643,169.868 146.700 M83.000 202.693 C 82.208 202.894,80.399 204.000,80.862 204.000 C 80.994 204.000,81.749 203.730,82.538 203.400 C 85.169 202.301,315.243 202.513,318.045 203.618 C 319.186 204.068,320.408 204.358,320.760 204.264 C 321.228 204.139,321.185 204.080,320.600 204.044 C 320.160 204.017,319.260 203.681,318.600 203.298 C 317.434 202.620,85.631 202.025,83.000 202.693 M322.080 204.937 C 322.673 205.530,324.189 206.400,324.630 206.400 C 324.785 206.400,324.249 205.950,323.438 205.400 C 321.816 204.299,321.249 204.106,322.080 204.937 M75.200 206.200 C 74.650 206.514,74.380 206.772,74.600 206.772 C 74.820 206.772,75.450 206.514,76.000 206.200 C 76.550 205.886,76.820 205.628,76.600 205.628 C 76.380 205.628,75.750 205.886,75.200 206.200 M70.985 209.697 C 69.198 211.586,69.449 211.413,72.775 208.464 C 73.312 207.989,73.575 207.600,73.360 207.600 C 73.146 207.600,72.077 208.544,70.985 209.697 M329.255 210.401 C 330.756 211.941,332.345 213.909,332.786 214.773 C 333.228 215.638,333.793 216.472,334.042 216.626 C 334.292 216.780,333.982 216.028,333.354 214.953 C 332.258 213.079,327.376 207.600,326.803 207.600 C 326.650 207.600,327.754 208.860,329.255 210.401 M68.001 212.998 C 67.486 213.548,67.139 214.064,67.232 214.146 C 67.324 214.228,67.819 213.778,68.330 213.147 C 69.476 211.735,69.274 211.644,68.001 212.998 M66.155 215.812 C 65.790 216.369,65.564 216.898,65.653 216.987 C 65.742 217.076,66.118 216.620,66.489 215.974 C 67.314 214.536,67.069 214.417,66.155 215.812 M64.500 219.618 C 64.005 220.690,63.621 222.159,63.647 222.883 C 63.687 224.008,63.740 223.930,64.007 222.347 C 64.179 221.327,64.625 220.028,64.998 219.460 C 65.370 218.891,65.613 218.255,65.538 218.047 C 65.462 217.839,64.995 218.546,64.500 219.618 M334.404 217.920 C 334.402 218.206,334.702 219.016,335.072 219.720 C 335.441 220.424,335.870 221.630,336.026 222.400 C 336.264 223.581,336.315 223.634,336.354 222.740 C 336.379 222.157,335.952 220.717,335.404 219.540 C 334.856 218.363,334.406 217.634,334.404 217.920 M143.900 222.700 C 174.755 222.757,225.245 222.757,256.100 222.700 C 286.955 222.643,261.710 222.597,200.000 222.597 C 138.290 222.597,113.045 222.643,143.900 222.700 M85.894 223.900 C 85.105 224.505,84.266 225.413,84.029 225.919 C 83.459 227.138,83.421 377.476,83.990 378.974 L 84.380 380.000 199.976 380.000 C 313.853 380.000,315.578 379.988,315.986 379.226 C 316.268 378.699,316.369 354.219,316.302 302.326 L 316.204 226.200 315.999 302.800 C 315.887 344.930,315.751 379.445,315.697 379.500 C 315.644 379.555,263.601 379.600,200.047 379.600 L 84.493 379.600 84.252 378.700 C 84.119 378.205,84.008 343.704,84.005 302.031 L 84.000 226.263 85.807 224.531 C 87.895 222.531,87.920 222.346,85.894 223.900 M313.000 223.420 C 313.440 223.747,314.324 224.505,314.965 225.103 C 315.953 226.025,316.059 226.059,315.666 225.323 C 315.411 224.846,314.678 224.083,314.039 223.628 C 312.726 222.693,311.763 222.500,313.000 223.420 M147.276 265.940 C 146.768 266.083,170.477 266.200,199.961 266.200 C 229.446 266.200,253.262 266.078,252.885 265.928 C 252.009 265.581,148.511 265.592,147.276 265.940 M142.451 268.315 C 140.718 269.942,140.278 270.670,139.535 273.142 L 138.660 276.054 139.530 278.727 C 140.362 281.285,142.935 284.800,143.975 284.800 C 144.199 284.800,143.576 284.057,142.592 283.149 C 137.712 278.651,139.097 269.167,144.982 266.782 C 145.595 266.534,145.636 266.444,145.145 266.425 C 144.785 266.411,143.573 267.262,142.451 268.315 M255.064 266.906 C 255.539 267.178,256.529 267.829,257.264 268.353 C 258.452 269.200,258.425 269.145,257.027 267.853 C 256.162 267.054,255.172 266.403,254.827 266.406 C 254.382 266.410,254.451 266.555,255.064 266.906 M260.292 273.000 C 260.456 273.660,260.578 275.152,260.562 276.315 C 260.546 277.553,260.670 278.217,260.861 277.915 C 261.356 277.134,261.209 274.769,260.566 273.200 C 260.071 271.991,260.034 271.964,260.292 273.000 M258.336 282.309 C 257.821 282.919,256.955 283.729,256.411 284.109 C 255.354 284.848,255.585 285.050,256.764 284.419 C 257.449 284.053,259.834 281.200,259.456 281.200 C 259.354 281.200,258.850 281.699,258.336 282.309 M145.800 285.600 C 146.460 286.037,147.360 286.392,147.800 286.389 C 148.290 286.385,147.924 286.075,146.856 285.591 C 144.640 284.586,144.273 284.589,145.800 285.600 M253.789 285.352 C 253.355 285.655,252.640 285.995,252.200 286.106 L 251.400 286.307 252.200 286.351 C 252.640 286.375,253.540 286.037,254.200 285.600 C 254.860 285.163,255.215 284.804,254.989 284.803 C 254.763 284.801,254.223 285.048,253.789 285.352 M147.915 319.128 C 147.538 319.278,170.966 319.400,199.977 319.400 C 228.987 319.400,252.516 319.268,252.262 319.106 C 251.681 318.736,148.847 318.758,147.915 319.128 M143.564 320.669 C 142.814 321.256,141.764 322.291,141.231 322.969 C 140.672 323.680,141.106 323.391,142.261 322.284 C 143.360 321.230,144.786 320.211,145.430 320.019 C 146.316 319.754,146.397 319.660,145.764 319.634 C 145.305 319.615,144.315 320.081,143.564 320.669 M257.600 321.866 C 257.600 322.091,257.981 322.619,258.447 323.038 C 258.913 323.457,259.442 324.160,259.622 324.600 C 259.856 325.171,259.957 325.220,259.975 324.772 C 259.989 324.427,259.460 323.539,258.800 322.800 C 258.140 322.061,257.600 321.640,257.600 321.866 M139.401 326.797 C 138.728 329.019,139.448 334.685,140.296 333.838 C 140.388 333.746,140.156 332.698,139.782 331.509 C 139.142 329.479,139.141 329.206,139.774 327.031 C 140.144 325.757,140.376 324.642,140.288 324.554 C 140.200 324.467,139.801 325.476,139.401 326.797 M260.195 326.135 C 261.436 330.546,259.735 335.510,256.254 337.633 C 254.927 338.441,255.089 338.702,256.461 337.967 C 259.807 336.177,262.127 329.766,260.576 326.600 C 260.253 325.940,260.081 325.731,260.195 326.135 M140.741 335.000 C 141.558 336.674,146.760 340.173,147.433 339.500 C 147.538 339.395,146.674 338.911,145.512 338.425 C 144.294 337.916,142.754 336.834,141.875 335.871 C 141.036 334.952,140.526 334.560,140.741 335.000 M253.424 339.013 C 252.996 339.336,252.827 339.600,253.047 339.600 C 253.267 339.600,253.796 339.336,254.224 339.013 C 254.651 338.690,254.820 338.425,254.600 338.425 C 254.380 338.425,253.851 338.690,253.424 339.013 M173.900 339.900 C 188.255 339.958,211.745 339.958,226.100 339.900 C 240.455 339.842,228.710 339.794,200.000 339.794 C 171.290 339.794,159.545 339.842,173.900 339.900 M398.814 393.974 C 398.187 395.146,398.314 395.286,399.200 394.400 C 400.085 393.515,400.194 393.200,399.614 393.200 C 399.402 393.200,399.042 393.548,398.814 393.974 M0.000 394.000 C 0.000 394.220,0.270 394.400,0.600 394.400 C 0.930 394.400,1.200 394.610,1.200 394.867 C 1.200 395.123,1.294 395.239,1.409 395.124 C 1.525 395.009,1.505 394.619,1.367 394.257 C 1.094 393.548,0.000 393.342,0.000 394.000 M396.400 397.400 C 395.883 397.950,395.627 398.394,395.830 398.387 C 396.172 398.376,397.821 396.400,397.488 396.400 C 397.406 396.400,396.917 396.850,396.400 397.400 M5.600 399.400 C 5.600 399.730,5.780 400.000,6.000 400.000 C 6.220 400.000,6.400 399.730,6.400 399.400 C 6.400 399.070,6.220 398.800,6.000 398.800 C 5.780 398.800,5.600 399.070,5.600 399.400 M392.800 399.400 C 392.800 399.730,392.961 400.000,393.157 400.000 C 393.354 400.000,393.618 399.730,393.745 399.400 C 393.885 399.035,393.745 398.800,393.387 398.800 C 393.064 398.800,392.800 399.070,392.800 399.400 " stroke="none" fill="#a3a3a3" fill-rule="evenodd"></path><path id="path3" d="M5.200 0.410 C 5.200 0.635,4.745 0.993,4.190 1.204 C 3.634 1.415,3.075 1.861,2.947 2.194 C 2.819 2.527,2.467 2.800,2.165 2.800 C 1.863 2.800,1.502 3.250,1.364 3.800 C 1.226 4.350,0.863 4.800,0.557 4.800 C 0.250 4.800,0.000 4.980,0.000 5.200 C 0.000 5.934,1.142 5.612,1.398 4.806 C 1.723 3.781,3.781 1.723,4.806 1.398 C 5.482 1.183,5.985 0.000,5.400 0.000 C 5.290 0.000,5.200 0.184,5.200 0.410 M296.400 0.420 C 296.400 0.652,297.014 1.097,297.763 1.410 C 298.513 1.724,299.188 2.121,299.263 2.293 C 299.339 2.465,301.110 4.029,303.200 5.768 C 305.290 7.508,307.314 9.216,307.698 9.565 C 310.218 11.857,312.706 13.986,316.200 16.841 C 318.400 18.639,320.352 20.310,320.538 20.555 C 320.742 20.824,320.781 20.710,320.638 20.267 C 320.507 19.864,320.400 19.459,320.400 19.367 C 320.400 19.275,320.140 19.200,319.823 19.200 C 319.505 19.200,319.010 18.881,318.723 18.491 C 318.435 18.101,316.490 16.356,314.400 14.613 C 309.702 10.696,309.376 10.416,308.232 9.300 C 307.724 8.805,307.204 8.400,307.078 8.400 C 306.951 8.400,306.052 7.635,305.080 6.700 C 304.109 5.765,302.726 4.550,302.008 4.000 C 301.290 3.450,300.248 2.595,299.693 2.100 C 299.137 1.605,298.439 1.200,298.142 1.200 C 297.844 1.200,297.600 0.930,297.600 0.600 C 297.600 0.270,297.330 0.000,297.000 0.000 C 296.670 0.000,296.400 0.189,296.400 0.420 M21.062 21.131 C 19.919 22.395,20.056 377.656,21.200 378.800 C 22.385 379.985,61.459 380.061,62.527 378.880 C 63.124 378.221,63.188 371.571,63.289 300.221 C 63.359 250.957,63.262 222.855,63.024 223.840 C 62.798 224.777,62.597 255.848,62.522 301.561 C 62.430 356.912,62.274 377.870,61.949 378.261 C 61.444 378.870,23.047 379.071,22.100 378.470 C 21.700 378.216,21.619 342.213,21.700 199.776 L 21.800 21.400 66.700 21.298 C 91.395 21.242,111.643 21.242,111.695 21.298 C 111.747 21.354,111.882 45.376,111.995 74.680 C 112.156 116.549,112.307 128.067,112.700 128.460 C 113.564 129.324,113.418 22.705,112.554 21.386 L 111.908 20.400 66.816 20.400 C 23.640 20.400,21.696 20.431,21.062 21.131 M133.805 21.700 C 133.677 22.415,133.624 46.130,133.687 74.400 L 133.800 125.800 206.600 125.913 C 246.640 125.975,279.985 125.922,280.700 125.795 L 282.000 125.564 282.000 73.756 C 282.000 38.808,281.865 21.696,281.586 21.174 C 281.179 20.413,279.929 20.400,207.604 20.400 L 134.036 20.400 133.805 21.700 M323.081 22.706 C 324.226 23.748,325.725 25.050,326.412 25.600 C 327.099 26.150,328.142 27.015,328.730 27.523 C 333.184 31.365,333.711 31.754,333.222 30.841 C 332.946 30.326,332.379 29.815,331.960 29.706 C 331.542 29.596,331.200 29.258,331.200 28.953 C 331.200 28.649,331.026 28.400,330.814 28.400 C 330.601 28.400,329.897 27.905,329.249 27.300 C 327.783 25.932,326.533 24.889,324.814 23.600 C 324.081 23.050,323.082 22.195,322.595 21.700 C 322.107 21.205,321.549 20.803,321.354 20.806 C 321.159 20.810,321.937 21.665,323.081 22.706 M280.786 21.974 C 281.234 22.810,281.392 123.044,280.948 124.700 L 280.707 125.600 207.353 125.600 L 134.000 125.600 134.000 73.667 C 134.000 45.103,134.120 21.613,134.267 21.467 C 135.047 20.686,280.366 21.189,280.786 21.974 M334.496 32.404 C 334.772 32.847,335.313 33.309,335.699 33.431 C 336.085 33.554,336.400 33.795,336.400 33.968 C 336.400 34.141,337.441 35.100,338.713 36.099 C 339.985 37.098,341.605 38.457,342.313 39.118 C 343.081 39.836,343.600 40.101,343.600 39.775 C 343.600 39.474,343.239 39.035,342.798 38.799 C 342.358 38.563,341.411 37.792,340.695 37.085 C 339.980 36.378,338.457 35.093,337.313 34.230 C 336.168 33.366,335.140 32.421,335.028 32.130 C 334.917 31.838,334.638 31.600,334.409 31.600 C 334.150 31.600,334.182 31.903,334.496 32.404 M302.800 33.554 C 302.800 34.045,302.974 34.340,303.187 34.208 C 303.400 34.076,304.123 34.471,304.792 35.084 C 305.462 35.698,306.478 36.560,307.050 37.000 C 307.622 37.440,308.952 38.610,310.005 39.600 C 311.930 41.408,312.802 42.149,315.187 44.000 C 315.895 44.550,316.863 45.373,317.337 45.830 C 317.812 46.286,318.537 46.784,318.949 46.936 C 319.424 47.111,319.244 46.788,318.455 46.051 C 317.771 45.413,316.939 44.786,316.606 44.658 C 316.273 44.530,316.000 44.276,316.000 44.095 C 316.000 43.913,315.055 43.060,313.900 42.200 C 312.745 41.339,311.513 40.357,311.163 40.018 C 310.813 39.678,309.579 38.590,308.420 37.600 C 307.262 36.610,306.018 35.530,305.657 35.200 C 305.296 34.870,304.505 34.164,303.900 33.630 L 302.800 32.661 302.800 33.554 M345.146 41.500 C 346.933 43.174,352.357 47.811,353.918 49.000 C 354.207 49.220,355.038 49.940,355.764 50.600 C 356.491 51.260,357.829 52.475,358.737 53.300 C 359.646 54.125,360.572 54.800,360.795 54.800 C 361.018 54.800,361.200 54.944,361.200 55.121 C 361.200 55.298,362.865 56.817,364.900 58.498 C 366.935 60.179,369.152 62.060,369.827 62.677 C 370.995 63.746,373.611 65.981,376.758 68.600 C 377.551 69.260,378.401 69.980,378.647 70.200 C 378.894 70.420,380.046 71.410,381.209 72.400 C 382.371 73.390,383.825 74.650,384.439 75.200 C 385.779 76.400,386.465 76.983,388.586 78.726 C 392.774 82.168,394.359 83.563,396.398 85.600 C 397.609 86.810,398.804 88.160,399.053 88.600 C 399.302 89.040,399.661 89.251,399.850 89.070 C 400.039 88.888,399.880 88.565,399.497 88.350 C 399.114 88.136,398.800 87.770,398.800 87.537 C 398.800 86.911,392.666 81.200,391.993 81.200 C 391.806 81.200,391.540 80.840,391.400 80.400 C 391.260 79.960,390.928 79.600,390.662 79.600 C 390.396 79.600,389.893 79.285,389.545 78.900 C 388.875 78.159,387.328 76.849,385.174 75.200 C 384.456 74.650,383.472 73.795,382.988 73.300 C 382.504 72.805,381.916 72.400,381.681 72.400 C 381.446 72.400,381.140 72.040,381.000 71.600 C 380.860 71.160,380.497 70.800,380.193 70.800 C 379.889 70.800,379.486 70.526,379.299 70.191 C 378.879 69.440,371.256 63.200,370.759 63.200 C 370.562 63.200,370.400 62.930,370.400 62.600 C 370.400 62.270,370.221 62.000,370.002 62.000 C 369.784 62.000,368.783 61.190,367.779 60.200 C 366.775 59.210,365.829 58.397,365.676 58.393 C 365.524 58.390,364.695 57.672,363.834 56.798 C 362.973 55.924,361.756 54.982,361.129 54.705 C 360.503 54.427,359.891 53.885,359.768 53.500 C 359.646 53.115,359.354 52.800,359.119 52.800 C 358.884 52.800,358.284 52.395,357.785 51.900 C 355.809 49.938,353.291 47.701,350.807 45.699 C 349.373 44.543,347.834 43.238,347.386 42.799 C 346.938 42.360,346.374 42.000,346.133 42.000 C 345.891 42.000,345.599 41.640,345.484 41.200 C 345.369 40.760,344.982 40.400,344.624 40.400 C 344.149 40.400,344.290 40.698,345.146 41.500 M185.422 43.165 C 185.297 43.366,184.458 43.655,183.556 43.808 C 182.653 43.960,181.574 44.426,181.158 44.842 C 180.741 45.259,180.226 45.600,180.014 45.600 C 179.802 45.600,179.428 45.974,179.184 46.430 C 178.939 46.887,178.393 47.607,177.970 48.030 C 177.546 48.454,177.194 49.205,177.186 49.700 C 177.178 50.195,176.914 51.050,176.600 51.600 C 175.538 53.458,176.759 58.702,178.752 60.840 C 179.218 61.341,179.600 61.883,179.600 62.044 C 179.600 62.206,180.214 62.541,180.965 62.788 C 181.715 63.036,182.430 63.500,182.552 63.819 C 182.675 64.139,183.165 64.400,183.641 64.400 C 184.672 64.400,183.528 63.368,181.554 62.517 C 175.519 59.916,175.437 50.026,181.411 45.225 C 184.276 42.923,245.140 42.684,247.000 44.967 C 247.220 45.237,247.700 45.625,248.066 45.829 C 248.433 46.033,249.288 46.900,249.966 47.755 C 250.764 48.760,251.200 49.074,251.200 48.642 C 251.200 48.275,250.916 47.866,250.569 47.733 C 250.223 47.600,249.777 47.065,249.579 46.545 C 249.382 46.025,248.952 45.600,248.624 45.600 C 248.296 45.600,247.847 45.261,247.625 44.847 C 247.366 44.363,246.580 43.998,245.420 43.824 C 244.429 43.675,243.514 43.384,243.386 43.177 C 243.078 42.679,185.729 42.667,185.422 43.165 M321.437 49.400 C 321.797 49.950,322.236 50.400,322.412 50.400 C 322.587 50.400,323.512 51.112,324.466 51.983 C 327.444 54.701,329.089 56.000,329.553 56.000 C 329.799 56.000,330.000 56.274,330.000 56.610 C 330.000 56.945,330.425 57.382,330.945 57.579 C 331.465 57.777,332.000 58.223,332.133 58.569 C 332.266 58.916,332.550 59.200,332.764 59.200 C 332.978 59.200,333.950 59.965,334.924 60.900 C 337.287 63.169,340.721 66.112,341.540 66.569 C 341.903 66.772,342.435 67.267,342.723 67.669 C 343.010 68.071,343.505 68.400,343.823 68.400 C 344.140 68.400,344.400 68.670,344.400 69.000 C 344.400 69.330,344.589 69.600,344.819 69.600 C 345.050 69.600,345.635 70.008,346.119 70.507 C 347.754 72.190,353.895 77.200,354.322 77.200 C 354.555 77.200,354.860 77.560,355.000 78.000 C 355.140 78.440,355.448 78.800,355.685 78.800 C 355.922 78.800,356.495 79.170,356.958 79.622 C 360.074 82.664,362.992 85.195,365.924 87.400 C 366.216 87.620,366.835 88.205,367.300 88.700 C 367.764 89.195,368.281 89.600,368.449 89.600 C 368.616 89.600,369.575 90.410,370.579 91.400 C 371.583 92.390,372.584 93.200,372.802 93.200 C 373.021 93.200,373.200 93.470,373.200 93.800 C 373.200 94.130,373.361 94.400,373.559 94.400 C 373.974 94.400,376.056 96.088,377.679 97.743 L 378.801 98.886 378.701 238.543 L 378.600 378.200 358.200 378.200 L 337.800 378.200 337.578 302.400 C 337.352 224.992,337.256 220.413,335.830 218.830 C 335.518 218.483,335.133 217.660,334.976 217.000 C 334.664 215.694,334.093 214.800,333.570 214.800 C 333.387 214.800,333.492 215.295,333.803 215.900 C 334.114 216.505,334.871 218.080,335.484 219.400 L 336.600 221.800 336.712 300.096 L 336.823 378.391 337.992 378.996 C 339.811 379.936,377.173 379.898,378.614 378.954 L 379.600 378.308 379.589 238.654 L 379.578 99.000 378.489 97.757 C 377.890 97.073,375.780 95.192,373.800 93.577 C 371.820 91.962,369.813 90.271,369.339 89.820 C 368.264 88.796,364.935 85.913,360.771 82.400 C 358.178 80.212,356.685 78.920,355.229 77.600 C 353.765 76.274,351.084 74.021,348.500 71.945 C 347.345 71.018,346.400 70.110,346.400 69.929 C 346.400 69.748,346.228 69.600,346.018 69.600 C 345.808 69.600,345.214 69.195,344.697 68.700 C 344.180 68.205,342.900 67.080,341.851 66.200 C 340.803 65.320,339.451 64.150,338.846 63.600 C 338.242 63.050,337.219 62.194,336.574 61.697 C 335.427 60.815,333.055 58.754,330.081 56.056 C 329.267 55.317,327.025 53.437,325.100 51.877 C 323.175 50.318,321.600 48.898,321.600 48.721 C 321.600 48.544,321.416 48.400,321.191 48.400 C 320.966 48.400,321.076 48.850,321.437 49.400 M251.204 50.006 C 251.207 50.333,251.477 51.484,251.804 52.564 C 252.684 55.464,252.681 88.754,251.800 92.135 C 250.994 95.231,251.044 95.678,252.000 93.896 C 252.769 92.460,252.800 91.639,252.800 72.400 C 252.800 53.161,252.769 52.340,252.000 50.904 C 251.560 50.084,251.202 49.679,251.204 50.006 M207.900 64.698 L 230.800 64.806 230.809 79.503 C 230.817 93.474,230.856 94.249,231.600 95.200 C 232.030 95.750,232.386 96.407,232.391 96.660 C 232.404 97.338,235.098 99.916,236.119 100.226 C 236.604 100.374,237.331 100.786,237.736 101.142 C 238.829 102.103,244.669 102.067,245.380 101.095 C 245.660 100.713,246.191 100.400,246.561 100.400 C 247.401 100.400,251.200 96.895,251.200 96.120 C 251.200 95.806,250.435 96.391,249.500 97.421 C 244.293 103.157,235.903 102.231,232.321 95.525 C 231.420 93.837,231.396 93.484,231.200 79.200 L 231.000 64.600 208.000 64.595 L 185.000 64.590 207.900 64.698 M302.432 127.815 C 302.413 128.984,302.064 130.490,301.600 131.400 C 301.160 132.263,300.800 133.256,300.800 133.607 C 300.800 133.958,300.350 134.855,299.800 135.600 C 299.250 136.345,298.800 137.148,298.800 137.384 C 298.800 137.619,297.710 138.957,296.378 140.357 C 295.046 141.757,294.251 142.789,294.611 142.651 C 294.971 142.513,295.341 142.400,295.433 142.400 C 295.525 142.400,295.600 142.159,295.600 141.864 C 295.600 141.570,296.050 141.123,296.600 140.873 C 297.150 140.622,297.600 140.163,297.600 139.851 C 297.600 139.540,297.879 139.179,298.219 139.048 C 298.559 138.917,299.027 138.268,299.258 137.605 C 299.489 136.942,299.833 136.400,300.023 136.400 C 300.213 136.400,300.586 135.635,300.853 134.700 C 301.120 133.765,301.611 132.678,301.945 132.285 C 302.555 131.566,303.076 127.336,302.677 126.336 C 302.559 126.041,302.449 126.707,302.432 127.815 M113.256 131.000 C 113.232 131.880,113.474 133.050,113.795 133.600 C 114.116 134.150,114.659 135.193,115.002 135.917 C 115.345 136.642,115.890 137.336,116.213 137.460 C 116.536 137.584,116.800 137.906,116.800 138.175 C 116.800 138.876,120.401 142.800,121.045 142.800 C 121.341 142.800,120.597 141.845,119.392 140.677 C 118.186 139.510,117.200 138.411,117.200 138.235 C 117.200 138.059,116.750 137.381,116.200 136.727 C 115.650 136.073,115.200 135.252,115.200 134.901 C 115.200 134.550,114.896 133.927,114.525 133.517 C 114.154 133.107,113.726 132.013,113.575 131.086 L 113.300 129.400 113.256 131.000 M122.006 143.084 C 122.019 143.723,122.625 144.300,123.600 144.601 C 124.150 144.771,125.029 145.245,125.554 145.655 C 126.079 146.065,127.069 146.385,127.754 146.366 L 129.000 146.331 127.928 146.008 C 127.338 145.830,126.443 145.395,125.939 145.042 C 125.434 144.689,124.736 144.400,124.386 144.400 C 124.037 144.400,123.357 144.033,122.875 143.584 C 122.394 143.136,122.003 142.911,122.006 143.084 M292.233 143.564 C 291.852 143.984,291.059 144.448,290.471 144.595 C 289.882 144.742,289.130 145.102,288.800 145.395 C 288.470 145.687,287.750 146.009,287.200 146.109 C 286.324 146.268,286.355 146.298,287.446 146.346 C 288.131 146.375,289.121 146.065,289.646 145.655 C 290.171 145.245,291.050 144.773,291.600 144.606 C 292.770 144.250,293.600 143.647,293.600 143.151 C 293.600 142.564,292.963 142.757,292.233 143.564 M130.764 147.098 C 132.565 147.833,283.324 147.839,284.373 147.104 C 284.953 146.698,269.978 146.600,207.318 146.600 C 144.869 146.600,129.784 146.698,130.764 147.098 M141.900 202.300 C 173.855 202.356,226.145 202.356,258.100 202.300 C 290.055 202.244,263.910 202.197,200.000 202.197 C 136.090 202.197,109.945 202.244,141.900 202.300 M80.689 202.968 C 80.376 203.281,79.381 203.736,78.477 203.979 C 76.862 204.414,76.089 205.023,76.557 205.491 C 76.688 205.622,77.111 205.444,77.498 205.095 C 77.884 204.747,78.740 204.337,79.400 204.184 C 80.060 204.030,80.968 203.677,81.417 203.398 C 81.866 203.119,82.586 202.801,83.017 202.692 C 83.532 202.561,83.364 202.477,82.529 202.446 C 81.829 202.421,81.001 202.656,80.689 202.968 M316.800 202.667 C 317.130 202.780,317.993 203.138,318.718 203.463 C 319.443 203.788,320.253 203.967,320.518 203.859 C 320.864 203.718,320.851 203.654,320.471 203.632 C 320.181 203.614,319.673 203.330,319.343 203.000 C 319.013 202.670,318.171 202.414,317.471 202.432 C 316.772 202.449,316.470 202.555,316.800 202.667 M321.846 204.506 C 322.311 204.778,323.436 205.409,324.346 205.908 C 325.256 206.408,326.000 206.993,326.000 207.208 C 326.000 207.424,326.243 207.600,326.540 207.600 C 327.097 207.600,331.948 212.486,332.733 213.838 C 332.977 214.257,333.181 214.372,333.188 214.092 C 333.206 213.335,330.416 209.919,328.683 208.576 C 327.849 207.929,326.698 206.995,326.125 206.500 C 325.552 206.005,324.913 205.600,324.705 205.600 C 324.497 205.600,323.869 205.240,323.309 204.800 C 322.750 204.360,322.001 204.003,321.646 204.006 C 321.156 204.010,321.205 204.131,321.846 204.506 M73.875 206.500 C 73.302 206.995,72.151 207.931,71.317 208.579 C 69.831 209.734,67.007 213.140,67.295 213.428 C 67.375 213.508,68.658 212.230,70.146 210.587 C 71.634 208.944,73.101 207.600,73.406 207.600 C 73.711 207.600,74.104 207.359,74.280 207.065 C 74.456 206.770,74.960 206.325,75.400 206.077 C 76.024 205.724,76.059 205.622,75.558 205.612 C 75.206 205.605,74.448 206.005,73.875 206.500 M66.301 214.576 C 65.917 214.857,65.507 215.697,65.391 216.443 C 65.196 217.689,65.214 217.719,65.610 216.808 C 65.848 216.263,66.332 215.497,66.685 215.106 C 67.484 214.224,67.240 213.889,66.301 214.576 M64.014 218.774 C 63.786 219.199,63.600 219.962,63.600 220.468 C 63.600 221.238,63.731 221.144,64.400 219.896 C 65.309 218.199,65.353 218.000,64.814 218.000 C 64.602 218.000,64.242 218.348,64.014 218.774 M85.807 224.531 L 84.000 226.263 84.005 302.031 C 84.008 343.704,84.119 378.205,84.252 378.700 L 84.493 379.600 200.004 379.600 C 320.257 379.600,316.000 379.649,316.000 378.267 C 316.000 378.230,263.890 378.246,200.200 378.301 L 84.400 378.403 84.400 302.585 L 84.400 226.768 85.275 225.584 C 85.757 224.933,86.441 224.400,86.795 224.400 C 87.150 224.400,87.665 224.175,87.940 223.900 C 88.838 223.002,309.608 222.980,312.108 223.878 C 313.939 224.536,315.105 225.691,315.660 227.400 C 315.887 228.098,315.924 228.072,315.947 227.200 C 315.980 226.015,315.495 225.340,313.562 223.884 L 312.124 222.800 199.869 222.800 L 87.614 222.800 85.807 224.531 M146.800 265.400 C 146.526 265.730,145.909 266.000,145.429 266.000 C 144.396 266.000,142.535 267.302,141.058 269.058 C 139.354 271.084,139.838 270.924,142.022 268.740 C 145.332 265.430,141.615 265.630,200.080 265.614 C 257.968 265.598,254.554 265.428,257.756 268.496 C 263.053 273.572,261.731 281.873,255.098 285.188 L 252.672 286.400 199.992 286.400 L 147.313 286.400 145.091 285.279 C 140.589 283.008,138.040 277.949,139.332 273.849 C 140.200 271.094,140.171 270.733,139.200 272.200 C 138.208 273.698,138.055 278.416,138.974 279.179 C 139.290 279.441,139.659 280.157,139.794 280.770 C 140.089 282.118,142.257 284.574,143.498 284.968 C 143.991 285.124,144.698 285.556,145.069 285.926 C 146.224 287.082,253.320 287.158,254.880 286.004 C 255.478 285.562,256.155 285.200,256.383 285.200 C 256.894 285.200,260.000 282.230,260.000 281.741 C 260.000 281.547,260.385 280.671,260.856 279.794 C 261.906 277.838,261.999 273.504,261.014 272.415 C 260.676 272.042,260.400 271.412,260.400 271.015 C 260.400 269.829,256.597 266.382,255.003 266.123 C 254.238 265.999,253.408 265.650,253.157 265.349 C 252.439 264.483,147.519 264.534,146.800 265.400 M147.389 318.552 C 146.955 318.855,146.240 319.210,145.800 319.339 C 145.360 319.469,145.720 319.448,146.600 319.292 C 148.716 318.918,251.793 318.970,253.600 319.346 L 255.000 319.638 253.400 318.832 C 251.314 317.782,148.877 317.511,147.389 318.552 M141.939 321.513 C 140.916 322.551,139.947 323.842,139.787 324.381 C 139.626 324.921,139.248 325.609,138.947 325.910 C 136.844 328.013,140.619 338.400,143.486 338.400 C 143.710 338.400,144.407 338.805,145.036 339.300 L 146.180 340.200 200.057 340.200 L 253.933 340.200 255.074 339.356 C 255.702 338.892,256.617 338.385,257.108 338.229 C 257.598 338.074,258.000 337.805,258.000 337.632 C 258.000 337.460,258.540 336.754,259.200 336.063 C 259.860 335.372,260.400 334.505,260.400 334.135 C 260.400 333.765,260.686 333.146,261.037 332.760 C 261.872 331.837,261.887 326.590,261.057 325.642 C 260.748 325.289,260.381 324.626,260.242 324.168 C 259.914 323.087,256.425 319.600,255.671 319.600 C 255.352 319.600,255.705 320.095,256.458 320.700 C 260.788 324.183,262.008 327.886,260.386 332.622 C 259.396 335.512,257.975 337.147,255.144 338.657 L 253.000 339.800 200.200 339.800 L 147.400 339.800 145.153 338.713 C 142.182 337.277,140.657 335.454,139.551 332.020 L 138.643 329.200 139.529 326.500 C 140.433 323.746,141.192 322.649,143.537 320.700 C 144.266 320.095,144.623 319.606,144.331 319.613 C 144.039 319.620,142.963 320.475,141.939 321.513 M398.699 395.061 C 398.036 396.518,396.229 398.257,394.929 398.690 C 394.335 398.888,393.779 399.264,393.692 399.525 C 393.458 400.225,394.674 400.104,394.945 399.400 C 395.071 399.070,395.413 398.800,395.704 398.800 C 396.280 398.800,400.000 394.832,400.000 394.217 C 400.000 393.573,399.116 394.147,398.699 395.061 M0.000 394.800 C 0.000 395.020,0.250 395.200,0.557 395.200 C 0.863 395.200,1.226 395.650,1.364 396.200 C 1.502 396.750,1.870 397.200,2.181 397.200 C 2.492 397.200,2.860 397.560,3.000 398.000 C 3.140 398.440,3.525 398.800,3.855 398.800 C 4.233 398.800,3.945 398.315,3.084 397.500 C 2.329 396.785,1.584 395.795,1.429 395.300 C 1.151 394.417,0.000 394.014,0.000 394.800 " stroke="none" fill="#bcbcbc" fill-rule="evenodd"></path><path id="path4" d="M6.400 0.561 C 6.400 0.869,5.887 1.301,5.260 1.519 C 3.799 2.029,2.029 3.799,1.519 5.260 C 1.301 5.887,0.869 6.400,0.561 6.400 C 0.252 6.400,0.000 6.670,0.000 7.000 C 0.000 8.406,1.568 7.599,2.067 5.936 C 2.549 4.326,4.044 2.400,4.810 2.400 C 5.016 2.400,5.907 2.110,6.792 1.757 C 8.596 1.035,8.954 0.000,7.400 0.000 C 6.809 0.000,6.400 0.229,6.400 0.561 M294.475 0.700 C 294.555 1.119,295.324 1.641,296.391 2.000 C 297.372 2.330,298.810 3.233,299.587 4.007 C 301.709 6.119,305.861 9.600,306.258 9.600 C 306.450 9.600,306.832 9.960,307.107 10.400 C 307.382 10.840,307.806 11.200,308.050 11.200 C 308.294 11.200,309.157 11.875,309.967 12.700 C 310.778 13.525,312.692 15.277,314.220 16.594 C 315.749 17.911,317.090 19.082,317.200 19.196 C 317.832 19.854,320.408 21.600,320.746 21.600 C 320.966 21.600,321.260 21.960,321.400 22.400 C 321.540 22.840,321.808 23.200,321.995 23.200 C 322.183 23.200,323.116 23.965,324.068 24.901 C 326.563 27.351,330.650 30.800,331.058 30.800 C 331.250 30.800,331.632 31.160,331.907 31.600 C 332.182 32.040,332.599 32.400,332.835 32.400 C 333.070 32.400,334.031 33.165,334.969 34.100 C 337.494 36.617,343.323 41.600,343.742 41.600 C 343.960 41.600,344.974 42.502,349.400 46.632 C 350.500 47.659,352.300 49.173,353.400 49.998 C 354.500 50.823,355.904 51.971,356.521 52.549 C 357.137 53.127,357.736 53.600,357.852 53.600 C 357.968 53.600,358.724 54.278,359.531 55.106 C 361.147 56.763,368.215 62.800,368.539 62.800 C 368.731 62.800,370.535 64.428,374.200 67.908 C 375.080 68.743,376.606 70.051,377.590 70.813 C 378.575 71.576,379.588 72.380,379.841 72.600 C 380.095 72.820,380.866 73.450,381.554 74.000 C 382.242 74.550,383.567 75.720,384.497 76.600 C 385.427 77.480,387.451 79.235,388.994 80.499 C 390.537 81.764,392.085 83.069,392.434 83.399 C 392.782 83.730,393.197 84.000,393.356 84.000 C 394.263 84.000,397.835 88.234,398.200 89.741 C 398.637 91.544,400.000 92.368,400.000 90.829 C 400.000 90.373,399.811 90.000,399.580 90.000 C 399.348 90.000,398.911 89.415,398.608 88.700 C 397.944 87.132,395.649 84.910,389.800 80.171 C 387.380 78.210,385.040 76.236,384.600 75.783 C 384.160 75.331,381.551 73.080,378.803 70.780 C 376.054 68.481,373.522 66.330,373.175 66.000 C 371.777 64.668,367.184 60.735,363.600 57.801 C 361.510 56.090,359.620 54.480,359.400 54.224 C 359.180 53.967,356.750 51.891,354.000 49.610 C 351.250 47.329,348.820 45.258,348.600 45.007 C 348.258 44.618,345.850 42.554,342.056 39.400 C 341.527 38.960,340.893 38.420,340.647 38.200 C 340.401 37.980,339.030 36.821,337.600 35.624 C 336.170 34.428,334.818 33.238,334.596 32.980 C 334.374 32.722,331.967 30.678,329.247 28.439 C 326.527 26.199,324.009 24.043,323.651 23.648 C 323.293 23.252,322.010 22.137,320.800 21.170 C 319.590 20.202,318.510 19.319,318.400 19.205 C 318.155 18.954,315.653 16.811,312.788 14.400 C 311.612 13.410,310.098 12.100,309.425 11.488 C 308.751 10.877,307.840 10.051,307.400 9.653 C 306.960 9.254,304.980 7.612,303.000 6.002 C 301.020 4.392,299.200 2.833,298.955 2.536 C 298.710 2.239,297.945 1.800,297.255 1.559 C 296.565 1.319,296.000 0.869,296.000 0.561 C 296.000 0.252,295.627 0.000,295.171 0.000 C 294.597 0.000,294.382 0.215,294.475 0.700 M20.528 19.599 C 19.890 19.859,19.591 20.415,19.412 21.677 C 18.650 27.062,19.401 379.666,20.176 380.232 C 21.521 381.215,62.838 381.063,63.735 380.072 C 64.342 379.401,64.402 373.061,64.497 300.343 C 64.592 227.377,64.651 221.292,65.264 220.679 C 65.628 220.314,66.047 219.306,66.193 218.439 C 66.340 217.572,66.693 216.773,66.978 216.664 C 67.264 216.554,67.623 215.963,67.777 215.350 C 68.180 213.744,75.129 206.967,76.734 206.615 C 77.428 206.462,78.152 206.058,78.343 205.717 C 78.545 205.356,79.612 204.952,80.895 204.750 C 82.107 204.560,83.617 204.135,84.250 203.805 C 86.049 202.866,314.581 202.891,315.921 203.830 C 316.416 204.176,317.814 204.562,319.028 204.688 C 320.502 204.840,321.402 205.153,321.736 205.630 C 322.011 206.022,322.738 206.470,323.352 206.624 C 323.965 206.778,324.866 207.285,325.353 207.752 C 325.840 208.218,326.860 209.162,327.619 209.848 C 330.061 212.055,331.877 214.181,332.192 215.204 C 332.361 215.752,332.837 216.522,333.250 216.916 C 333.662 217.309,334.000 218.124,334.000 218.727 C 334.000 219.329,334.315 220.267,334.700 220.811 C 335.359 221.742,335.412 226.386,335.600 300.680 C 335.762 364.662,335.898 379.658,336.320 380.080 C 337.084 380.844,379.317 380.843,380.080 380.080 C 380.504 379.656,380.619 353.703,380.702 239.052 L 380.803 98.545 378.702 96.506 C 375.824 93.715,374.588 92.629,372.332 90.909 C 371.270 90.099,370.400 89.312,370.400 89.161 C 370.400 89.010,369.950 88.774,369.400 88.636 C 368.850 88.498,368.400 88.125,368.400 87.806 C 368.400 87.488,368.013 87.021,367.541 86.768 C 367.069 86.516,366.114 85.744,365.420 85.054 C 363.157 82.806,359.302 79.600,358.860 79.600 C 358.622 79.600,358.235 79.240,358.000 78.800 C 357.765 78.360,357.391 78.000,357.170 78.000 C 356.949 78.000,355.911 77.145,354.863 76.100 C 352.120 73.365,346.741 68.800,346.261 68.800 C 346.149 68.800,345.238 68.035,344.236 67.100 C 342.598 65.571,339.429 62.698,337.785 61.253 C 336.970 60.536,334.042 58.157,332.903 57.286 C 332.409 56.909,330.699 55.397,329.103 53.926 C 324.998 50.146,321.927 47.600,321.471 47.600 C 321.353 47.600,320.455 46.835,319.475 45.900 C 314.994 41.625,309.401 36.800,308.926 36.800 C 308.742 36.800,308.368 36.440,308.093 36.000 C 307.818 35.560,307.425 35.200,307.220 35.200 C 307.015 35.200,306.011 34.376,304.990 33.369 C 301.319 29.751,301.600 25.835,301.600 80.676 C 301.600 120.982,301.512 128.566,301.038 129.314 C 300.730 129.801,300.355 130.960,300.205 131.888 C 300.056 132.817,299.589 134.015,299.167 134.551 C 298.745 135.087,298.400 135.652,298.400 135.805 C 298.400 135.959,297.950 136.619,297.400 137.273 C 296.850 137.927,296.400 138.705,296.400 139.004 C 296.400 139.302,296.040 139.660,295.600 139.800 C 295.159 139.940,294.613 140.402,294.386 140.827 C 294.158 141.252,293.727 141.600,293.428 141.600 C 293.129 141.600,292.460 142.047,291.942 142.593 C 291.424 143.139,290.619 143.589,290.154 143.593 C 289.689 143.597,288.793 144.005,288.164 144.500 L 287.020 145.400 207.752 145.400 C 134.519 145.400,128.428 145.350,127.742 144.737 C 127.334 144.373,126.235 143.871,125.300 143.622 C 124.365 143.373,123.600 143.008,123.600 142.812 C 123.600 142.615,123.211 142.330,122.736 142.180 C 121.649 141.835,117.600 137.790,117.600 137.049 C 117.600 136.746,117.339 136.282,117.020 136.017 C 116.702 135.752,116.229 134.875,115.970 134.068 C 115.711 133.261,115.207 132.266,114.849 131.858 C 114.259 131.184,114.182 126.075,114.000 75.591 C 113.890 45.053,113.650 19.916,113.467 19.733 C 113.014 19.281,21.636 19.150,20.528 19.599 M133.600 19.591 C 132.708 20.155,132.471 124.998,133.359 126.212 C 134.138 127.278,278.874 127.681,281.403 126.625 L 282.800 126.041 282.879 74.920 C 282.967 17.751,283.004 20.387,282.103 19.700 C 281.283 19.075,134.586 18.968,133.600 19.591 M112.284 20.248 L 113.168 20.485 113.284 75.542 L 113.400 130.600 114.500 132.693 C 115.105 133.844,115.600 134.988,115.600 135.235 C 115.600 136.053,121.118 142.400,121.830 142.400 C 122.075 142.400,122.602 142.760,123.000 143.200 C 123.398 143.640,123.887 144.000,124.087 144.000 C 124.286 144.000,125.473 144.495,126.725 145.100 L 129.000 146.200 205.800 146.307 C 282.603 146.414,287.318 146.341,288.770 145.027 C 289.151 144.682,289.700 144.400,289.990 144.400 C 291.544 144.400,298.099 138.823,298.637 137.043 C 298.777 136.579,299.206 135.840,299.590 135.400 C 299.974 134.960,300.480 133.880,300.715 133.000 C 300.950 132.120,301.418 130.680,301.754 129.800 C 302.289 128.399,302.368 122.309,302.389 80.800 C 302.402 54.730,302.554 33.176,302.728 32.903 C 302.956 32.544,303.486 32.825,304.622 33.905 C 305.490 34.729,308.270 37.101,310.800 39.174 C 313.330 41.248,316.186 43.677,317.147 44.572 C 318.850 46.158,320.774 47.868,322.011 48.893 C 322.348 49.172,323.607 50.210,324.810 51.200 C 327.231 53.192,329.382 55.065,330.360 56.033 C 330.712 56.382,333.160 58.435,335.800 60.595 C 338.440 62.756,340.784 64.745,341.010 65.015 C 341.235 65.285,342.587 66.473,344.013 67.653 C 346.551 69.754,347.529 70.583,349.380 72.200 C 349.883 72.640,351.259 73.810,352.436 74.800 C 353.614 75.790,354.943 76.972,355.389 77.428 C 355.835 77.883,358.199 79.890,360.643 81.889 C 363.087 83.888,365.521 85.945,366.053 86.461 C 366.585 86.978,367.877 88.120,368.925 89.000 C 369.973 89.880,371.319 91.052,371.915 91.605 C 372.512 92.158,373.709 93.148,374.576 93.805 C 375.443 94.462,377.018 95.864,378.076 96.919 L 380.000 98.838 380.000 238.543 C 380.000 358.567,379.920 378.356,379.432 379.024 C 378.706 380.017,338.103 380.263,337.120 379.280 C 336.698 378.858,336.562 363.934,336.400 300.280 L 336.200 221.800 335.300 220.116 C 334.805 219.190,334.400 218.075,334.400 217.640 C 334.400 217.204,334.217 216.734,333.994 216.596 C 333.771 216.459,333.228 215.638,332.786 214.773 C 332.345 213.909,330.683 211.918,329.092 210.349 C 325.515 206.822,325.206 206.565,324.148 206.239 C 323.679 206.094,322.886 205.622,322.386 205.188 C 321.887 204.755,321.152 204.400,320.754 204.400 C 320.355 204.400,319.116 204.040,318.000 203.600 C 315.987 202.807,315.027 202.800,200.085 202.800 L 84.200 202.800 81.600 203.658 C 80.170 204.129,78.730 204.667,78.400 204.853 C 78.070 205.039,77.120 205.560,76.288 206.010 C 74.218 207.131,73.422 207.785,70.407 210.846 C 67.982 213.308,67.198 214.546,64.737 219.800 L 63.800 221.800 63.600 300.515 C 63.424 369.902,63.329 379.274,62.800 379.609 C 61.428 380.475,21.689 380.089,20.800 379.200 C 20.002 378.402,20.000 377.867,20.000 200.650 C 20.000 20.085,19.997 20.573,21.146 20.267 C 22.156 19.998,111.283 19.979,112.284 20.248 M281.771 20.629 C 282.336 21.194,282.400 26.534,282.400 73.438 L 282.400 125.620 281.371 126.011 C 280.711 126.262,254.100 126.366,207.071 126.301 L 133.800 126.200 133.697 73.600 C 133.641 44.670,133.680 20.775,133.785 20.500 C 134.107 19.652,280.922 19.779,281.771 20.629 M184.400 44.370 C 175.615 46.113,174.731 58.537,183.076 62.979 L 184.994 64.000 207.523 64.000 C 222.288 64.000,230.319 64.143,230.826 64.414 C 231.569 64.811,231.600 65.397,231.600 78.939 C 231.600 93.029,231.601 93.053,232.562 95.025 C 235.738 101.545,243.869 102.786,248.888 97.517 C 251.458 94.819,251.400 95.404,251.400 72.000 C 251.400 49.462,251.412 49.590,249.044 47.169 C 246.974 45.054,246.562 44.810,244.353 44.391 C 242.011 43.947,186.630 43.927,184.400 44.370 M245.381 45.264 C 245.942 45.520,246.400 45.860,246.400 46.021 C 246.400 46.182,246.850 46.426,247.400 46.564 C 247.950 46.702,248.400 46.992,248.400 47.208 C 248.400 47.423,248.783 47.983,249.252 48.452 C 250.560 49.760,250.768 53.124,250.733 72.400 C 250.691 95.013,250.724 94.679,248.312 97.130 C 244.768 100.732,238.610 100.798,235.084 97.272 C 232.633 94.821,232.414 93.247,232.406 78.031 C 232.401 66.531,232.325 64.980,231.738 64.331 C 231.111 63.639,229.854 63.600,208.187 63.600 C 188.688 63.600,185.227 63.514,184.817 63.020 C 184.552 62.702,183.742 62.245,183.016 62.005 C 182.289 61.765,180.923 60.721,179.980 59.685 L 178.265 57.801 178.233 54.200 C 178.199 50.521,179.610 46.859,181.078 46.815 C 181.340 46.807,182.060 46.356,182.678 45.813 L 183.800 44.825 214.081 44.813 C 236.233 44.803,244.636 44.925,245.381 45.264 M85.355 223.233 C 84.500 223.911,83.678 224.766,83.528 225.133 C 82.872 226.744,83.168 379.511,83.829 380.171 C 84.821 381.164,315.627 381.131,316.451 380.139 C 317.038 379.431,317.546 233.222,316.981 227.630 C 316.749 225.335,316.556 224.895,315.176 223.530 L 313.631 222.000 200.271 222.000 L 86.910 222.000 85.355 223.233 M313.206 223.141 C 313.973 223.548,315.005 224.475,315.500 225.200 L 316.400 226.518 316.400 302.485 C 316.400 354.087,316.267 378.701,315.986 379.226 C 315.578 379.988,313.853 380.000,199.976 380.000 L 84.380 380.000 83.990 378.974 C 83.390 377.396,83.462 227.005,84.064 225.881 C 84.540 224.990,85.899 223.770,87.367 222.914 C 88.966 221.982,311.446 222.205,313.206 223.141 M146.478 266.427 C 137.334 268.227,137.209 281.585,146.302 285.370 L 148.804 286.412 200.702 286.306 L 252.600 286.200 255.000 284.865 C 263.337 280.230,262.156 268.098,253.203 266.401 C 250.594 265.906,148.997 265.931,146.478 266.427 M255.472 267.696 C 255.872 268.079,256.856 268.983,257.658 269.704 C 261.754 273.388,259.413 282.942,254.062 284.383 C 253.167 284.624,252.326 284.997,252.193 285.211 C 251.755 285.920,148.717 285.724,147.776 285.013 C 147.349 284.690,146.582 284.420,146.070 284.413 C 141.783 284.354,138.444 273.571,141.749 270.457 C 142.217 270.016,142.816 269.418,143.081 269.128 C 144.167 267.936,145.027 267.387,146.182 267.148 C 149.524 266.458,254.728 266.986,255.472 267.696 M149.000 319.400 C 148.780 319.475,147.718 319.656,146.641 319.802 C 137.817 320.995,137.027 334.574,145.555 338.441 L 148.111 339.600 200.214 339.600 L 252.318 339.600 254.725 338.406 C 263.496 334.054,262.182 321.204,252.808 319.656 C 250.288 319.240,150.189 318.993,149.000 319.400 M256.924 322.500 C 261.360 326.705,260.044 336.173,254.843 337.474 C 254.269 337.618,253.260 338.064,252.600 338.466 C 250.641 339.659,149.205 339.595,147.400 338.400 C 146.740 337.963,145.858 337.604,145.440 337.603 C 143.684 337.597,140.921 333.867,140.643 331.128 C 140.188 326.638,140.767 324.647,143.190 322.372 L 145.291 320.400 200.000 320.400 L 254.709 320.400 256.924 322.500 M398.651 392.500 C 398.339 392.995,397.950 393.843,397.788 394.385 C 397.304 395.998,395.446 397.528,393.349 398.040 C 390.359 398.770,389.262 400.000,391.600 400.000 C 392.357 400.000,392.800 399.795,392.800 399.445 C 392.800 399.137,393.380 398.775,394.100 398.633 C 395.739 398.310,397.797 396.460,398.567 394.617 C 398.893 393.837,399.348 393.200,399.580 393.200 C 399.811 393.200,400.000 392.840,400.000 392.400 C 400.000 391.337,399.354 391.385,398.651 392.500 M0.000 393.000 C 0.000 393.330,0.267 393.600,0.592 393.600 C 0.918 393.600,1.305 394.095,1.452 394.700 C 1.785 396.073,3.984 398.280,5.363 398.626 C 5.933 398.770,6.400 399.137,6.400 399.443 C 6.400 399.750,6.773 400.000,7.229 400.000 C 8.732 400.000,7.952 398.640,6.196 398.200 C 4.189 397.697,2.555 396.061,1.999 393.996 C 1.567 392.393,0.000 391.612,0.000 393.000 " stroke="none" fill="#747474" fill-rule="evenodd"></path></g></svg>