<svg width="362" height="362" viewBox="0 0 362 362" fill="none" xmlns="http://www.w3.org/2000/svg">
<rect width="362" height="362" fill="none"/>
<path d="M136 31L222.603 81V181L136 231L49.3975 181V81L136 31Z" fill="#83F1C4"/>
<path d="M223 81L309.603 131V231L223 281L136.397 231V131L223 81Z" fill="#83DCF1"/>
<path d="M136 131L222.603 181V281L136 331L49.3975 281V181L136 131Z" fill="#83F1F1"/>
<path fill-rule="evenodd" clip-rule="evenodd" d="M222.603 280.771L136.397 231V131.229L222.603 181V280.771Z" fill="#50D7EB"/>
<path fill-rule="evenodd" clip-rule="evenodd" d="M136.103 230.426L136.103 130.885L222.506 81L222.506 180.541L136.103 230.426Z" fill="#50D7DC"/>
<path fill-rule="evenodd" clip-rule="evenodd" d="M49 180.656L135.205 130.885L221.609 180.771L135.404 230.541L49 180.656Z" fill="#50EBC2"/>
<path fill-rule="evenodd" clip-rule="evenodd" d="M136.397 131.574L221.609 180.771L136.397 229.967V131.574Z" fill="#3DD5DA"/>
<path d="M89.3013 170H81.2413C80.5826 170 80.0973 169.861 79.7853 169.584C79.5079 169.272 79.3693 168.787 79.3693 168.128V134.432C79.3693 133.773 79.5079 133.305 79.7853 133.028C80.0973 132.716 80.5826 132.56 81.2413 132.56H97.1533C101.868 132.56 105.092 133.496 106.825 135.368C108.559 137.24 109.425 139.684 109.425 142.7V149.356C109.425 152.372 108.559 154.816 106.825 156.688C105.092 158.56 101.868 159.496 97.1533 159.496H91.1733V168.128C91.1733 168.787 91.0173 169.272 90.7053 169.584C90.4279 169.861 89.9599 170 89.3013 170ZM91.0692 142.284V150.136H95.7493C96.7546 150.136 97.4133 149.876 97.7253 149.356C98.0373 148.836 98.1933 148.247 98.1933 147.588V144.832C98.1933 144.173 98.0373 143.584 97.7253 143.064C97.4133 142.544 96.7546 142.284 95.7493 142.284H91.0692ZM143.155 170H116.687C116.028 170 115.543 169.861 115.231 169.584C114.953 169.272 114.815 168.787 114.815 168.128V134.432C114.815 133.773 114.953 133.305 115.231 133.028C115.543 132.716 116.028 132.56 116.687 132.56H124.747C125.405 132.56 125.873 132.716 126.151 133.028C126.463 133.305 126.619 133.773 126.619 134.432V160.172H133.743V151.748C133.743 151.089 133.881 150.621 134.159 150.344C134.471 150.032 134.956 149.876 135.615 149.876H143.155C143.813 149.876 144.281 150.032 144.559 150.344C144.871 150.621 145.027 151.089 145.027 151.748V168.128C145.027 168.787 144.871 169.272 144.559 169.584C144.281 169.861 143.813 170 143.155 170ZM182.847 160.172C182.847 161.767 182.604 163.223 182.119 164.54C181.668 165.823 180.836 166.932 179.623 167.868C178.444 168.769 176.815 169.48 174.735 170C172.655 170.52 170.003 170.78 166.779 170.78C163.555 170.78 160.903 170.52 158.823 170C156.743 169.48 155.096 168.769 153.883 167.868C152.704 166.932 151.872 165.823 151.387 164.54C150.936 163.223 150.711 161.767 150.711 160.172V134.432C150.711 133.773 150.849 133.305 151.127 133.028C151.439 132.716 151.924 132.56 152.583 132.56H160.747C161.405 132.56 161.873 132.716 162.151 133.028C162.463 133.305 162.619 133.773 162.619 134.432V158.144C162.619 158.837 162.879 159.427 163.399 159.912C163.919 160.363 165.08 160.588 166.883 160.588C168.72 160.588 169.899 160.363 170.419 159.912C170.939 159.427 171.199 158.837 171.199 158.144V134.432C171.199 133.773 171.337 133.305 171.615 133.028C171.927 132.716 172.412 132.56 173.071 132.56H180.975C181.633 132.56 182.101 132.716 182.379 133.028C182.691 133.305 182.847 133.773 182.847 134.432V160.172ZM207.136 170H190.704C190.045 170 189.56 169.861 189.248 169.584C188.97 169.272 188.832 168.787 188.832 168.128V162.044C188.832 161.385 188.97 160.917 189.248 160.64C189.56 160.328 190.045 160.172 190.704 160.172H204.692C205.142 160.172 205.472 160.033 205.68 159.756C205.922 159.444 206.044 159.08 206.044 158.664C206.044 158.075 205.922 157.641 205.68 157.364C205.472 157.087 205.142 156.931 204.692 156.896L196.892 155.804C194.465 155.457 192.506 154.66 191.016 153.412C189.56 152.164 188.832 150.084 188.832 147.172V141.712C188.832 138.765 189.785 136.512 191.692 134.952C193.598 133.357 196.233 132.56 199.596 132.56H214.156C214.814 132.56 215.282 132.716 215.56 133.028C215.872 133.305 216.028 133.773 216.028 134.432V140.62C216.028 141.279 215.872 141.764 215.56 142.076C215.282 142.353 214.814 142.492 214.156 142.492H202.04C201.589 142.492 201.242 142.648 201 142.96C200.757 143.237 200.636 143.601 200.636 144.052C200.636 144.503 200.757 144.884 201 145.196C201.242 145.508 201.589 145.681 202.04 145.716L209.788 146.756C212.214 147.103 214.173 147.9 215.664 149.148C217.154 150.396 217.9 152.476 217.9 155.388V160.848C217.9 163.795 216.929 166.065 214.988 167.66C213.081 169.22 210.464 170 207.136 170Z" fill="black"/>
<path d="M143.792 215.172C143.792 216.767 143.55 218.223 143.064 219.54C142.614 220.823 141.782 221.932 140.568 222.868C139.39 223.769 137.743 224.48 135.628 225C133.548 225.52 130.896 225.78 127.672 225.78C124.448 225.78 121.779 225.52 119.664 225C117.55 224.48 115.886 223.769 114.672 222.868C113.494 221.932 112.662 220.823 112.176 219.54C111.726 218.223 111.5 216.767 111.5 215.172V197.44C111.5 195.845 111.726 194.407 112.176 193.124C112.662 191.807 113.494 190.68 114.672 189.744C115.886 188.808 117.55 188.08 119.664 187.56C121.779 187.04 124.448 186.78 127.672 186.78C130.896 186.78 133.548 187.04 135.628 187.56C137.743 188.08 139.39 188.808 140.568 189.744C141.782 190.68 142.614 191.807 143.064 193.124C143.55 194.407 143.792 195.845 143.792 197.44V215.172ZM123.304 213.3C123.304 213.993 123.564 214.583 124.084 215.068C124.604 215.519 125.8 215.744 127.672 215.744C129.544 215.744 130.74 215.519 131.26 215.068C131.78 214.583 132.04 213.993 132.04 213.3V199.312C132.04 198.653 131.78 198.099 131.26 197.648C130.74 197.163 129.544 196.92 127.672 196.92C125.8 196.92 124.604 197.163 124.084 197.648C123.564 198.099 123.304 198.653 123.304 199.312V213.3ZM160.084 225H152.284C151.626 225 151.14 224.861 150.828 224.584C150.551 224.272 150.412 223.787 150.412 223.128V189.432C150.412 188.773 150.551 188.305 150.828 188.028C151.14 187.716 151.626 187.56 152.284 187.56H157.692C158.351 187.56 158.906 187.664 159.356 187.872C159.842 188.08 160.31 188.444 160.76 188.964L170.848 200.508V189.432C170.848 188.773 170.987 188.305 171.264 188.028C171.576 187.716 172.062 187.56 172.72 187.56H180.52C181.179 187.56 181.647 187.716 181.924 188.028C182.236 188.305 182.392 188.773 182.392 189.432V223.128C182.392 223.787 182.236 224.272 181.924 224.584C181.647 224.861 181.179 225 180.52 225H172.72C172.062 225 171.576 224.861 171.264 224.584C170.987 224.272 170.848 223.787 170.848 223.128V216.732L161.956 205.968V223.128C161.956 223.787 161.8 224.272 161.488 224.584C161.211 224.861 160.743 225 160.084 225ZM215.565 225H191.437C190.778 225 190.293 224.861 189.981 224.584C189.703 224.272 189.565 223.787 189.565 223.128V189.432C189.565 188.773 189.703 188.305 189.981 188.028C190.293 187.716 190.778 187.56 191.437 187.56H215.565C216.223 187.56 216.691 187.716 216.969 188.028C217.281 188.305 217.437 188.773 217.437 189.432V195.516C217.437 196.175 217.281 196.66 216.969 196.972C216.691 197.249 216.223 197.388 215.565 197.388H201.213V201.392H211.353C212.011 201.392 212.479 201.548 212.757 201.86C213.069 202.137 213.225 202.605 213.225 203.264V208.828C213.225 209.487 213.069 209.972 212.757 210.284C212.479 210.561 212.011 210.7 211.353 210.7H201.213V215.172H215.565C216.223 215.172 216.691 215.328 216.969 215.64C217.281 215.917 217.437 216.385 217.437 217.044V223.128C217.437 223.787 217.281 224.272 216.969 224.584C216.691 224.861 216.223 225 215.565 225Z" fill="black"/>
</svg>
